#VRML V1.0 ascii
Separator {
MaterialBinding {
value PER_FACE_INDEXED
}
Material {
ambientColor [
 0.792157 0.819608 0.933333, 0.745098 0.745098 0.745098, 0.745098 0.745098 0.745098, 0.745098 0.745098 0.745098, 0.745098 0.745098 0.745098,
 0.745098 0.745098 0.745098, 0.745098 0.745098 0.745098
]
diffuseColor [
 0.792157 0.819608 0.933333, 0.745098 0.745098 0.745098, 0.745098 0.745098 0.745098, 0.745098 0.745098 0.745098, 0.745098 0.745098 0.745098,
 0.745098 0.745098 0.745098, 0.745098 0.745098 0.745098
]
emissiveColor [
 0.000000 0.000000 0.000000, 0.000000 0.000000 0.000000, 0.000000 0.000000 0.000000, 0.000000 0.000000 0.000000, 0.000000 0.000000 0.000000,
 0.000000 0.000000 0.000000, 0.000000 0.000000 0.000000
]
specularColor [
 0.396078 0.409804 0.466667, 0.745098 0.745098 0.745098, 0.745098 0.745098 0.745098, 0.745098 0.745098 0.745098, 0.745098 0.745098 0.745098,
 0.745098 0.745098 0.745098, 0.745098 0.745098 0.745098
]
shininess [
 0.400000, 0.312500, 0.312500, 0.312500, 0.312500, 0.312500, 0.312500
]
transparency [
 0.000000, 0.000000, 0.000000, 0.000000, 0.000000, 0.000000, 0.000000
]
}
Coordinate3 {
point [
 -0.004600 0.006001 0.001167, -0.004600 0.006001 0.002333, -0.004600 0.006469 0.001167, -0.004600 0.006469 0.002333, -0.003300 0.006469 0.001399,
 -0.003300 0.006469 0.001633, -0.003300 0.007168 0.001400, -0.003300 0.007168 0.001633, -0.003300 0.007272 0.001388, -0.003300 0.007305 0.001619,
 -0.003300 0.007371 0.001354, -0.003300 0.007436 0.001579, -0.003300 0.007459 0.001298, -0.003300 0.007533 0.001224, -0.003300 0.007557 0.001515,
 -0.003300 0.007589 0.001136, -0.003300 0.007624 0.001037, -0.003300 0.007635 0.000233, -0.003300 0.007635 0.000933, -0.003300 0.007663 0.001428,
 -0.003300 0.007750 0.001322, -0.003300 0.007815 0.001201, -0.003300 0.007855 0.001069, -0.003300 0.007868 0.000233, -0.003300 0.007868 0.000933,
 -0.002850 0.007635 -0.003062, -0.002850 0.007635 0.000233, -0.002850 0.007868 -0.003062, -0.002850 0.007868 0.000233, -0.002550 0.007635 -0.003562,
 -0.002550 0.007868 -0.003562, -0.002450 0.007635 -0.003562, -0.002450 0.007868 -0.003562, -0.002150 0.007635 -0.003062, -0.002150 0.007635 0.000233,
 -0.002150 0.007868 -0.003062, -0.002150 0.007868 0.000233, -0.001710 0.006001 0.001167, -0.001710 0.006001 0.002333, -0.001710 0.006469 0.001167,
 -0.001710 0.006469 0.001399, -0.001710 0.006469 0.001633, -0.001710 0.006469 0.002333, -0.001700 0.006469 0.001399, -0.001700 0.006469 0.001633,
 -0.001700 0.007168 0.001400, -0.001700 0.007168 0.001633, -0.001700 0.007272 0.001388, -0.001700 0.007305 0.001619, -0.001700 0.007371 0.001354,
 -0.001700 0.007436 0.001579, -0.001700 0.007459 0.001298, -0.001700 0.007533 0.001224, -0.001700 0.007557 0.001515, -0.001700 0.007589 0.001136,
 -0.001700 0.007624 0.001037, -0.001700 0.007635 0.000233, -0.001700 0.007635 0.000933, -0.001700 0.007663 0.001428, -0.001700 0.007750 0.001322,
 -0.001700 0.007815 0.001201, -0.001700 0.007855 0.001069, -0.001700 0.007868 0.000233, -0.001700 0.007868 0.000933
]
}
IndexedFaceSet {
coordIndex [
 42, 38, 41, -1, 41, 38, 37, -1, 41, 37, 40, -1,
 40, 37, 39, -1, 44, 41, 43, -1, 43, 41, 40, -1,
 0, 2, 37, -1, 37, 2, 39, -1, 1, 0, 38, -1,
 38, 0, 37, -1, 3, 1, 42, -1, 42, 1, 38, -1,
 29, 25, 30, -1, 30, 25, 27, -1, 26, 28, 25, -1,
 25, 28, 27, -1, 34, 56, 57, -1, 18, 17, 26, -1,
 29, 31, 25, -1, 25, 31, 33, -1, 25, 33, 26, -1,
 26, 33, 34, -1, 26, 34, 18, -1, 18, 34, 57, -1,
 32, 35, 31, -1, 31, 35, 33, -1, 36, 34, 35, -1,
 35, 34, 33, -1, 36, 62, 34, -1, 34, 62, 56, -1,
 23, 28, 17, -1, 17, 28, 26, -1, 56, 62, 57, -1,
 57, 62, 63, -1, 57, 63, 55, -1, 55, 63, 61, -1,
 55, 61, 54, -1, 54, 61, 60, -1, 54, 60, 52, -1,
 44, 43, 46, -1, 46, 43, 45, -1, 46, 45, 48, -1,
 48, 45, 47, -1, 48, 47, 50, -1, 50, 47, 49, -1,
 50, 49, 53, -1, 53, 49, 51, -1, 53, 51, 58, -1,
 58, 51, 52, -1, 58, 52, 59, -1, 59, 52, 60, -1,
 4, 5, 6, -1, 6, 5, 7, -1, 6, 7, 8, -1,
 8, 7, 9, -1, 8, 9, 10, -1, 10, 9, 11, -1,
 10, 11, 12, -1, 11, 14, 12, -1, 12, 14, 19, -1,
 12, 19, 13, -1, 13, 19, 20, -1, 13, 20, 15, -1,
 15, 20, 21, -1, 15, 21, 16, -1, 16, 21, 22, -1,
 16, 22, 18, -1, 18, 22, 24, -1, 18, 24, 17, -1,
 17, 24, 23, -1, 1, 3, 0, -1, 0, 3, 2, -1,
 63, 62, 24, -1, 24, 62, 36, -1, 23, 24, 28, -1,
 28, 24, 36, -1, 28, 36, 27, -1, 27, 36, 35, -1,
 27, 35, 30, -1, 30, 35, 32, -1, 32, 31, 30, -1,
 30, 31, 29, -1, 18, 57, 16, -1, 16, 57, 55, -1,
 16, 55, 15, -1, 15, 55, 54, -1, 15, 54, 13, -1,
 13, 54, 52, -1, 13, 52, 12, -1, 12, 52, 51, -1,
 12, 51, 10, -1, 10, 51, 49, -1, 10, 49, 8, -1,
 8, 49, 47, -1, 8, 47, 6, -1, 6, 47, 45, -1,
 40, 39, 4, -1, 4, 39, 2, -1, 4, 2, 5, -1,
 5, 2, 3, -1, 5, 3, 41, -1, 41, 3, 42, -1,
 4, 6, 40, -1, 40, 6, 45, -1, 40, 45, 43, -1,
 7, 46, 48, -1, 7, 48, 9, -1, 9, 48, 50, -1,
 9, 50, 11, -1, 11, 50, 53, -1, 11, 53, 14, -1,
 14, 53, 58, -1, 14, 58, 19, -1, 19, 58, 59, -1,
 19, 59, 20, -1, 20, 59, 60, -1, 20, 60, 21, -1,
 21, 60, 61, -1, 21, 61, 22, -1, 22, 61, 63, -1,
 22, 63, 24, -1, 44, 46, 41, -1, 41, 46, 7, -1,
 41, 7, 5, -1
]
materialIndex [
 1, 1, 1, 1, 2, 2, 3, 3,
 0, 0, 4, 4, 0, 0,
 0, 0, 0, 0, 0, 0, 0, 0, 0, 0, 0, 0,
 0, 0, 0, 0, 0, 0,
 0, 0, 0, 0, 0, 0, 0, 0, 0, 0, 0, 0, 0, 0, 0, 0, 0, 0, 0, 0, 0, 0, 0, 0, 0, 0, 0, 0, 0, 0, 0, 0, 0, 0, 0, 0, 0, 0, 5, 5,
 0, 0, 0, 0, 0, 0, 0, 0, 0, 0, 0, 0, 0, 0, 0, 0, 0, 0, 0, 0, 0, 0, 0, 0,
 6, 6, 6, 6, 6, 6, 0, 0, 0, 0, 0, 0, 0, 0, 0, 0, 0, 0, 0, 0, 0, 0, 0, 0, 0,
 0, 0, 0,
]
}
}
Separator {
MaterialBinding {
value PER_FACE_INDEXED
}
Material {
ambientColor [
 0.792157 0.819608 0.933333, 0.745098 0.745098 0.745098, 0.745098 0.745098 0.745098, 0.745098 0.745098 0.745098, 0.745098 0.745098 0.745098,
 0.745098 0.745098 0.745098, 0.745098 0.745098 0.745098, 0.745098 0.745098 0.745098, 0.745098 0.745098 0.745098, 0.745098 0.745098 0.745098,
 0.745098 0.745098 0.745098, 0.745098 0.745098 0.745098, 0.745098 0.745098 0.745098, 0.745098 0.745098 0.745098, 0.745098 0.745098 0.745098,
 0.745098 0.745098 0.745098, 0.745098 0.745098 0.745098, 0.745098 0.745098 0.745098, 0.745098 0.745098 0.745098, 0.745098 0.745098 0.745098,
 0.745098 0.745098 0.745098, 0.745098 0.745098 0.745098, 0.745098 0.745098 0.745098, 0.745098 0.745098 0.745098, 0.745098 0.745098 0.745098
]
diffuseColor [
 0.792157 0.819608 0.933333, 0.745098 0.745098 0.745098, 0.745098 0.745098 0.745098, 0.745098 0.745098 0.745098, 0.745098 0.745098 0.745098,
 0.745098 0.745098 0.745098, 0.745098 0.745098 0.745098, 0.745098 0.745098 0.745098, 0.745098 0.745098 0.745098, 0.745098 0.745098 0.745098,
 0.745098 0.745098 0.745098, 0.745098 0.745098 0.745098, 0.745098 0.745098 0.745098, 0.745098 0.745098 0.745098, 0.745098 0.745098 0.745098,
 0.745098 0.745098 0.745098, 0.745098 0.745098 0.745098, 0.745098 0.745098 0.745098, 0.745098 0.745098 0.745098, 0.745098 0.745098 0.745098,
 0.745098 0.745098 0.745098, 0.745098 0.745098 0.745098, 0.745098 0.745098 0.745098, 0.745098 0.745098 0.745098, 0.745098 0.745098 0.745098
]
emissiveColor [
 0.000000 0.000000 0.000000, 0.000000 0.000000 0.000000, 0.000000 0.000000 0.000000, 0.000000 0.000000 0.000000, 0.000000 0.000000 0.000000,
 0.000000 0.000000 0.000000, 0.000000 0.000000 0.000000, 0.000000 0.000000 0.000000, 0.000000 0.000000 0.000000, 0.000000 0.000000 0.000000,
 0.000000 0.000000 0.000000, 0.000000 0.000000 0.000000, 0.000000 0.000000 0.000000, 0.000000 0.000000 0.000000, 0.000000 0.000000 0.000000,
 0.000000 0.000000 0.000000, 0.000000 0.000000 0.000000, 0.000000 0.000000 0.000000, 0.000000 0.000000 0.000000, 0.000000 0.000000 0.000000,
 0.000000 0.000000 0.000000, 0.000000 0.000000 0.000000, 0.000000 0.000000 0.000000, 0.000000 0.000000 0.000000, 0.000000 0.000000 0.000000
]
specularColor [
 0.396078 0.409804 0.466667, 0.745098 0.745098 0.745098, 0.745098 0.745098 0.745098, 0.745098 0.745098 0.745098, 0.745098 0.745098 0.745098,
 0.745098 0.745098 0.745098, 0.745098 0.745098 0.745098, 0.745098 0.745098 0.745098, 0.745098 0.745098 0.745098, 0.745098 0.745098 0.745098,
 0.745098 0.745098 0.745098, 0.745098 0.745098 0.745098, 0.745098 0.745098 0.745098, 0.745098 0.745098 0.745098, 0.745098 0.745098 0.745098,
 0.745098 0.745098 0.745098, 0.745098 0.745098 0.745098, 0.745098 0.745098 0.745098, 0.745098 0.745098 0.745098, 0.745098 0.745098 0.745098,
 0.745098 0.745098 0.745098, 0.745098 0.745098 0.745098, 0.745098 0.745098 0.745098, 0.745098 0.745098 0.745098, 0.745098 0.745098 0.745098
]
shininess [
 0.400000, 0.312500, 0.312500, 0.312500, 0.312500, 0.312500, 0.312500, 0.312500, 0.312500, 0.312500,
 0.400000, 0.312500, 0.312500, 0.312500, 0.312500, 0.312500, 0.312500, 0.312500, 0.312500, 0.312500, 0.312500, 0.312500, 0.312500, 0.312500, 0.312500, 0.312500, 0.312500, 0.312500, 0.312500, 0.312500,
 0.312500, 0.312500, 0.312500, 0.312500, 0.312500
]
transparency [
 0.000000, 0.000000, 0.000000, 0.000000, 0.000000, 0.000000, 0.000000, 0.000000, 0.000000, 0.000000,
 0.000000, 0.000000, 0.000000, 0.000000, 0.000000, 0.000000, 0.000000, 0.000000, 0.000000, 0.000000, 0.000000, 0.000000, 0.000000, 0.000000, 0.000000, 0.000000, 0.000000, 0.000000, 0.000000, 0.000000,
 0.000000, 0.000000, 0.000000, 0.000000, 0.000000
]
}
Coordinate3 {
point [
 -0.006543 -0.001286 -0.002469, -0.006543 0.001287 -0.002469, -0.006541 -0.001286 -0.002730, -0.006541 0.001287 -0.002730, -0.006500 -0.001286 -0.002913,
 -0.006500 0.001287 -0.002913, -0.006481 -0.001286 -0.002215, -0.006481 0.001287 -0.002215, -0.006475 0.001235 -0.002982, -0.006472 -0.001232 -0.002981,
 -0.006462 0.001210 -0.003016, -0.006431 -0.001153 -0.003080, -0.006411 -0.001121 -0.003112, -0.006411 0.001121 -0.003111, -0.006380 0.001068 -0.003168,
 -0.006360 -0.001286 -0.001984, -0.006360 0.001287 -0.001984, -0.006349 -0.001018 -0.003210, -0.006349 0.001018 -0.003209, -0.006337 -0.000998 -0.003229,
 -0.006313 -0.001286 -0.002512, -0.006313 0.001287 -0.002512, -0.006308 -0.001286 -0.002712, -0.006308 0.001287 -0.002712, -0.006281 0.000911 -0.003298,
 -0.006270 -0.001286 -0.002317, -0.006270 0.001287 -0.002317, -0.006255 -0.001286 -0.002906, -0.006255 0.001287 -0.002906, -0.006252 -0.000865 -0.003326,
 -0.006252 -0.001286 -0.002913, -0.006252 0.001287 -0.002913, -0.006252 0.000866 -0.003325, -0.006233 -0.000835 -0.003348, -0.006186 -0.001286 -0.001790,
 -0.006186 0.001287 -0.001790, -0.006182 -0.001286 -0.002137, -0.006182 0.001287 -0.002137, -0.006173 0.000742 -0.003402, -0.006172 -0.000738 -0.003400,
 -0.006171 0.001170 -0.003063, -0.006168 -0.001165 -0.003068, -0.006157 -0.001153 -0.003080, -0.006157 0.001154 -0.003079, -0.006157 0.000717 -0.003417,
 -0.006129 -0.001121 -0.003112, -0.006129 0.001122 -0.003111, -0.006104 -0.000631 -0.003458, -0.006068 -0.000569 -0.003480, -0.006067 0.000570 -0.003480,
 -0.006059 0.001040 -0.003194, -0.006055 -0.001035 -0.003198, -0.006053 -0.001286 -0.001984, -0.006053 0.001287 -0.001984, -0.006029 0.000506 -0.003507,
 -0.006020 -0.001001 -0.003224, -0.006019 0.001002 -0.003224, -0.005978 -0.000416 -0.003535, -0.005970 -0.001286 -0.001644, -0.005970 0.001287 -0.001644,
 -0.005956 -0.000366 -0.003545, -0.005955 0.000366 -0.003545, -0.005927 0.000913 -0.003296, -0.005922 0.000302 -0.003562, -0.005916 -0.000902 -0.003303,
 -0.005904 0.000249 -0.003570, -0.005903 -0.000248 -0.003570, -0.005892 -0.000222 -0.003576, -0.005891 -0.001286 -0.001866, -0.005891 0.001287 -0.001866,
 -0.005866 0.000140 -0.003585, -0.005866 -0.000866 -0.003327, -0.005865 0.000867 -0.003327, -0.005857 -0.000083 -0.003589, -0.005853 -0.000856 -0.003333,
 -0.005852 0.000857 -0.003333, -0.005850 -0.005200 0.000000, -0.005850 -0.005200 0.004500, -0.005850 -0.001286 -0.001591, -0.005850 0.000000 -0.003591,
 -0.005850 0.001287 -0.001591, -0.005850 0.005200 0.000000, -0.005850 0.005200 0.004500, -0.005843 -0.000248 -0.003571, -0.005843 0.000249 -0.003571,
 -0.005840 -0.001286 -0.001591, -0.005840 -0.001286 -0.000000, -0.005840 0.001287 -0.001591, -0.005840 0.001287 -0.000000, -0.005823 -0.005407 0.000000,
 -0.005823 -0.005407 0.004500, -0.005823 0.005407 0.000000, -0.005823 0.005407 0.004500, -0.005811 -0.000570 -0.003483, -0.005811 0.000571 -0.003483,
 -0.005788 0.000808 -0.003366, -0.005770 -0.000796 -0.003373, -0.005770 0.000797 -0.003373, -0.005743 -0.005600 0.000000, -0.005743 -0.005600 0.004500,
 -0.005743 0.005600 0.000000, -0.005743 0.005600 0.004500, -0.005706 -0.001286 -0.001790, -0.005706 0.001287 -0.001790, -0.005617 -0.001286 -0.001771,
 -0.005617 -0.001286 -0.000000, -0.005617 0.001287 -0.001771, -0.005617 0.001287 -0.000000, -0.005616 -0.005766 0.000000, -0.005616 -0.005766 0.004500,
 -0.005616 0.005766 0.000000, -0.005616 0.005766 0.004500, -0.005450 -0.005893 0.000000, -0.005450 -0.005893 0.004500, -0.005450 0.005893 0.000000,
 -0.005450 0.005893 0.004500, -0.005257 -0.005973 0.000000, -0.005257 -0.005973 0.004500, -0.005257 0.005973 0.000000, -0.005257 0.005973 0.004500,
 -0.005050 -0.006000 0.000000, -0.005050 -0.006000 0.004500, -0.005050 0.006000 0.000000, -0.005050 0.006000 0.004500, -0.004250 0.000000 0.004500,
 -0.004209 -0.000591 0.004500, -0.004209 0.000591 0.004500, -0.004121 0.000000 0.004517, -0.004085 -0.001171 0.004500, -0.004085 0.001171 0.004500,
 -0.004080 -0.000573 0.004517, -0.004080 0.000573 0.004517, -0.004000 0.000000 0.004567, -0.003961 -0.000557 0.004567, -0.003961 0.000557 0.004567,
 -0.003961 -0.001136 0.004517, -0.003961 0.001136 0.004517, -0.003896 0.000000 0.004646, -0.003883 -0.001729 0.004500, -0.003883 0.001729 0.004500,
 -0.003859 -0.000542 0.004646, -0.003859 0.000542 0.004646, -0.003845 -0.001103 0.004567, -0.003845 0.001103 0.004567, -0.003817 0.000000 0.004750,
 -0.003780 -0.000531 0.004750, -0.003780 0.000531 0.004750, -0.003767 0.000000 0.004871, -0.003764 -0.001676 0.004517, -0.003764 0.001676 0.004517,
 -0.003750 -0.000000 0.005000, -0.003750 0.000000 0.010800, -0.003746 -0.001074 0.004646, -0.003746 0.001074 0.004646, -0.003730 -0.000524 0.004871,
 -0.003730 0.000524 0.004871, -0.003714 -0.000522 0.005000, -0.003714 0.000522 0.005000, -0.003669 -0.001052 0.004750, -0.003669 0.001052 0.004750,
 -0.003668 -0.000780 0.010800, -0.003668 0.000780 0.010800, -0.003659 -0.000778 0.005000, -0.003659 0.000778 0.005000, -0.003654 -0.001627 0.004567,
 -0.003654 0.001627 0.004567, -0.003621 -0.001038 0.004871, -0.003621 0.001038 0.004871, -0.003605 -0.001034 0.005000, -0.003605 0.001034 0.005000,
 -0.003604 -0.002252 0.004500, -0.003604 0.002252 0.004500, -0.003560 -0.001585 0.004646, -0.003560 0.001585 0.004646, -0.003494 -0.002184 0.004517,
 -0.003494 0.002184 0.004517, -0.003487 -0.001553 0.004750, -0.003487 0.001553 0.004750, -0.003441 -0.001532 0.004871, -0.003441 0.001532 0.004871,
 -0.003426 -0.001525 0.005000, -0.003426 -0.001525 0.010800, -0.003426 0.001525 0.005000, -0.003426 0.001525 0.010800, -0.003392 -0.002120 0.004567,
 -0.003392 0.002120 0.004567, -0.003304 -0.002065 0.004646, -0.003304 0.002065 0.004646, -0.003300 -0.007166 0.000233, -0.003300 -0.007166 0.000933,
 -0.003300 -0.007149 0.001089, -0.003300 -0.007097 0.001237, -0.003300 -0.007013 0.001370, -0.003300 -0.006933 0.000233, -0.003300 -0.006933 0.000934,
 -0.003300 -0.006922 0.001037, -0.003300 -0.006903 0.001481, -0.003300 -0.006887 0.001136, -0.003300 -0.006831 0.001225, -0.003300 -0.006770 0.001564,
 -0.003300 -0.006757 0.001299, -0.003300 -0.006669 0.001354, -0.003300 -0.006622 0.001616, -0.003300 -0.006570 0.001389, -0.003300 -0.006466 0.001633,
 -0.003300 -0.006466 0.001401, -0.003300 -0.006000 0.001400, -0.003300 -0.006000 0.001633, -0.003256 -0.002732 0.004500, -0.003256 0.002732 0.004500,
 -0.003237 -0.002023 0.004750, -0.003237 0.002023 0.004750, -0.003195 -0.001996 0.004871, -0.003195 0.001996 0.004871, -0.003180 -0.001987 0.005000,
 -0.003180 0.001987 0.005000, -0.003157 -0.002649 0.004517, -0.003157 0.002649 0.004517, -0.003064 -0.002571 0.004567, -0.003064 0.002571 0.004567,
 -0.003050 -0.000000 0.011500, -0.003034 -0.002204 0.010800, -0.003034 0.002204 0.010800, -0.003026 -0.002199 0.005000, -0.003026 0.002199 0.005000,
 -0.003000 -0.000012 0.023300, -0.002985 -0.002505 0.004646, -0.002985 0.002505 0.004646, -0.002983 -0.000634 0.011500, -0.002983 0.000634 0.011500,
 -0.002980 -0.000348 0.012500, -0.002980 0.000348 0.012500, -0.002961 0.000346 0.023300, -0.002961 -0.000346 0.023300, -0.002927 0.000658 0.023300,
 -0.002924 -0.002454 0.004750, -0.002924 0.002454 0.004750, -0.002922 -0.000681 0.023300, -0.002905 -0.000750 0.014500, -0.002905 -0.000750 0.023300,
 -0.002886 -0.002421 0.004871, -0.002886 0.002421 0.004871, -0.002873 -0.002410 0.005000, -0.002873 0.002410 0.005000, -0.002850 -0.007166 -0.003061,
 -0.002850 -0.007166 0.000233, -0.002850 -0.006933 -0.003061, -0.002850 -0.006933 0.000233, -0.002844 -0.003158 0.004500, -0.002844 0.003158 0.004500,
 -0.002819 -0.001026 0.012500, -0.002819 -0.001026 0.014500, -0.002819 0.001026 0.012500, -0.002802 0.001020 0.023300, -0.002786 -0.001241 0.011500,
 -0.002786 0.001241 0.011500, -0.002757 -0.003062 0.004517, -0.002757 0.003062 0.004517, -0.002707 0.001294 0.023300, -0.002677 -0.002973 0.004567,
 -0.002677 0.002973 0.004567, -0.002607 -0.002896 0.004646, -0.002607 0.002896 0.004646, -0.002554 -0.002837 0.004750, -0.002554 0.002837 0.004750,
 -0.002550 -0.007166 -0.003561, -0.002550 -0.006933 -0.003561, -0.002521 -0.002799 0.004871, -0.002521 0.002799 0.004871, -0.002509 -0.002787 0.005000,
 -0.002509 -0.002787 0.010800, -0.002509 0.002787 0.005000, -0.002509 0.002787 0.010800, -0.002506 -0.001649 0.012500, -0.002506 -0.001649 0.014500,
 -0.002506 0.001649 0.012500, -0.002491 0.001639 0.023300, -0.002468 -0.001793 0.011500, -0.002468 0.001793 0.011500, -0.002450 -0.007166 -0.003561,
 -0.002450 -0.006933 -0.003561, -0.002377 -0.003523 0.004500, -0.002377 0.003523 0.004500, -0.002350 0.001865 0.023300, -0.002304 -0.003416 0.004517,
 -0.002304 0.003416 0.004517, -0.002237 -0.003316 0.004567, -0.002237 0.003316 0.004567, -0.002190 -0.000750 0.023985, -0.002179 -0.003230 0.004646,
 -0.002179 0.003230 0.004646, -0.002150 -0.007166 -0.003061, -0.002150 -0.007166 0.000233, -0.002150 -0.006933 -0.003061, -0.002150 -0.006933 0.000233,
 -0.002134 -0.003164 0.004750, -0.002134 0.003164 0.004750, -0.002107 -0.003123 0.004871, -0.002107 0.003123 0.004871, -0.002097 -0.003109 0.005000,
 -0.002097 0.003109 0.005000, -0.002059 -0.002182 0.012500, -0.002059 -0.002182 0.014500, -0.002059 0.002182 0.012500, -0.002046 0.002170 0.023300,
 -0.002041 -0.002267 0.011500, -0.002041 0.002267 0.011500, -0.001875 -0.003248 0.010800, -0.001875 0.003248 0.010800, -0.001874 0.002342 0.023300,
 -0.001870 -0.003240 0.005000, -0.001870 0.003240 0.005000, -0.001863 -0.003820 0.004500, -0.001863 0.003820 0.004500, -0.001850 -0.000000 0.011500,
 -0.001850 -0.000000 0.012500, -0.001806 -0.003704 0.004517, -0.001806 0.003704 0.004517, -0.001800 -0.000007 0.024500, -0.001787 -0.000479 0.011500,
 -0.001787 -0.000479 0.012500, -0.001787 0.000479 0.011500, -0.001787 0.000479 0.012500, -0.001756 0.000395 0.024500, -0.001753 -0.003595 0.004567,
 -0.001753 0.003595 0.004567, -0.001753 -0.000408 0.024500, -0.001708 -0.003502 0.004646, -0.001708 0.003502 0.004646, -0.001700 -0.007166 0.000233,
 -0.001700 -0.007166 0.000933, -0.001700 -0.007149 0.001089, -0.001700 -0.007097 0.001237, -0.001700 -0.007013 0.001370, -0.001700 -0.006933 0.000233,
 -0.001700 -0.006933 0.000934, -0.001700 -0.006922 0.001037, -0.001700 -0.006903 0.001481, -0.001700 -0.006887 0.001136, -0.001700 -0.006831 0.001225,
 -0.001700 -0.006770 0.001564, -0.001700 -0.006757 0.001299, -0.001700 -0.006669 0.001354, -0.001700 -0.006622 0.001616, -0.001700 -0.006570 0.001389,
 -0.001700 -0.006466 0.001633, -0.001700 -0.006466 0.001401, -0.001700 -0.006000 0.001400, -0.001700 -0.006000 0.001633, -0.001673 -0.003431 0.004750,
 -0.001673 0.003431 0.004750, -0.001651 -0.003386 0.004871, -0.001651 0.003386 0.004871, -0.001644 -0.003370 0.005000, -0.001644 0.003370 0.005000,
 -0.001636 -0.000750 0.024500, -0.001624 0.000776 0.024500, -0.001602 -0.000925 0.011500, -0.001602 -0.000925 0.012500, -0.001602 0.000925 0.011500,
 -0.001602 0.000925 0.012500, -0.001525 -0.002641 0.011500, -0.001525 0.002641 0.011500, -0.001500 -0.002598 0.012500, -0.001500 -0.002598 0.014500,
 -0.001500 0.002598 0.012500, -0.001491 0.002584 0.023300, -0.001410 0.001119 0.024500, -0.001313 -0.004042 0.004500, -0.001313 0.004042 0.004500,
 -0.001308 -0.001308 0.011500, -0.001308 -0.001308 0.012500, -0.001308 0.001308 0.011500, -0.001308 0.001308 0.012500, -0.001305 0.002701 0.023300,
 -0.001273 -0.003919 0.004517, -0.001273 0.003919 0.004517, -0.001236 -0.003804 0.004567, -0.001236 0.003804 0.004567, -0.001204 -0.003706 0.004646,
 -0.001204 0.003706 0.004646, -0.001180 -0.003630 0.004750, -0.001180 0.003630 0.004750, -0.001164 -0.003583 0.004871, -0.001164 0.003583 0.004871,
 -0.001159 -0.003566 0.005000, -0.001159 -0.003566 0.010800, -0.001159 0.003566 0.005000, -0.001159 0.003566 0.010800, -0.001125 0.001405 0.024500,
 -0.000943 -0.002901 0.011500, -0.000943 0.002901 0.011500, -0.000925 -0.001602 0.011500, -0.000925 -0.001602 0.012500, -0.000925 0.001602 0.011500,
 -0.000925 0.001602 0.012500, -0.000860 -0.002874 0.012500, -0.000860 -0.002874 0.014500, -0.000860 0.002874 0.012500, -0.000855 0.002859 0.023300,
 -0.000783 0.001621 0.024500, -0.000738 -0.004185 0.004500, -0.000738 0.004185 0.004500, -0.000716 -0.004058 0.004517, -0.000716 0.004058 0.004517,
 -0.000695 -0.003939 0.004567, -0.000695 0.003939 0.004567, -0.000677 -0.003837 0.004646, -0.000677 0.003837 0.004646, -0.000669 0.002924 0.023300,
 -0.000663 -0.003759 0.004750, -0.000663 0.003759 0.004750, -0.000654 -0.003710 0.004871, -0.000654 0.003710 0.004871, -0.000651 -0.003693 0.005000,
 -0.000651 0.003693 0.005000, -0.000479 -0.001787 0.011500, -0.000479 -0.001787 0.012500, -0.000479 0.001787 0.011500, -0.000479 0.001787 0.012500,
 -0.000402 0.001755 0.024500, -0.000392 -0.003729 0.010800, -0.000392 0.003729 0.010800, -0.000391 -0.003720 0.005000, -0.000391 0.003720 0.005000,
 -0.000319 -0.003033 0.011500, -0.000319 0.003033 0.011500, -0.000174 -0.002995 0.012500, -0.000174 -0.002995 0.014500, -0.000174 0.002995 0.012500,
 -0.000173 0.002980 0.023300, -0.000148 -0.004247 0.004500, -0.000148 0.004247 0.004500, -0.000144 -0.004118 0.004517, -0.000144 0.004118 0.004517,
 -0.000140 -0.003998 0.004567, -0.000140 0.003998 0.004567, -0.000136 -0.003894 0.004646, -0.000136 0.003894 0.004646, -0.000133 -0.003815 0.004750,
 -0.000133 0.003815 0.004750, -0.000131 -0.003765 0.004871, -0.000131 0.003765 0.004871, -0.000131 -0.003748 0.005000, -0.000131 0.003748 0.005000,
 0.000000 -0.001850 0.011500, 0.000000 -0.001850 0.012500, 0.000000 0.001800 0.024500, -0.000000 0.001850 0.011500, -0.000000 0.001850 0.012500,
 0.000000 0.003000 0.023300, 0.000319 -0.003033 0.011500, 0.000319 0.003033 0.011500, 0.000392 -0.003729 0.005000, 0.000392 -0.003729 0.010800,
 0.000392 0.003729 0.005000, 0.000392 0.003729 0.010800, 0.000394 -0.003746 0.004871, 0.000394 0.003746 0.004871, 0.000399 -0.003796 0.004750,
 0.000399 0.003796 0.004750, 0.000402 0.001755 0.024500, 0.000407 -0.003875 0.004646, 0.000407 0.003875 0.004646, 0.000418 -0.003978 0.004567,
 0.000418 0.003978 0.004567, 0.000431 -0.004098 0.004517, 0.000431 0.004098 0.004517, 0.000444 -0.004227 0.004500, 0.000444 0.004227 0.004500,
 0.000479 -0.001787 0.011500, 0.000479 -0.001787 0.012500, 0.000479 0.001787 0.011500, 0.000479 0.001787 0.012500, 0.000519 0.002941 0.023300,
 0.000521 -0.002954 0.012500, 0.000521 -0.002954 0.014500, 0.000521 0.002954 0.012500, 0.000669 0.002924 0.023300, 0.000783 0.001621 0.024500,
 0.000907 -0.003639 0.005000, 0.000907 0.003639 0.005000, 0.000911 -0.003655 0.004871, 0.000911 0.003655 0.004871, 0.000923 -0.003704 0.004750,
 0.000923 0.003704 0.004750, 0.000925 -0.001602 0.011500, 0.000925 -0.001602 0.012500, 0.000925 0.001602 0.011500, 0.000925 0.001602 0.012500,
 0.000943 -0.002901 0.011500, 0.000943 0.002901 0.011500, 0.000943 -0.003781 0.004646, 0.000943 0.003781 0.004646, 0.000968 -0.003881 0.004567,
 0.000968 0.003881 0.004567, 0.000997 -0.003998 0.004517, 0.000997 0.003998 0.004517, 0.001028 -0.004124 0.004500, 0.001028 0.004124 0.004500,
 0.001125 0.001405 0.024500, 0.001156 -0.003558 0.005000, 0.001156 0.003558 0.005000, 0.001159 -0.003566 0.010800, 0.001159 0.003566 0.010800,
 0.001184 0.002744 0.023300, 0.001188 -0.002755 0.012500, 0.001188 -0.002755 0.014500, 0.001188 0.002755 0.012500, 0.001305 0.002701 0.023300,
 0.001308 -0.001308 0.011500, 0.001308 -0.001308 0.012500, 0.001308 0.001308 0.011500, 0.001308 0.001308 0.012500, 0.001405 -0.003477 0.005000,
 0.001405 0.003477 0.005000, 0.001410 0.001119 0.024500, 0.001411 -0.003493 0.004871, 0.001411 0.003493 0.004871, 0.001430 -0.003539 0.004750,
 0.001430 0.003539 0.004750, 0.001460 -0.003613 0.004646, 0.001460 0.003613 0.004646, 0.001498 -0.003709 0.004567, 0.001498 0.003709 0.004567,
 0.001525 -0.002641 0.011500, 0.001525 0.002641 0.011500, 0.001544 -0.003821 0.004517, 0.001544 0.003821 0.004517, 0.001592 -0.003941 0.004500,
 0.001592 0.003941 0.004500, 0.001602 -0.000925 0.011500, 0.001602 -0.000925 0.012500, 0.001602 0.000925 0.011500, 0.001602 0.000925 0.012500,
 0.001624 0.000776 0.024500, 0.001636 -0.000750 0.024500, 0.001700 -0.007166 0.000233, 0.001700 -0.007166 0.000933, 0.001700 -0.007149 0.001089,
 0.001700 -0.007097 0.001237, 0.001700 -0.007013 0.001370, 0.001700 -0.006933 0.000233, 0.001700 -0.006933 0.000934, 0.001700 -0.006922 0.001037,
 0.001700 -0.006903 0.001481, 0.001700 -0.006887 0.001136, 0.001700 -0.006831 0.001225, 0.001700 -0.006770 0.001564, 0.001700 -0.006757 0.001299,
 0.001700 -0.006669 0.001354, 0.001700 -0.006622 0.001616, 0.001700 -0.006570 0.001389, 0.001700 -0.006466 0.001633, 0.001700 -0.006466 0.001401,
 0.001700 -0.006000 0.001400, 0.001700 -0.006000 0.001633, 0.001753 -0.000408 0.024500, 0.001756 0.000395 0.024500, 0.001786 0.002398 0.023300,
 0.001787 -0.000479 0.011500, 0.001787 -0.000479 0.012500, 0.001787 0.000479 0.011500, 0.001787 0.000479 0.012500, 0.001791 -0.002406 0.012500,
 0.001791 -0.002406 0.014500, 0.001791 0.002406 0.012500, 0.001800 -0.000007 0.024500, 0.001850 0.000000 0.011500, 0.001850 0.000000 0.012500,
 0.001874 0.002342 0.023300, 0.001875 -0.003248 0.005000, 0.001875 -0.003248 0.010800, 0.001875 0.003248 0.005000, 0.001875 0.003248 0.010800,
 0.001884 -0.003262 0.004871, 0.001884 0.003262 0.004871, 0.001908 -0.003306 0.004750, 0.001908 0.003306 0.004750, 0.001948 -0.003374 0.004646,
 0.001948 0.003374 0.004646, 0.002000 -0.003464 0.004567, 0.002000 0.003464 0.004567, 0.002041 -0.002267 0.011500, 0.002041 0.002267 0.011500,
 0.002060 -0.003569 0.004517, 0.002060 0.003569 0.004517, 0.002125 -0.003681 0.004500, 0.002125 0.003681 0.004500, 0.002150 -0.007166 -0.003061,
 0.002150 -0.007166 0.000233, 0.002150 -0.006933 -0.003061, 0.002150 -0.006933 0.000233, 0.002190 -0.000750 0.023985, 0.002292 0.001923 0.023300,
 0.002298 -0.001928 0.012500, 0.002298 -0.001928 0.014500, 0.002298 0.001928 0.012500, 0.002309 -0.002955 0.005000, 0.002309 0.002955 0.005000,
 0.002319 -0.002968 0.004871, 0.002319 0.002968 0.004871, 0.002350 0.001865 0.023300, 0.002350 -0.003008 0.004750, 0.002350 0.003008 0.004750,
 0.002399 -0.003070 0.004646, 0.002399 0.003070 0.004646, 0.002450 -0.007166 -0.003561, 0.002450 -0.006933 -0.003561, 0.002463 -0.003152 0.004567,
 0.002463 0.003152 0.004567, 0.002468 -0.001793 0.011500, 0.002468 0.001793 0.011500, 0.002503 -0.002780 0.005000, 0.002503 0.002780 0.005000,
 0.002509 -0.002787 0.010800, 0.002509 0.002787 0.010800, 0.002537 -0.003247 0.004517, 0.002537 0.003247 0.004517, 0.002550 -0.007166 -0.003561,
 0.002550 -0.006933 -0.003561, 0.002617 -0.003349 0.004500, 0.002617 0.003349 0.004500, 0.002676 0.001343 0.023300, 0.002681 -0.001346 0.012500,
 0.002681 -0.001346 0.014500, 0.002681 0.001346 0.012500, 0.002698 -0.002605 0.005000, 0.002698 0.002605 0.005000, 0.002707 0.001294 0.023300,
 0.002710 -0.002617 0.004871, 0.002710 0.002617 0.004871, 0.002746 -0.002652 0.004750, 0.002746 0.002652 0.004750, 0.002786 -0.001241 0.011500,
 0.002786 0.001241 0.011500, 0.002803 -0.002707 0.004646, 0.002803 0.002707 0.004646, 0.002850 -0.007166 -0.003061, 0.002850 -0.007166 0.000233,
 0.002850 -0.006933 -0.003061, 0.002850 -0.006933 0.000233, 0.002877 -0.002779 0.004567, 0.002877 0.002779 0.004567, 0.002905 -0.000750 0.014500,
 0.002905 -0.000750 0.023300, 0.002916 0.000691 0.023300, 0.002919 -0.000692 0.023300, 0.002919 -0.000692 0.012500, 0.002919 0.000692 0.012500,
 0.002922 -0.000681 0.023300, 0.002927 0.000658 0.023300, 0.002964 -0.002862 0.004517, 0.002964 0.002862 0.004517, 0.002983 -0.000634 0.011500,
 0.002983 0.000634 0.011500, 0.002999 -0.000000 0.023300, 0.003000 -0.000012 0.023300, 0.003000 0.000000 0.012500, 0.003034 -0.002204 0.005000,
 0.003034 -0.002204 0.010800, 0.003034 0.002204 0.005000, 0.003034 0.002204 0.010800, 0.003048 -0.002214 0.004871, 0.003048 0.002214 0.004871,
 0.003050 -0.000000 0.011500, 0.003057 -0.002952 0.004500, 0.003057 0.002952 0.004500, 0.003088 -0.002244 0.004750, 0.003088 0.002244 0.004750,
 0.003152 -0.002290 0.004646, 0.003152 0.002290 0.004646, 0.003236 -0.002351 0.004567, 0.003236 0.002351 0.004567, 0.003300 -0.007166 0.000233,
 0.003300 -0.007166 0.000933, 0.003300 -0.007149 0.001089, 0.003300 -0.007097 0.001237, 0.003300 -0.007013 0.001370, 0.003300 -0.006933 0.000233,
 0.003300 -0.006933 0.000934, 0.003300 -0.006922 0.001037, 0.003300 -0.006903 0.001481, 0.003300 -0.006887 0.001136, 0.003300 -0.006831 0.001225,
 0.003300 -0.006770 0.001564, 0.003300 -0.006757 0.001299, 0.003300 -0.006669 0.001354, 0.003300 -0.006622 0.001616, 0.003300 -0.006570 0.001389,
 0.003300 -0.006466 0.001633, 0.003300 -0.006466 0.001401, 0.003300 -0.006000 0.001400, 0.003300 -0.006000 0.001633, 0.003311 -0.001761 0.005000,
 0.003311 0.001761 0.005000, 0.003326 -0.001769 0.004871, 0.003326 0.001769 0.004871, 0.003334 -0.002422 0.004517, 0.003334 0.002422 0.004517,
 0.003370 -0.001792 0.004750, 0.003370 0.001792 0.004750, 0.003417 -0.001522 0.005000, 0.003417 0.001522 0.005000, 0.003426 -0.001525 0.010800,
 0.003426 0.001525 0.010800, 0.003438 -0.002498 0.004500, 0.003438 0.002498 0.004500, 0.003440 -0.001829 0.004646, 0.003440 0.001829 0.004646,
 0.003524 -0.001283 0.005000, 0.003524 0.001283 0.005000, 0.003532 -0.001878 0.004567, 0.003532 0.001878 0.004567, 0.003540 -0.001288 0.004871,
 0.003540 0.001288 0.004871, 0.003587 -0.001305 0.004750, 0.003587 0.001305 0.004750, 0.003638 -0.001935 0.004517, 0.003638 0.001935 0.004517,
 0.003661 -0.001333 0.004646, 0.003661 0.001333 0.004646, 0.003668 -0.000780 0.005000, 0.003668 -0.000780 0.010800, 0.003668 0.000780 0.005000,
 0.003668 0.000780 0.010800, 0.003685 -0.000783 0.004871, 0.003685 0.000783 0.004871, 0.003734 -0.000794 0.004750, 0.003734 0.000794 0.004750,
 0.003741 -0.000262 0.005000, 0.003741 0.000262 0.005000, 0.003750 0.000000 0.005000, 0.003750 0.000000 0.010800, 0.003753 -0.001995 0.004500,
 0.003753 0.001995 0.004500, 0.003758 -0.000263 0.004871, 0.003758 0.000263 0.004871, 0.003759 -0.001368 0.004567, 0.003759 0.001368 0.004567,
 0.003808 -0.000266 0.004750, 0.003808 0.000266 0.004750, 0.003811 -0.000810 0.004646, 0.003811 0.000810 0.004646, 0.003872 -0.001409 0.004517,
 0.003872 0.001409 0.004517, 0.003887 -0.000272 0.004646, 0.003887 0.000272 0.004646, 0.003913 -0.000832 0.004567, 0.003913 0.000832 0.004567,
 0.003990 -0.000279 0.004567, 0.003990 0.000279 0.004567, 0.003994 -0.001454 0.004500, 0.003994 0.001454 0.004500, 0.004031 -0.000857 0.004517,
 0.004031 0.000857 0.004517, 0.004111 -0.000287 0.004517, 0.004111 0.000287 0.004517, 0.004157 -0.000884 0.004500, 0.004157 0.000884 0.004500,
 0.004240 -0.000296 0.004500, 0.004240 0.000296 0.004500, 0.004250 0.000000 0.004500, 0.005050 -0.006000 0.000000, 0.005050 -0.006000 0.004500,
 0.005050 0.006000 0.000000, 0.005050 0.006000 0.004500, 0.005257 -0.005973 0.000000, 0.005257 -0.005973 0.004500, 0.005257 0.005973 0.000000,
 0.005257 0.005973 0.004500, 0.005450 -0.005893 0.000000, 0.005450 -0.005893 0.004500, 0.005450 0.005893 0.000000, 0.005450 0.005893 0.004500,
 0.005616 -0.005766 0.000000, 0.005616 -0.005766 0.004500, 0.005616 0.005766 0.000000, 0.005616 0.005766 0.004500, 0.005617 -0.001286 -0.001771,
 0.005617 -0.001286 -0.000000, 0.005617 0.001287 -0.001771, 0.005617 0.001287 -0.000000, 0.005706 -0.001286 -0.001790, 0.005706 0.001287 -0.001790,
 0.005743 -0.005600 0.000000, 0.005743 -0.005600 0.004500, 0.005743 0.005600 0.000000, 0.005743 0.005600 0.004500, 0.005770 -0.000796 -0.003373,
 0.005770 0.000797 -0.003373, 0.005788 -0.000807 -0.003366, 0.005811 -0.000570 -0.003483, 0.005811 0.000571 -0.003483, 0.005823 -0.005407 0.000000,
 0.005823 -0.005407 0.004500, 0.005823 0.005407 0.000000, 0.005823 0.005407 0.004500, 0.005840 -0.001286 -0.001591, 0.005840 -0.001286 -0.000000,
 0.005840 0.001287 -0.001591, 0.005840 0.001287 -0.000000, 0.005843 -0.000248 -0.003571, 0.005843 0.000249 -0.003571, 0.005850 -0.005200 0.000000,
 0.005850 -0.005200 0.004500, 0.005850 -0.001286 -0.001591, 0.005850 0.000000 -0.003591, 0.005850 0.001287 -0.001591, 0.005850 0.005200 0.000000,
 0.005850 0.005200 0.004500, 0.005852 -0.000856 -0.003333, 0.005852 0.000857 -0.003333, 0.005857 0.000084 -0.003589, 0.005865 -0.000866 -0.003327,
 0.005866 0.000867 -0.003327, 0.005866 -0.000139 -0.003585, 0.005891 -0.001286 -0.001866, 0.005891 0.001287 -0.001866, 0.005892 0.000223 -0.003576,
 0.005903 0.000249 -0.003570, 0.005904 -0.000248 -0.003570, 0.005916 0.000903 -0.003303, 0.005922 -0.000301 -0.003562, 0.005926 -0.000912 -0.003297,
 0.005955 -0.000365 -0.003545, 0.005956 0.000367 -0.003545, 0.005970 -0.001286 -0.001644, 0.005970 0.001287 -0.001644, 0.005978 0.000417 -0.003535,
 0.006019 -0.001001 -0.003224, 0.006020 0.001002 -0.003224, 0.006029 -0.000505 -0.003507, 0.006053 -0.001286 -0.001984, 0.006053 0.001287 -0.001984,
 0.006054 0.001036 -0.003198, 0.006059 -0.001039 -0.003194, 0.006067 -0.000569 -0.003480, 0.006068 0.000570 -0.003480, 0.006104 0.000632 -0.003458,
 0.006129 -0.001121 -0.003111, 0.006129 0.001122 -0.003112, 0.006157 -0.000716 -0.003417, 0.006157 -0.001153 -0.003079, 0.006157 0.001154 -0.003080,
 0.006167 0.001166 -0.003067, 0.006171 -0.001169 -0.003063, 0.006172 0.000739 -0.003400, 0.006173 -0.000741 -0.003402, 0.006182 -0.001286 -0.002137,
 0.006182 0.001287 -0.002137, 0.006186 -0.001286 -0.001790, 0.006186 0.001287 -0.001790, 0.006233 0.000836 -0.003348, 0.006252 -0.000865 -0.003325,
 0.006252 -0.001286 -0.002913, 0.006252 0.001287 -0.002913, 0.006252 0.000866 -0.003326, 0.006255 -0.001286 -0.002906, 0.006255 0.001287 -0.002906,
 0.006270 -0.001286 -0.002317, 0.006270 0.001287 -0.002317, 0.006281 -0.000910 -0.003298, 0.006308 -0.001286 -0.002712, 0.006308 0.001287 -0.002712,
 0.006313 -0.001286 -0.002512, 0.006313 0.001287 -0.002512, 0.006337 0.000999 -0.003229, 0.006349 -0.001017 -0.003209, 0.006349 0.001019 -0.003210,
 0.006360 -0.001286 -0.001984, 0.006360 0.001287 -0.001984, 0.006380 -0.001067 -0.003168, 0.006411 -0.001120 -0.003111, 0.006411 0.001122 -0.003112,
 0.006431 0.001154 -0.003080, 0.006462 -0.001209 -0.003016, 0.006472 0.001233 -0.002981, 0.006475 -0.001234 -0.002982, 0.006481 -0.001286 -0.002215,
 0.006481 0.001287 -0.002215, 0.006500 -0.001286 -0.002913, 0.006500 0.001287 -0.002913, 0.006541 -0.001286 -0.002730, 0.006541 0.001287 -0.002730,
 0.006543 -0.001286 -0.002469, 0.006543 0.001287 -0.002469
]
}
IndexedFaceSet {
coordIndex [
 764, 763, 767, -1, 764, 767, 768, -1, 768, 767, 771, -1,
 768, 771, 772, -1, 772, 771, 775, -1, 772, 775, 776, -1,
 776, 775, 785, -1, 776, 785, 786, -1, 786, 785, 794, -1,
 786, 794, 795, -1, 795, 794, 804, -1, 795, 804, 805, -1,
 810, 805, 809, -1, 809, 805, 804, -1, 810, 809, 796, -1,
 810, 796, 797, -1, 797, 796, 787, -1, 797, 787, 788, -1,
 788, 787, 777, -1, 788, 777, 778, -1, 778, 777, 773, -1,
 778, 773, 774, -1, 774, 773, 769, -1, 774, 769, 770, -1,
 770, 769, 765, -1, 770, 765, 766, -1, 123, 122, 118, -1,
 123, 118, 119, -1, 119, 118, 114, -1, 119, 114, 115, -1,
 115, 114, 110, -1, 115, 110, 111, -1, 111, 110, 100, -1,
 111, 100, 101, -1, 101, 100, 91, -1, 101, 91, 92, -1,
 92, 91, 81, -1, 92, 81, 82, -1, 77, 82, 76, -1,
 76, 82, 81, -1, 77, 76, 89, -1, 77, 89, 90, -1,
 90, 89, 98, -1, 90, 98, 99, -1, 99, 98, 108, -1,
 99, 108, 109, -1, 109, 108, 112, -1, 109, 112, 113, -1,
 113, 112, 116, -1, 113, 116, 117, -1, 117, 116, 120, -1,
 117, 120, 121, -1, 347, 206, 120, -1, 556, 693, 764, -1,
 120, 206, 121, -1, 121, 206, 207, -1, 121, 207, 348, -1,
 764, 693, 763, -1, 763, 693, 692, -1, 763, 692, 555, -1,
 764, 121, 556, -1, 556, 121, 348, -1, 556, 348, 555, -1,
 555, 348, 347, -1, 555, 347, 763, -1, 763, 347, 120, -1,
 568, 561, 560, -1, 560, 561, 532, -1, 560, 532, 531, -1,
 531, 532, 511, -1, 531, 511, 510, -1, 510, 511, 487, -1,
 510, 487, 486, -1, 486, 487, 471, -1, 486, 471, 470, -1,
 470, 471, 446, -1, 470, 446, 445, -1, 445, 446, 417, -1,
 445, 417, 416, -1, 416, 417, 393, -1, 416, 393, 392, -1,
 392, 393, 371, -1, 392, 371, 370, -1, 370, 371, 358, -1,
 370, 358, 357, -1, 357, 358, 320, -1, 357, 320, 319, -1,
 319, 320, 315, -1, 319, 315, 314, -1, 314, 315, 322, -1,
 314, 322, 321, -1, 321, 322, 360, -1, 321, 360, 359, -1,
 359, 360, 373, -1, 359, 373, 372, -1, 372, 373, 395, -1,
 372, 395, 394, -1, 394, 395, 419, -1, 394, 419, 418, -1,
 418, 419, 449, -1, 418, 449, 448, -1, 448, 449, 473, -1,
 448, 473, 472, -1, 472, 473, 489, -1, 472, 489, 488, -1,
 488, 489, 513, -1, 488, 513, 512, -1, 512, 513, 534, -1,
 512, 534, 533, -1, 533, 534, 563, -1, 533, 563, 562, -1,
 562, 563, 569, -1, 562, 569, 568, -1, 568, 569, 561, -1,
 315, 231, 322, -1, 322, 231, 252, -1, 322, 252, 360, -1,
 360, 252, 275, -1, 360, 275, 373, -1, 373, 275, 303, -1,
 373, 303, 395, -1, 395, 303, 365, -1, 395, 365, 419, -1,
 419, 365, 398, -1, 419, 398, 449, -1, 449, 398, 429, -1,
 449, 429, 473, -1, 473, 429, 477, -1, 473, 477, 489, -1,
 487, 506, 471, -1, 471, 506, 475, -1, 471, 475, 446, -1,
 446, 475, 427, -1, 446, 427, 417, -1, 417, 427, 396, -1,
 417, 396, 393, -1, 393, 396, 363, -1, 393, 363, 371, -1,
 371, 363, 301, -1, 371, 301, 358, -1, 358, 301, 273, -1,
 358, 273, 320, -1, 320, 273, 250, -1, 320, 250, 315, -1,
 315, 250, 230, -1, 315, 230, 231, -1, 477, 508, 489, -1,
 489, 508, 566, -1, 489, 566, 513, -1, 513, 566, 597, -1,
 513, 597, 534, -1, 534, 597, 626, -1, 534, 626, 563, -1,
 563, 626, 649, -1, 563, 649, 569, -1, 569, 649, 658, -1,
 569, 658, 561, -1, 561, 658, 648, -1, 561, 648, 532, -1,
 532, 648, 624, -1, 532, 624, 511, -1, 511, 624, 595, -1,
 511, 595, 487, -1, 487, 595, 564, -1, 487, 564, 506, -1,
 531, 634, 560, -1, 560, 634, 654, -1, 560, 654, 568, -1,
 568, 654, 665, -1, 568, 665, 562, -1, 445, 451, 470, -1,
 470, 451, 490, -1, 470, 490, 486, -1, 486, 490, 525, -1,
 486, 525, 510, -1, 510, 525, 583, -1, 510, 583, 531, -1,
 531, 583, 611, -1, 531, 611, 634, -1, 665, 655, 562, -1,
 562, 655, 635, -1, 562, 635, 533, -1, 533, 635, 612, -1,
 533, 612, 512, -1, 512, 612, 584, -1, 512, 584, 488, -1,
 488, 584, 526, -1, 488, 526, 472, -1, 319, 254, 357, -1,
 357, 254, 277, -1, 357, 277, 370, -1, 370, 277, 305, -1,
 370, 305, 392, -1, 392, 305, 361, -1, 392, 361, 416, -1,
 416, 361, 390, -1, 416, 390, 445, -1, 445, 390, 425, -1,
 445, 425, 451, -1, 372, 278, 359, -1, 359, 278, 255, -1,
 359, 255, 321, -1, 321, 255, 229, -1, 321, 229, 314, -1,
 314, 229, 220, -1, 314, 220, 319, -1, 319, 220, 228, -1,
 319, 228, 254, -1, 526, 491, 472, -1, 472, 491, 452, -1,
 472, 452, 448, -1, 448, 452, 426, -1, 448, 426, 418, -1,
 418, 426, 391, -1, 418, 391, 394, -1, 394, 391, 362, -1,
 394, 362, 372, -1, 372, 362, 306, -1, 372, 306, 278, -1,
 151, 229, 161, -1, 161, 229, 255, -1, 161, 255, 183, -1,
 183, 255, 278, -1, 183, 278, 222, -1, 222, 278, 306, -1,
 222, 306, 272, -1, 272, 306, 362, -1, 272, 362, 308, -1,
 308, 362, 391, -1, 308, 391, 388, -1, 388, 391, 426, -1,
 388, 426, 422, -1, 422, 426, 452, -1, 422, 452, 456, -1,
 456, 452, 491, -1, 456, 491, 504, -1, 504, 491, 526, -1,
 504, 526, 574, -1, 574, 526, 584, -1, 574, 584, 616, -1,
 616, 584, 612, -1, 616, 612, 662, -1, 662, 612, 635, -1,
 662, 635, 705, -1, 705, 635, 655, -1, 705, 655, 725, -1,
 725, 655, 665, -1, 725, 665, 733, -1, 733, 665, 654, -1,
 733, 654, 723, -1, 723, 654, 634, -1, 723, 634, 704, -1,
 704, 634, 611, -1, 704, 611, 660, -1, 660, 611, 583, -1,
 660, 583, 615, -1, 615, 583, 525, -1, 615, 525, 572, -1,
 572, 525, 490, -1, 572, 490, 503, -1, 503, 490, 451, -1,
 503, 451, 454, -1, 454, 451, 425, -1, 454, 425, 421, -1,
 421, 425, 390, -1, 421, 390, 386, -1, 386, 390, 361, -1,
 386, 361, 307, -1, 307, 361, 305, -1, 307, 305, 270, -1,
 270, 305, 277, -1, 270, 277, 221, -1, 221, 277, 254, -1,
 221, 254, 181, -1, 181, 254, 228, -1, 181, 228, 160, -1,
 160, 228, 220, -1, 160, 220, 151, -1, 151, 220, 229, -1,
 251, 238, 230, -1, 624, 596, 595, -1, 595, 596, 565, -1,
 595, 565, 564, -1, 564, 565, 507, -1, 564, 507, 506, -1,
 506, 507, 476, -1, 506, 476, 475, -1, 475, 476, 428, -1,
 475, 428, 427, -1, 427, 428, 397, -1, 427, 397, 396, -1,
 396, 397, 364, -1, 396, 364, 363, -1, 363, 364, 302, -1,
 363, 302, 301, -1, 301, 302, 274, -1, 301, 274, 273, -1,
 273, 274, 251, -1, 273, 251, 250, -1, 250, 251, 230, -1,
 647, 645, 644, -1, 626, 629, 649, -1, 649, 629, 646, -1,
 649, 646, 658, -1, 597, 602, 626, -1, 626, 602, 623, -1,
 626, 623, 629, -1, 566, 570, 597, -1, 597, 570, 594, -1,
 597, 594, 602, -1, 508, 509, 566, -1, 566, 509, 559, -1,
 566, 559, 570, -1, 477, 478, 508, -1, 508, 478, 505, -1,
 508, 505, 509, -1, 429, 450, 477, -1, 477, 450, 474, -1,
 477, 474, 478, -1, 398, 409, 429, -1, 429, 409, 430, -1,
 429, 430, 450, -1, 365, 374, 398, -1, 398, 374, 399, -1,
 398, 399, 409, -1, 303, 309, 365, -1, 365, 309, 366, -1,
 365, 366, 374, -1, 275, 283, 303, -1, 303, 283, 304, -1,
 303, 304, 309, -1, 252, 258, 275, -1, 275, 258, 276, -1,
 275, 276, 283, -1, 231, 234, 252, -1, 252, 234, 253, -1,
 252, 253, 258, -1, 239, 237, 238, -1, 238, 237, 233, -1,
 238, 233, 230, -1, 230, 233, 225, -1, 230, 225, 231, -1,
 231, 225, 232, -1, 231, 232, 234, -1, 650, 647, 648, -1,
 648, 647, 644, -1, 648, 644, 624, -1, 624, 644, 625, -1,
 624, 625, 596, -1, 646, 651, 658, -1, 658, 651, 656, -1,
 658, 656, 648, -1, 648, 656, 657, -1, 648, 657, 650, -1,
 288, 355, 326, -1, 536, 593, 557, -1, 557, 593, 645, -1,
 557, 645, 647, -1, 288, 326, 239, -1, 647, 650, 557, -1,
 557, 650, 657, -1, 557, 657, 567, -1, 567, 657, 656, -1,
 567, 656, 558, -1, 656, 651, 558, -1, 558, 651, 646, -1,
 558, 646, 535, -1, 646, 629, 535, -1, 535, 629, 623, -1,
 535, 623, 516, -1, 623, 602, 516, -1, 516, 602, 594, -1,
 516, 594, 500, -1, 594, 570, 500, -1, 500, 570, 559, -1,
 500, 559, 479, -1, 559, 509, 479, -1, 479, 509, 505, -1,
 479, 505, 461, -1, 505, 478, 461, -1, 461, 478, 474, -1,
 461, 474, 447, -1, 474, 450, 447, -1, 447, 450, 430, -1,
 447, 430, 420, -1, 430, 409, 420, -1, 420, 409, 399, -1,
 420, 399, 400, -1, 399, 374, 400, -1, 400, 374, 366, -1,
 400, 366, 389, -1, 366, 309, 389, -1, 389, 309, 304, -1,
 389, 304, 367, -1, 304, 283, 367, -1, 367, 283, 276, -1,
 367, 276, 356, -1, 276, 258, 356, -1, 356, 258, 253, -1,
 356, 253, 323, -1, 253, 234, 323, -1, 323, 234, 232, -1,
 323, 232, 318, -1, 232, 225, 318, -1, 318, 225, 233, -1,
 318, 233, 326, -1, 326, 233, 237, -1, 326, 237, 239, -1,
 356, 323, 557, -1, 355, 536, 326, -1, 326, 536, 557, -1,
 326, 557, 318, -1, 318, 557, 323, -1, 420, 400, 557, -1,
 400, 389, 557, -1, 557, 389, 367, -1, 557, 367, 356, -1,
 567, 558, 461, -1, 461, 558, 535, -1, 535, 516, 461, -1,
 461, 516, 500, -1, 461, 500, 479, -1, 567, 461, 557, -1,
 557, 461, 447, -1, 557, 447, 420, -1, 274, 625, 251, -1,
 251, 625, 644, -1, 251, 644, 238, -1, 476, 507, 565, -1,
 274, 302, 625, -1, 625, 302, 364, -1, 625, 364, 397, -1,
 397, 428, 625, -1, 625, 428, 476, -1, 625, 476, 596, -1,
 596, 476, 565, -1, 239, 238, 288, -1, 288, 238, 644, -1,
 536, 355, 593, -1, 593, 355, 288, -1, 593, 288, 645, -1,
 645, 288, 644, -1, 499, 530, 766, -1, 759, 761, 810, -1,
 810, 761, 762, -1, 810, 762, 805, -1, 762, 760, 805, -1,
 805, 760, 758, -1, 805, 758, 752, -1, 621, 587, 764, -1,
 764, 587, 529, -1, 764, 529, 498, -1, 707, 735, 810, -1,
 810, 735, 753, -1, 810, 753, 759, -1, 752, 734, 805, -1,
 805, 734, 706, -1, 805, 706, 795, -1, 795, 706, 666, -1,
 772, 776, 666, -1, 666, 776, 786, -1, 666, 786, 795, -1,
 498, 468, 764, -1, 764, 468, 431, -1, 764, 431, 121, -1,
 121, 431, 401, -1, 121, 401, 368, -1, 667, 788, 778, -1,
 707, 810, 667, -1, 667, 810, 797, -1, 667, 797, 788, -1,
 621, 764, 666, -1, 666, 764, 768, -1, 666, 768, 772, -1,
 82, 129, 139, -1, 530, 588, 766, -1, 766, 588, 622, -1,
 766, 622, 770, -1, 770, 622, 667, -1, 770, 667, 774, -1,
 774, 667, 778, -1, 99, 109, 248, -1, 208, 170, 77, -1,
 77, 170, 138, -1, 77, 138, 128, -1, 368, 312, 121, -1,
 121, 312, 281, -1, 121, 281, 117, -1, 117, 281, 248, -1,
 117, 248, 113, -1, 113, 248, 109, -1, 282, 313, 123, -1,
 123, 313, 369, -1, 369, 402, 123, -1, 123, 402, 432, -1,
 123, 432, 766, -1, 766, 432, 469, -1, 766, 469, 499, -1,
 208, 77, 248, -1, 248, 77, 90, -1, 248, 90, 99, -1,
 115, 111, 249, -1, 128, 125, 77, -1, 77, 125, 124, -1,
 77, 124, 82, -1, 82, 124, 126, -1, 82, 126, 129, -1,
 282, 123, 249, -1, 249, 123, 119, -1, 249, 119, 115, -1,
 139, 171, 82, -1, 82, 171, 209, -1, 82, 209, 92, -1,
 92, 209, 249, -1, 92, 249, 101, -1, 101, 249, 111, -1,
 725, 733, 731, -1, 731, 724, 725, -1, 725, 724, 711, -1,
 725, 711, 705, -1, 711, 703, 705, -1, 705, 703, 695, -1,
 705, 695, 662, -1, 695, 661, 662, -1, 662, 661, 628, -1,
 662, 628, 616, -1, 628, 614, 616, -1, 616, 614, 599, -1,
 616, 599, 574, -1, 599, 573, 574, -1, 574, 573, 515, -1,
 574, 515, 504, -1, 515, 502, 504, -1, 504, 502, 481, -1,
 504, 481, 456, -1, 481, 455, 456, -1, 456, 455, 444, -1,
 456, 444, 422, -1, 444, 424, 422, -1, 422, 424, 415, -1,
 422, 415, 388, -1, 415, 387, 388, -1, 388, 387, 354, -1,
 388, 354, 308, -1, 354, 311, 308, -1, 308, 311, 300, -1,
 308, 300, 272, -1, 300, 271, 272, -1, 272, 271, 243, -1,
 272, 243, 222, -1, 243, 224, 222, -1, 222, 224, 215, -1,
 222, 215, 183, -1, 215, 182, 183, -1, 183, 182, 169, -1,
 183, 169, 161, -1, 169, 163, 161, -1, 161, 163, 157, -1,
 161, 157, 151, -1, 157, 150, 151, -1, 151, 150, 156, -1,
 151, 156, 160, -1, 156, 162, 160, -1, 160, 162, 168, -1,
 160, 168, 181, -1, 168, 180, 181, -1, 181, 180, 214, -1,
 181, 214, 221, -1, 214, 223, 221, -1, 221, 223, 242, -1,
 221, 242, 270, -1, 242, 269, 270, -1, 270, 269, 299, -1,
 270, 299, 307, -1, 299, 310, 307, -1, 307, 310, 353, -1,
 307, 353, 386, -1, 353, 385, 386, -1, 386, 385, 414, -1,
 386, 414, 421, -1, 414, 423, 421, -1, 421, 423, 443, -1,
 421, 443, 454, -1, 443, 453, 454, -1, 454, 453, 480, -1,
 454, 480, 503, -1, 480, 501, 503, -1, 503, 501, 514, -1,
 503, 514, 572, -1, 514, 571, 572, -1, 572, 571, 598, -1,
 572, 598, 615, -1, 598, 613, 615, -1, 615, 613, 627, -1,
 615, 627, 660, -1, 627, 659, 660, -1, 660, 659, 694, -1,
 660, 694, 704, -1, 694, 702, 704, -1, 704, 702, 710, -1,
 704, 710, 723, -1, 710, 722, 723, -1, 723, 722, 730, -1,
 723, 730, 733, -1, 733, 730, 732, -1, 733, 732, 731, -1,
 732, 730, 736, -1, 702, 694, 696, -1, 613, 598, 600, -1,
 501, 480, 482, -1, 423, 414, 412, -1, 310, 299, 297, -1,
 223, 214, 212, -1, 162, 156, 154, -1, 126, 124, 127, -1,
 129, 126, 131, -1, 139, 129, 136, -1, 171, 139, 149, -1,
 209, 171, 175, -1, 249, 209, 217, -1, 282, 249, 257, -1,
 313, 282, 285, -1, 369, 313, 317, -1, 402, 369, 376, -1,
 432, 402, 404, -1, 469, 432, 434, -1, 499, 469, 467, -1,
 530, 499, 497, -1, 588, 530, 528, -1, 622, 588, 586, -1,
 667, 622, 618, -1, 707, 667, 653, -1, 735, 707, 699, -1,
 753, 735, 719, -1, 759, 753, 745, -1, 761, 759, 755, -1,
 762, 761, 757, -1, 752, 758, 754, -1, 734, 752, 744, -1,
 706, 734, 718, -1, 666, 706, 698, -1, 621, 666, 652, -1,
 587, 621, 617, -1, 529, 587, 585, -1, 498, 529, 527, -1,
 468, 498, 496, -1, 431, 468, 466, -1, 401, 431, 433, -1,
 368, 401, 403, -1, 312, 368, 375, -1, 281, 312, 316, -1,
 248, 281, 284, -1, 208, 248, 256, -1, 170, 208, 216, -1,
 138, 170, 174, -1, 128, 138, 148, -1, 125, 128, 135, -1,
 124, 125, 130, -1, 758, 760, 756, -1, 756, 760, 762, -1,
 124, 130, 127, -1, 127, 130, 133, -1, 127, 133, 132, -1,
 132, 133, 140, -1, 132, 140, 137, -1, 137, 140, 145, -1,
 137, 145, 144, -1, 144, 145, 154, -1, 144, 154, 147, -1,
 147, 154, 156, -1, 147, 156, 150, -1, 125, 135, 130, -1,
 130, 135, 142, -1, 130, 142, 133, -1, 133, 142, 152, -1,
 133, 152, 140, -1, 140, 152, 158, -1, 140, 158, 145, -1,
 145, 158, 166, -1, 145, 166, 154, -1, 154, 166, 168, -1,
 154, 168, 162, -1, 128, 148, 135, -1, 135, 148, 164, -1,
 135, 164, 142, -1, 142, 164, 172, -1, 142, 172, 152, -1,
 152, 172, 176, -1, 152, 176, 158, -1, 158, 176, 178, -1,
 158, 178, 166, -1, 166, 178, 180, -1, 166, 180, 168, -1,
 138, 174, 148, -1, 148, 174, 184, -1, 148, 184, 164, -1,
 164, 184, 186, -1, 164, 186, 172, -1, 172, 186, 210, -1,
 172, 210, 176, -1, 176, 210, 212, -1, 176, 212, 178, -1,
 178, 212, 214, -1, 178, 214, 180, -1, 170, 216, 174, -1,
 174, 216, 218, -1, 174, 218, 184, -1, 184, 218, 226, -1,
 184, 226, 186, -1, 186, 226, 235, -1, 186, 235, 210, -1,
 210, 235, 240, -1, 210, 240, 212, -1, 212, 240, 242, -1,
 212, 242, 223, -1, 208, 256, 216, -1, 216, 256, 259, -1,
 216, 259, 218, -1, 218, 259, 261, -1, 218, 261, 226, -1,
 226, 261, 263, -1, 226, 263, 235, -1, 235, 263, 267, -1,
 235, 267, 240, -1, 240, 267, 269, -1, 240, 269, 242, -1,
 248, 284, 256, -1, 256, 284, 286, -1, 256, 286, 259, -1,
 259, 286, 289, -1, 259, 289, 261, -1, 261, 289, 295, -1,
 261, 295, 263, -1, 263, 295, 297, -1, 263, 297, 267, -1,
 267, 297, 299, -1, 267, 299, 269, -1, 281, 316, 284, -1,
 284, 316, 324, -1, 284, 324, 286, -1, 286, 324, 327, -1,
 286, 327, 289, -1, 289, 327, 349, -1, 289, 349, 295, -1,
 295, 349, 351, -1, 295, 351, 297, -1, 297, 351, 353, -1,
 297, 353, 310, -1, 312, 375, 316, -1, 316, 375, 377, -1,
 316, 377, 324, -1, 324, 377, 379, -1, 324, 379, 327, -1,
 327, 379, 381, -1, 327, 381, 349, -1, 349, 381, 383, -1,
 349, 383, 351, -1, 351, 383, 385, -1, 351, 385, 353, -1,
 368, 403, 375, -1, 375, 403, 405, -1, 375, 405, 377, -1,
 377, 405, 407, -1, 377, 407, 379, -1, 379, 407, 410, -1,
 379, 410, 381, -1, 381, 410, 412, -1, 381, 412, 383, -1,
 383, 412, 414, -1, 383, 414, 385, -1, 401, 433, 403, -1,
 403, 433, 435, -1, 403, 435, 405, -1, 405, 435, 437, -1,
 405, 437, 407, -1, 407, 437, 439, -1, 407, 439, 410, -1,
 410, 439, 441, -1, 410, 441, 412, -1, 412, 441, 443, -1,
 412, 443, 423, -1, 431, 466, 433, -1, 433, 466, 464, -1,
 433, 464, 435, -1, 435, 464, 462, -1, 435, 462, 437, -1,
 437, 462, 459, -1, 437, 459, 439, -1, 439, 459, 457, -1,
 439, 457, 441, -1, 441, 457, 453, -1, 441, 453, 443, -1,
 468, 496, 466, -1, 466, 496, 494, -1, 466, 494, 464, -1,
 464, 494, 492, -1, 464, 492, 462, -1, 462, 492, 484, -1,
 462, 484, 459, -1, 459, 484, 482, -1, 459, 482, 457, -1,
 457, 482, 480, -1, 457, 480, 453, -1, 498, 527, 496, -1,
 496, 527, 523, -1, 496, 523, 494, -1, 494, 523, 521, -1,
 494, 521, 492, -1, 492, 521, 519, -1, 492, 519, 484, -1,
 484, 519, 517, -1, 484, 517, 482, -1, 482, 517, 514, -1,
 482, 514, 501, -1, 529, 585, 527, -1, 527, 585, 581, -1,
 527, 581, 523, -1, 523, 581, 579, -1, 523, 579, 521, -1,
 521, 579, 577, -1, 521, 577, 519, -1, 519, 577, 575, -1,
 519, 575, 517, -1, 517, 575, 571, -1, 517, 571, 514, -1,
 587, 617, 585, -1, 585, 617, 609, -1, 585, 609, 581, -1,
 581, 609, 605, -1, 581, 605, 579, -1, 579, 605, 603, -1,
 579, 603, 577, -1, 577, 603, 600, -1, 577, 600, 575, -1,
 575, 600, 598, -1, 575, 598, 571, -1, 621, 652, 617, -1,
 617, 652, 642, -1, 617, 642, 609, -1, 609, 642, 636, -1,
 609, 636, 605, -1, 605, 636, 632, -1, 605, 632, 603, -1,
 603, 632, 630, -1, 603, 630, 600, -1, 600, 630, 627, -1,
 600, 627, 613, -1, 666, 698, 652, -1, 652, 698, 672, -1,
 652, 672, 642, -1, 642, 672, 670, -1, 642, 670, 636, -1,
 636, 670, 668, -1, 636, 668, 632, -1, 632, 668, 663, -1,
 632, 663, 630, -1, 630, 663, 659, -1, 630, 659, 627, -1,
 706, 718, 698, -1, 698, 718, 712, -1, 698, 712, 672, -1,
 672, 712, 708, -1, 672, 708, 670, -1, 670, 708, 700, -1,
 670, 700, 668, -1, 668, 700, 696, -1, 668, 696, 663, -1,
 663, 696, 694, -1, 663, 694, 659, -1, 734, 744, 718, -1,
 718, 744, 738, -1, 718, 738, 712, -1, 712, 738, 720, -1,
 712, 720, 708, -1, 708, 720, 716, -1, 708, 716, 700, -1,
 700, 716, 714, -1, 700, 714, 696, -1, 696, 714, 710, -1,
 696, 710, 702, -1, 752, 754, 744, -1, 744, 754, 748, -1,
 744, 748, 738, -1, 738, 748, 742, -1, 738, 742, 720, -1,
 720, 742, 728, -1, 720, 728, 716, -1, 716, 728, 726, -1,
 716, 726, 714, -1, 714, 726, 722, -1, 714, 722, 710, -1,
 758, 756, 754, -1, 754, 756, 750, -1, 754, 750, 748, -1,
 748, 750, 746, -1, 748, 746, 742, -1, 742, 746, 740, -1,
 742, 740, 728, -1, 728, 740, 736, -1, 728, 736, 726, -1,
 726, 736, 730, -1, 726, 730, 722, -1, 762, 757, 756, -1,
 756, 757, 751, -1, 756, 751, 750, -1, 750, 751, 747, -1,
 750, 747, 746, -1, 746, 747, 741, -1, 746, 741, 740, -1,
 740, 741, 737, -1, 740, 737, 736, -1, 736, 737, 731, -1,
 736, 731, 732, -1, 761, 755, 757, -1, 757, 755, 749, -1,
 757, 749, 751, -1, 751, 749, 743, -1, 751, 743, 747, -1,
 747, 743, 729, -1, 747, 729, 741, -1, 741, 729, 727, -1,
 741, 727, 737, -1, 737, 727, 724, -1, 737, 724, 731, -1,
 759, 745, 755, -1, 755, 745, 739, -1, 755, 739, 749, -1,
 749, 739, 721, -1, 749, 721, 743, -1, 743, 721, 717, -1,
 743, 717, 729, -1, 729, 717, 715, -1, 729, 715, 727, -1,
 727, 715, 711, -1, 727, 711, 724, -1, 697, 695, 703, -1,
 753, 719, 745, -1, 745, 719, 713, -1, 745, 713, 739, -1,
 739, 713, 709, -1, 739, 709, 721, -1, 721, 709, 701, -1,
 721, 701, 717, -1, 717, 701, 697, -1, 717, 697, 715, -1,
 715, 697, 703, -1, 715, 703, 711, -1, 735, 699, 719, -1,
 719, 699, 673, -1, 719, 673, 713, -1, 713, 673, 671, -1,
 713, 671, 709, -1, 709, 671, 669, -1, 709, 669, 701, -1,
 701, 669, 664, -1, 701, 664, 697, -1, 697, 664, 661, -1,
 697, 661, 695, -1, 707, 653, 699, -1, 699, 653, 643, -1,
 699, 643, 673, -1, 673, 643, 637, -1, 673, 637, 671, -1,
 671, 637, 633, -1, 671, 633, 669, -1, 669, 633, 631, -1,
 669, 631, 664, -1, 664, 631, 628, -1, 664, 628, 661, -1,
 601, 599, 614, -1, 667, 618, 653, -1, 653, 618, 610, -1,
 653, 610, 643, -1, 643, 610, 606, -1, 643, 606, 637, -1,
 637, 606, 604, -1, 637, 604, 633, -1, 633, 604, 601, -1,
 633, 601, 631, -1, 631, 601, 614, -1, 631, 614, 628, -1,
 622, 586, 618, -1, 618, 586, 582, -1, 618, 582, 610, -1,
 610, 582, 580, -1, 610, 580, 606, -1, 606, 580, 578, -1,
 606, 578, 604, -1, 604, 578, 576, -1, 604, 576, 601, -1,
 601, 576, 573, -1, 601, 573, 599, -1, 588, 528, 586, -1,
 586, 528, 524, -1, 586, 524, 582, -1, 582, 524, 522, -1,
 582, 522, 580, -1, 580, 522, 520, -1, 580, 520, 578, -1,
 578, 520, 518, -1, 578, 518, 576, -1, 576, 518, 515, -1,
 576, 515, 573, -1, 483, 481, 502, -1, 530, 497, 528, -1,
 528, 497, 495, -1, 528, 495, 524, -1, 524, 495, 493, -1,
 524, 493, 522, -1, 522, 493, 485, -1, 522, 485, 520, -1,
 520, 485, 483, -1, 520, 483, 518, -1, 518, 483, 502, -1,
 518, 502, 515, -1, 499, 467, 497, -1, 497, 467, 465, -1,
 497, 465, 495, -1, 495, 465, 463, -1, 495, 463, 493, -1,
 493, 463, 460, -1, 493, 460, 485, -1, 485, 460, 458, -1,
 485, 458, 483, -1, 483, 458, 455, -1, 483, 455, 481, -1,
 469, 434, 467, -1, 467, 434, 436, -1, 467, 436, 465, -1,
 465, 436, 438, -1, 465, 438, 463, -1, 463, 438, 440, -1,
 463, 440, 460, -1, 460, 440, 442, -1, 460, 442, 458, -1,
 458, 442, 444, -1, 458, 444, 455, -1, 413, 415, 424, -1,
 432, 404, 434, -1, 434, 404, 406, -1, 434, 406, 436, -1,
 436, 406, 408, -1, 436, 408, 438, -1, 438, 408, 411, -1,
 438, 411, 440, -1, 440, 411, 413, -1, 440, 413, 442, -1,
 442, 413, 424, -1, 442, 424, 444, -1, 402, 376, 404, -1,
 404, 376, 378, -1, 404, 378, 406, -1, 406, 378, 380, -1,
 406, 380, 408, -1, 408, 380, 382, -1, 408, 382, 411, -1,
 411, 382, 384, -1, 411, 384, 413, -1, 413, 384, 387, -1,
 413, 387, 415, -1, 369, 317, 376, -1, 376, 317, 325, -1,
 376, 325, 378, -1, 378, 325, 328, -1, 378, 328, 380, -1,
 380, 328, 350, -1, 380, 350, 382, -1, 382, 350, 352, -1,
 382, 352, 384, -1, 384, 352, 354, -1, 384, 354, 387, -1,
 298, 300, 311, -1, 313, 285, 317, -1, 317, 285, 287, -1,
 317, 287, 325, -1, 325, 287, 290, -1, 325, 290, 328, -1,
 328, 290, 296, -1, 328, 296, 350, -1, 350, 296, 298, -1,
 350, 298, 352, -1, 352, 298, 311, -1, 352, 311, 354, -1,
 282, 257, 285, -1, 285, 257, 260, -1, 285, 260, 287, -1,
 287, 260, 262, -1, 287, 262, 290, -1, 290, 262, 264, -1,
 290, 264, 296, -1, 296, 264, 268, -1, 296, 268, 298, -1,
 298, 268, 271, -1, 298, 271, 300, -1, 249, 217, 257, -1,
 257, 217, 219, -1, 257, 219, 260, -1, 260, 219, 227, -1,
 260, 227, 262, -1, 262, 227, 236, -1, 262, 236, 264, -1,
 264, 236, 241, -1, 264, 241, 268, -1, 268, 241, 243, -1,
 268, 243, 271, -1, 213, 215, 224, -1, 209, 175, 217, -1,
 217, 175, 185, -1, 217, 185, 219, -1, 219, 185, 187, -1,
 219, 187, 227, -1, 227, 187, 211, -1, 227, 211, 236, -1,
 236, 211, 213, -1, 236, 213, 241, -1, 241, 213, 224, -1,
 241, 224, 243, -1, 171, 149, 175, -1, 175, 149, 165, -1,
 175, 165, 185, -1, 185, 165, 173, -1, 185, 173, 187, -1,
 187, 173, 177, -1, 187, 177, 211, -1, 211, 177, 179, -1,
 211, 179, 213, -1, 213, 179, 182, -1, 213, 182, 215, -1,
 139, 136, 149, -1, 149, 136, 143, -1, 149, 143, 165, -1,
 165, 143, 153, -1, 165, 153, 173, -1, 173, 153, 159, -1,
 173, 159, 177, -1, 177, 159, 167, -1, 177, 167, 179, -1,
 179, 167, 169, -1, 179, 169, 182, -1, 155, 157, 163, -1,
 129, 131, 136, -1, 136, 131, 134, -1, 136, 134, 143, -1,
 143, 134, 141, -1, 143, 141, 153, -1, 153, 141, 146, -1,
 153, 146, 159, -1, 159, 146, 155, -1, 159, 155, 167, -1,
 167, 155, 163, -1, 167, 163, 169, -1, 126, 127, 131, -1,
 131, 127, 132, -1, 131, 132, 134, -1, 134, 132, 137, -1,
 134, 137, 141, -1, 141, 137, 144, -1, 141, 144, 146, -1,
 146, 144, 147, -1, 146, 147, 155, -1, 155, 147, 150, -1,
 155, 150, 157, -1, 280, 279, 266, -1, 266, 279, 265, -1,
 189, 330, 331, -1, 189, 331, 190, -1, 190, 331, 332, -1,
 190, 332, 191, -1, 191, 332, 333, -1, 191, 333, 192, -1,
 192, 333, 337, -1, 192, 337, 196, -1, 196, 337, 340, -1,
 196, 340, 199, -1, 199, 340, 343, -1, 199, 343, 202, -1,
 202, 343, 345, -1, 202, 345, 204, -1, 345, 348, 204, -1,
 204, 348, 207, -1, 690, 693, 553, -1, 553, 693, 556, -1,
 538, 675, 676, -1, 538, 676, 539, -1, 539, 676, 677, -1,
 539, 677, 540, -1, 540, 677, 678, -1, 540, 678, 541, -1,
 541, 678, 682, -1, 541, 682, 545, -1, 545, 682, 685, -1,
 545, 685, 548, -1, 548, 685, 688, -1, 548, 688, 551, -1,
 551, 688, 690, -1, 551, 690, 553, -1, 347, 346, 206, -1,
 206, 346, 205, -1, 692, 691, 555, -1, 555, 691, 554, -1,
 205, 346, 203, -1, 203, 346, 344, -1, 203, 344, 201, -1,
 201, 344, 342, -1, 201, 342, 200, -1, 200, 342, 341, -1,
 200, 341, 198, -1, 198, 341, 339, -1, 198, 339, 197, -1,
 197, 339, 338, -1, 197, 338, 195, -1, 195, 338, 336, -1,
 195, 336, 194, -1, 194, 336, 335, -1, 554, 691, 552, -1,
 552, 691, 689, -1, 552, 689, 550, -1, 550, 689, 687, -1,
 550, 687, 549, -1, 549, 687, 686, -1, 549, 686, 547, -1,
 547, 686, 684, -1, 547, 684, 546, -1, 546, 684, 683, -1,
 546, 683, 544, -1, 544, 683, 681, -1, 544, 681, 543, -1,
 543, 681, 680, -1, 692, 693, 691, -1, 691, 693, 690, -1,
 691, 690, 689, -1, 689, 690, 688, -1, 689, 688, 687, -1,
 687, 688, 685, -1, 687, 685, 686, -1, 686, 685, 682, -1,
 686, 682, 684, -1, 684, 682, 678, -1, 684, 678, 683, -1,
 683, 678, 677, -1, 683, 677, 681, -1, 681, 677, 676, -1,
 681, 676, 680, -1, 680, 676, 675, -1, 680, 675, 679, -1,
 679, 675, 674, -1, 542, 537, 543, -1, 543, 537, 538, -1,
 543, 538, 544, -1, 544, 538, 539, -1, 544, 539, 546, -1,
 546, 539, 540, -1, 546, 540, 547, -1, 547, 540, 541, -1,
 547, 541, 549, -1, 549, 541, 545, -1, 549, 545, 550, -1,
 550, 545, 548, -1, 550, 548, 552, -1, 552, 548, 551, -1,
 552, 551, 554, -1, 554, 551, 553, -1, 554, 553, 555, -1,
 555, 553, 556, -1, 347, 348, 346, -1, 346, 348, 345, -1,
 346, 345, 344, -1, 344, 345, 343, -1, 344, 343, 342, -1,
 342, 343, 340, -1, 342, 340, 341, -1, 341, 340, 337, -1,
 341, 337, 339, -1, 339, 337, 333, -1, 339, 333, 338, -1,
 338, 333, 332, -1, 338, 332, 336, -1, 336, 332, 331, -1,
 336, 331, 335, -1, 335, 331, 330, -1, 335, 330, 334, -1,
 334, 330, 329, -1, 193, 188, 194, -1, 194, 188, 189, -1,
 194, 189, 195, -1, 195, 189, 190, -1, 195, 190, 197, -1,
 197, 190, 191, -1, 197, 191, 198, -1, 198, 191, 192, -1,
 198, 192, 200, -1, 200, 192, 196, -1, 200, 196, 201, -1,
 201, 196, 199, -1, 201, 199, 203, -1, 203, 199, 202, -1,
 203, 202, 205, -1, 205, 202, 204, -1, 205, 204, 206, -1,
 206, 204, 207, -1, 335, 334, 194, -1, 194, 334, 294, -1,
 193, 194, 247, -1, 247, 194, 294, -1, 247, 294, 246, -1,
 246, 294, 293, -1, 246, 293, 266, -1, 266, 293, 280, -1,
 620, 619, 608, -1, 608, 619, 607, -1, 592, 542, 543, -1,
 680, 679, 641, -1, 620, 608, 640, -1, 640, 608, 591, -1,
 640, 591, 641, -1, 641, 591, 592, -1, 641, 592, 680, -1,
 680, 592, 543, -1, 245, 188, 247, -1, 247, 188, 193, -1,
 674, 639, 679, -1, 679, 639, 641, -1, 329, 292, 334, -1,
 334, 292, 294, -1, 590, 537, 592, -1, 592, 537, 542, -1,
 294, 292, 293, -1, 293, 292, 291, -1, 280, 293, 279, -1,
 279, 293, 291, -1, 292, 329, 330, -1, 189, 188, 245, -1,
 265, 279, 244, -1, 244, 279, 291, -1, 244, 291, 245, -1,
 245, 291, 292, -1, 245, 292, 189, -1, 189, 292, 330, -1,
 245, 247, 244, -1, 244, 247, 246, -1, 265, 244, 266, -1,
 266, 244, 246, -1, 641, 639, 640, -1, 640, 639, 638, -1,
 620, 640, 619, -1, 619, 640, 638, -1, 639, 674, 675, -1,
 538, 537, 590, -1, 607, 619, 589, -1, 589, 619, 638, -1,
 589, 638, 590, -1, 590, 638, 639, -1, 590, 639, 538, -1,
 538, 639, 675, -1, 590, 592, 589, -1, 589, 592, 591, -1,
 607, 589, 608, -1, 608, 589, 591, -1, 791, 789, 792, -1,
 878, 881, 855, -1, 878, 855, 876, -1, 876, 855, 846, -1,
 876, 846, 873, -1, 862, 868, 840, -1, 846, 843, 873, -1,
 873, 843, 840, -1, 873, 840, 872, -1, 872, 840, 868, -1,
 840, 836, 862, -1, 862, 836, 830, -1, 862, 830, 854, -1,
 830, 824, 854, -1, 854, 824, 814, -1, 854, 814, 848, -1,
 848, 814, 842, -1, 842, 814, 811, -1, 842, 811, 837, -1,
 811, 791, 837, -1, 837, 791, 792, -1, 837, 792, 832, -1,
 832, 792, 825, -1, 807, 816, 802, -1, 802, 816, 821, -1,
 802, 821, 792, -1, 792, 821, 823, -1, 792, 823, 825, -1,
 839, 838, 793, -1, 815, 847, 812, -1, 812, 847, 839, -1,
 812, 839, 790, -1, 790, 839, 793, -1, 820, 803, 826, -1,
 826, 803, 793, -1, 826, 793, 829, -1, 829, 793, 838, -1,
 820, 819, 803, -1, 803, 819, 813, -1, 803, 813, 807, -1,
 822, 857, 815, -1, 815, 857, 853, -1, 815, 853, 847, -1,
 822, 831, 857, -1, 857, 831, 835, -1, 857, 835, 867, -1,
 867, 835, 841, -1, 867, 841, 869, -1, 869, 841, 874, -1,
 841, 844, 874, -1, 874, 844, 845, -1, 874, 845, 875, -1,
 875, 845, 856, -1, 875, 856, 877, -1, 877, 856, 882, -1,
 47, 48, 93, -1, 71, 39, 74, -1, 74, 39, 47, -1,
 74, 47, 96, -1, 96, 47, 93, -1, 66, 83, 60, -1,
 60, 83, 93, -1, 60, 93, 57, -1, 57, 93, 48, -1,
 66, 67, 83, -1, 83, 67, 73, -1, 83, 73, 79, -1,
 64, 29, 71, -1, 71, 29, 33, -1, 71, 33, 39, -1,
 64, 55, 29, -1, 29, 55, 51, -1, 29, 51, 19, -1,
 19, 51, 45, -1, 19, 45, 17, -1, 17, 45, 12, -1,
 45, 42, 12, -1, 12, 42, 41, -1, 12, 41, 11, -1,
 11, 41, 30, -1, 11, 30, 9, -1, 9, 30, 4, -1,
 95, 97, 94, -1, 8, 5, 31, -1, 8, 31, 10, -1,
 10, 31, 40, -1, 10, 40, 13, -1, 24, 18, 46, -1,
 40, 43, 13, -1, 13, 43, 46, -1, 13, 46, 14, -1,
 14, 46, 18, -1, 46, 50, 24, -1, 24, 50, 56, -1,
 24, 56, 32, -1, 56, 62, 32, -1, 32, 62, 72, -1,
 32, 72, 38, -1, 38, 72, 44, -1, 44, 72, 75, -1,
 44, 75, 49, -1, 75, 95, 49, -1, 49, 95, 94, -1,
 49, 94, 54, -1, 54, 94, 61, -1, 79, 70, 84, -1,
 84, 70, 65, -1, 84, 65, 94, -1, 94, 65, 63, -1,
 94, 63, 61, -1, 86, 105, 763, -1, 100, 110, 91, -1,
 91, 110, 81, -1, 107, 782, 780, -1, 799, 763, 780, -1,
 780, 763, 105, -1, 780, 105, 107, -1, 763, 120, 86, -1,
 86, 120, 116, -1, 86, 116, 112, -1, 107, 118, 782, -1,
 782, 118, 122, -1, 782, 122, 801, -1, 801, 122, 765, -1,
 801, 765, 769, -1, 767, 804, 794, -1, 794, 785, 767, -1,
 767, 785, 775, -1, 767, 775, 771, -1, 112, 108, 86, -1,
 86, 108, 98, -1, 86, 98, 89, -1, 769, 773, 801, -1,
 801, 773, 777, -1, 801, 777, 787, -1, 89, 76, 86, -1,
 86, 76, 81, -1, 86, 81, 88, -1, 88, 81, 110, -1,
 88, 110, 107, -1, 107, 110, 114, -1, 107, 114, 118, -1,
 787, 796, 801, -1, 801, 796, 809, -1, 801, 809, 799, -1,
 799, 809, 804, -1, 799, 804, 763, -1, 763, 804, 767, -1,
 820, 826, 825, -1, 874, 878, 876, -1, 874, 875, 878, -1,
 878, 875, 877, -1, 878, 877, 881, -1, 868, 862, 857, -1,
 857, 862, 854, -1, 857, 854, 853, -1, 876, 873, 874, -1,
 874, 873, 872, -1, 874, 872, 869, -1, 869, 872, 868, -1,
 869, 868, 867, -1, 867, 868, 857, -1, 842, 837, 847, -1,
 853, 854, 847, -1, 847, 854, 848, -1, 847, 848, 842, -1,
 825, 826, 832, -1, 826, 829, 832, -1, 832, 829, 838, -1,
 832, 838, 837, -1, 837, 838, 839, -1, 837, 839, 847, -1,
 813, 821, 807, -1, 807, 821, 816, -1, 825, 823, 820, -1,
 820, 823, 821, -1, 820, 821, 819, -1, 819, 821, 813, -1,
 877, 882, 881, -1, 881, 882, 884, -1, 881, 884, 883, -1,
 883, 884, 886, -1, 883, 886, 885, -1, 885, 886, 880, -1,
 885, 880, 879, -1, 879, 880, 871, -1, 879, 871, 870, -1,
 870, 871, 852, -1, 870, 852, 851, -1, 851, 852, 828, -1,
 851, 828, 827, -1, 827, 828, 808, -1, 827, 808, 806, -1,
 789, 790, 793, -1, 802, 792, 807, -1, 807, 792, 789, -1,
 807, 789, 803, -1, 803, 789, 793, -1, 106, 107, 104, -1,
 104, 107, 105, -1, 40, 31, 28, -1, 40, 41, 43, -1,
 43, 41, 42, -1, 43, 42, 46, -1, 42, 45, 46, -1,
 46, 45, 51, -1, 46, 51, 50, -1, 50, 51, 56, -1,
 51, 55, 56, -1, 56, 55, 64, -1, 56, 64, 62, -1,
 62, 64, 71, -1, 74, 96, 97, -1, 97, 95, 74, -1,
 74, 95, 75, -1, 74, 75, 71, -1, 71, 75, 72, -1,
 71, 72, 62, -1, 106, 104, 103, -1, 103, 104, 102, -1,
 103, 102, 69, -1, 69, 102, 68, -1, 69, 68, 53, -1,
 53, 68, 52, -1, 53, 52, 37, -1, 37, 52, 36, -1,
 37, 36, 26, -1, 26, 36, 25, -1, 26, 25, 21, -1,
 21, 25, 20, -1, 21, 20, 23, -1, 23, 20, 22, -1,
 23, 22, 28, -1, 28, 22, 27, -1, 28, 27, 40, -1,
 40, 27, 30, -1, 40, 30, 41, -1, 94, 97, 96, -1,
 93, 83, 79, -1, 93, 79, 96, -1, 96, 79, 84, -1,
 96, 84, 94, -1, 66, 60, 61, -1, 12, 8, 10, -1,
 12, 11, 8, -1, 8, 11, 9, -1, 8, 9, 5, -1,
 18, 24, 29, -1, 29, 24, 32, -1, 29, 32, 33, -1,
 10, 13, 12, -1, 12, 13, 14, -1, 12, 14, 17, -1,
 17, 14, 18, -1, 17, 18, 19, -1, 19, 18, 29, -1,
 44, 49, 39, -1, 33, 32, 39, -1, 39, 32, 38, -1,
 39, 38, 44, -1, 61, 60, 54, -1, 60, 57, 54, -1,
 54, 57, 48, -1, 54, 48, 49, -1, 49, 48, 47, -1,
 49, 47, 39, -1, 73, 65, 79, -1, 79, 65, 70, -1,
 61, 63, 66, -1, 66, 63, 65, -1, 66, 65, 67, -1,
 67, 65, 73, -1, 9, 4, 5, -1, 5, 4, 2, -1,
 5, 2, 3, -1, 3, 2, 0, -1, 3, 0, 1, -1,
 1, 0, 6, -1, 1, 6, 7, -1, 7, 6, 15, -1,
 7, 15, 16, -1, 16, 15, 34, -1, 16, 34, 35, -1,
 35, 34, 58, -1, 35, 58, 59, -1, 59, 58, 78, -1,
 59, 78, 80, -1, 846, 855, 858, -1, 846, 845, 843, -1,
 843, 845, 844, -1, 843, 844, 840, -1, 840, 844, 841, -1,
 840, 841, 836, -1, 836, 841, 835, -1, 836, 835, 830, -1,
 835, 831, 830, -1, 830, 831, 822, -1, 830, 822, 824, -1,
 824, 822, 815, -1, 812, 790, 789, -1, 789, 791, 812, -1,
 812, 791, 811, -1, 812, 811, 815, -1, 815, 811, 814, -1,
 815, 814, 824, -1, 779, 781, 783, -1, 783, 781, 784, -1,
 783, 784, 817, -1, 817, 784, 818, -1, 817, 818, 833, -1,
 833, 818, 834, -1, 833, 834, 849, -1, 849, 834, 850, -1,
 849, 850, 860, -1, 860, 850, 861, -1, 860, 861, 865, -1,
 865, 861, 866, -1, 865, 866, 863, -1, 863, 866, 864, -1,
 863, 864, 858, -1, 858, 864, 859, -1, 858, 859, 846, -1,
 846, 859, 856, -1, 846, 856, 845, -1, 782, 781, 780, -1,
 780, 781, 779, -1, 798, 799, 780, -1, 858, 855, 881, -1,
 858, 881, 863, -1, 863, 881, 883, -1, 863, 883, 865, -1,
 865, 883, 885, -1, 865, 885, 860, -1, 860, 885, 879, -1,
 860, 879, 849, -1, 849, 879, 870, -1, 849, 870, 833, -1,
 833, 870, 851, -1, 833, 851, 817, -1, 780, 779, 798, -1,
 798, 779, 783, -1, 798, 783, 806, -1, 806, 783, 817, -1,
 806, 817, 827, -1, 827, 817, 851, -1, 782, 801, 781, -1,
 781, 801, 800, -1, 781, 800, 784, -1, 784, 800, 818, -1,
 800, 808, 818, -1, 818, 808, 828, -1, 818, 828, 834, -1,
 834, 828, 852, -1, 834, 852, 850, -1, 850, 852, 871, -1,
 850, 871, 861, -1, 861, 871, 880, -1, 861, 880, 866, -1,
 866, 880, 886, -1, 866, 886, 864, -1, 864, 886, 884, -1,
 864, 884, 859, -1, 859, 884, 882, -1, 859, 882, 856, -1,
 801, 799, 800, -1, 800, 799, 798, -1, 800, 798, 808, -1,
 808, 798, 806, -1, 87, 88, 107, -1, 28, 31, 5, -1,
 107, 106, 87, -1, 87, 106, 103, -1, 87, 103, 80, -1,
 80, 103, 69, -1, 28, 5, 23, -1, 23, 5, 3, -1,
 23, 3, 21, -1, 21, 3, 1, -1, 21, 1, 26, -1,
 26, 1, 7, -1, 26, 7, 37, -1, 37, 7, 16, -1,
 37, 16, 53, -1, 53, 16, 35, -1, 53, 35, 69, -1,
 69, 35, 59, -1, 69, 59, 80, -1, 105, 86, 104, -1,
 104, 86, 85, -1, 104, 85, 102, -1, 102, 85, 68, -1,
 85, 78, 68, -1, 68, 78, 58, -1, 68, 58, 52, -1,
 52, 58, 34, -1, 52, 34, 36, -1, 36, 34, 15, -1,
 36, 15, 25, -1, 25, 15, 6, -1, 25, 6, 20, -1,
 20, 6, 0, -1, 20, 0, 22, -1, 22, 0, 2, -1,
 22, 2, 27, -1, 27, 2, 4, -1, 27, 4, 30, -1,
 85, 86, 87, -1, 87, 86, 88, -1, 85, 87, 78, -1,
 78, 87, 80, -1, 123, 766, 122, -1, 122, 766, 765, -1
]
materialIndex [
 1, 1, 1, 1, 1, 1, 1, 1, 1, 1, 1, 1, 2, 2, 3, 3, 3, 3, 3, 3, 3, 3, 3, 3, 3, 3,
 4, 4, 4, 4, 4, 4, 4, 4, 4, 4, 4, 4, 5, 5, 6, 6, 6, 6, 6, 6, 6, 6, 6, 6, 6, 6,
 7, 7, 7, 7, 7, 7, 7, 7, 7, 7, 7, 7, 7, 7, 8, 8, 8, 8, 8, 8, 8, 8, 8, 8, 8, 8, 8, 8, 8, 8, 8, 8, 8, 8, 8, 8, 8, 8, 8, 8, 8, 8, 8, 8, 8, 8, 8, 8, 8, 8, 8, 8, 8, 8, 8, 8, 8, 8, 8, 8, 8, 8, 9, 9, 9, 9, 9, 9, 9, 9, 9, 9, 9, 9, 9, 9, 9, 9, 9, 9, 9, 9, 9, 9, 9, 9, 9, 9, 9, 9, 9, 9, 9, 9, 9, 9, 9, 9, 9, 9, 9, 9, 9, 9, 9, 9, 9, 9, 9, 9, 9, 9, 9,
 10, 10, 10, 10, 10, 10, 10, 10, 10, 10, 10, 10, 10, 10, 10, 10, 10, 10, 10, 10, 10, 10, 10, 10, 10, 10, 10, 10, 10, 10, 10, 10, 10, 10, 10, 10, 10, 10, 10, 10, 10, 10, 10, 10, 10, 10, 10, 10, 10, 10, 10, 10, 10, 10, 11, 11, 11, 11, 11, 11, 11, 11, 11, 11, 11, 11, 11, 11, 11, 11, 11, 11, 11, 11, 11, 11, 11, 11, 11, 11, 11, 11, 11, 11, 11, 11, 11, 11, 11, 11, 11, 11, 11, 11, 11, 11, 11, 11, 11, 11, 11, 11, 11, 11, 11, 11, 11, 11, 11, 11, 11, 11, 11, 11, 12, 12, 12, 12, 12, 12, 12, 12, 12, 12, 12, 12, 12, 12, 12, 12, 12, 12, 12, 12, 12, 12, 12, 12, 12, 12, 12, 12, 12, 12, 12, 12, 12, 12, 12, 12, 12, 12, 12, 12, 12, 12, 12, 12, 12, 12, 12, 12, 12, 12, 12, 12, 12, 12, 12, 12, 12, 12, 12, 12, 12, 12, 12, 12, 12, 12, 12, 12, 12, 12, 12, 12, 12, 12, 12,
 13, 13, 13, 13, 13, 13, 13, 13, 13, 13, 13, 13, 13, 13, 13, 13, 13, 13, 13, 13, 13, 13, 13, 13, 13, 13, 13, 13, 13, 13, 13, 13, 13, 13, 13, 13, 13, 13, 13, 13, 13, 13, 13, 13, 13, 13, 13, 13, 13, 13, 13, 13, 13, 13, 14, 14, 14, 14, 14, 14, 14, 14, 14, 14, 14, 14, 14, 14, 14, 14, 14, 15, 15, 15, 15, 15, 15, 15, 15, 15, 15, 15,
 16, 16, 16, 16, 16, 16, 17, 17, 17, 17, 17, 17, 17, 17, 17, 17, 17, 17, 17, 17, 17, 17, 17, 17, 17, 17, 17, 17, 17, 17, 17, 17, 17, 17, 17, 17, 17, 17, 17, 17, 17, 17, 17, 17, 17, 17, 17, 17, 17, 17, 17, 17, 17, 17, 17, 17, 17, 17, 17, 17, 17, 17, 17, 17, 17, 17, 17, 17, 17, 17, 17, 17, 17, 17, 17, 17, 17, 17, 17, 17, 18, 18, 18, 18, 18, 18, 18, 18, 18, 18, 18, 18, 18, 18, 18, 18, 18, 18, 18, 18, 18, 18, 18, 18, 18, 18, 18, 18, 18, 18, 18, 18, 18, 18, 18, 18, 18, 18, 18, 18, 18, 18, 18, 18, 18, 18, 18, 18, 18, 18, 18, 18, 18, 18, 18, 18, 18, 18, 18, 18, 18, 18, 18, 18, 18, 18, 18, 18, 18, 18, 18, 18, 18, 18, 18, 18, 18, 18, 18, 18, 18, 18, 18, 18, 18, 18, 18, 18, 18, 18,
 19, 19, 19, 19, 19, 19, 19, 19, 19, 19, 19, 19, 19, 19, 19, 19, 19, 19, 19, 19, 19, 19, 19, 19, 19, 19, 19, 19, 19, 19, 19, 19, 19, 19, 19, 19, 19, 19, 19, 19, 19, 19, 19, 19, 19, 19, 19, 19, 19, 19, 19, 19, 19, 19, 19, 19, 19, 19, 19, 19, 19, 19, 19, 19, 19, 19, 19, 19, 19, 19, 19, 19, 19, 19, 19, 19, 19, 19, 19, 19, 19, 19, 19, 19, 19, 19, 19, 19, 19, 19, 19, 19, 19, 19, 19, 19, 19, 19, 19, 19, 19, 19, 19, 19, 19, 19, 19, 19, 19, 19, 19, 19, 19, 19, 19, 19, 19, 19, 19, 19, 19, 19, 19, 19, 19, 19, 19, 19, 19, 19, 19, 19, 19, 19, 19, 19, 19, 19, 19, 19, 19, 19, 19, 19, 19, 19, 19, 19, 19, 19, 19, 19, 19, 19, 19, 19, 19, 19, 19, 19, 19, 19, 19, 19, 19, 19, 19, 19, 19, 19, 19, 19, 19, 19, 19, 19, 19, 19, 19, 19, 19, 19, 19, 19, 19, 19, 19, 19, 19, 19, 19, 19, 19, 19, 19, 19, 19, 19, 19, 19, 19, 19, 19, 19, 19, 19, 19, 19, 19, 19, 19, 19, 19, 19, 19, 19, 19, 19, 19, 19, 19, 19, 19, 19, 19, 19, 19, 19, 19, 19, 19, 19, 19, 19, 19, 19, 19, 19, 19, 19, 19, 19, 19, 19, 19, 19, 19, 19, 19, 19, 19, 19, 19, 19, 19, 19, 19, 19, 19, 19, 19, 19, 19, 19, 19, 19, 19, 19, 19, 19, 19, 19, 19, 19, 19, 19, 19, 19, 19, 19, 19, 19, 19, 19, 19, 19, 19, 19, 19, 19, 19, 19, 19, 19, 19, 19, 19, 19, 19, 19, 19, 19, 19, 19, 19, 19, 19, 19, 19, 19, 19, 19, 19, 19, 19, 19, 19, 19, 19, 19, 19, 19, 19, 19, 19, 19, 19, 19, 19, 19, 19, 19, 19, 19, 19, 19, 19, 19, 19, 19, 19, 19, 19, 19, 19, 19, 19, 19, 19, 19, 19, 19, 19, 19, 19, 19, 19, 19, 19, 19, 19, 19, 19, 19, 19, 19, 19, 19, 19, 19, 19, 19, 19, 19, 19, 19, 19, 19, 19, 19, 19, 19, 19, 19, 19, 19, 19, 19, 19, 19, 19, 19, 19, 19, 19, 19, 19, 19, 19, 19, 19, 19, 19, 19, 19, 19, 19, 19, 19, 19, 19, 19, 19, 19, 19, 19, 19, 19, 19, 19, 19, 19, 19, 19, 19, 19, 19, 19, 19, 19, 19, 19, 19, 19, 19, 19, 19, 19, 19, 19, 19, 19, 19, 19, 19, 19, 19, 19, 19, 19, 19, 19, 19, 19, 19, 19, 19, 19, 19, 19, 19, 19, 19, 19, 19, 19, 19, 19, 19, 19, 19, 19, 19, 19, 19, 19, 19, 19, 19, 19, 19, 19, 19, 19, 19, 19, 19, 19, 19, 19, 19, 19, 19, 19, 19, 19, 19, 19, 19, 19, 19, 19, 19, 19, 19, 19, 19, 19, 19, 19, 19, 19, 19, 19, 19, 19, 19, 19, 19, 19, 19, 19, 19, 19, 19, 19, 19, 19, 19, 19, 19, 19, 19, 19, 19, 19, 19, 19, 19, 19, 19, 19, 19, 19, 19, 19, 19, 19, 19, 19, 19, 19, 19, 19, 19, 19, 20, 20, 0, 0, 0, 0, 0, 0, 0, 0, 0, 0, 0, 0, 0, 0,
 0, 0, 0, 0, 0, 0, 0, 0, 0, 0, 0, 0, 0, 0, 0, 0, 0, 0,
 0, 0, 0, 0, 0, 0, 0, 0, 0, 0, 0, 0, 0, 0, 0, 0, 0, 0,
 0, 0, 0, 0, 0, 0, 0, 0, 0, 0, 0, 0, 0, 0, 0, 0, 0, 0, 0, 0, 0, 0, 0, 0, 0, 0, 0, 0, 0, 0, 0, 0, 0, 0, 0, 0, 0, 0, 0, 0, 0, 0, 0, 0, 0, 0, 0, 0, 0, 0,
 0, 0, 0, 0, 0, 0, 0, 0, 0, 0, 0, 0, 0, 0, 0, 0, 0, 0, 0, 0, 0, 0, 0, 0, 0, 0, 0, 0, 0, 0, 0, 0, 0, 0, 0, 0, 0, 0, 0, 0, 0, 0, 0, 0,
 0, 0, 0, 0, 0, 0, 0, 0, 0, 0, 0, 0,
 0, 0, 0, 0, 0, 0,
 0, 0, 0, 0, 0, 0, 0, 0, 0, 0, 0, 0,
 0, 0, 0, 0, 0, 0,
 0, 0, 0, 0, 0, 0, 0, 0, 0, 0, 0, 0,
 0, 0, 0, 0, 0, 0, 0, 0, 0, 0, 0, 0, 0, 0, 0, 0, 0, 0, 0, 0, 0, 0, 0, 0, 0, 0, 0, 0, 0, 0, 0, 0, 0, 0, 0, 0, 0, 0, 0, 0, 0, 0, 0, 0, 0, 0, 0, 0, 0, 0, 0, 0, 0, 0, 0, 0, 0,
 0, 0, 0, 0, 0, 0, 0, 0, 0, 0, 0, 0, 0, 0, 0, 0, 0, 0, 0, 0, 0, 0, 0, 0, 0, 0, 0, 0, 0, 0, 0, 0, 0, 0, 0, 0, 0, 0, 0, 0, 0, 0, 0, 0, 0, 0, 0, 0, 0, 0, 0, 0, 0, 0, 0, 21, 21, 21, 21, 21, 21, 21, 21, 21, 21, 21, 21, 21, 21, 21, 21, 21, 21, 21, 21, 21, 21, 21, 21, 21, 21, 21, 21, 21, 21, 21, 21, 21, 21, 21, 21, 21, 21,
 0, 0, 0, 0, 0, 0, 0, 0, 0, 0, 0, 0, 0, 0, 0, 0, 0, 0, 0, 0, 0, 0, 0, 0, 0, 0, 0, 0, 0, 0, 0, 0, 0, 0, 0, 0, 0, 0, 0, 0, 0, 0, 0, 0, 0, 0, 0, 0, 0, 0, 0, 0,
 0, 0, 0, 0, 0, 0, 0, 0, 0, 0, 0, 0, 0, 0, 0, 0, 0, 0, 0, 0, 0, 0, 0, 0, 0, 0, 0, 0, 0, 0, 0, 0, 0, 0, 0, 0, 0, 0, 0, 0, 0, 0, 0, 0, 0, 0, 0, 0, 0, 0, 0, 0, 0, 0, 0, 0, 0, 0, 0, 0, 0, 0, 0, 0, 0, 0, 0, 0, 0, 0, 0, 0, 0, 0, 0, 0, 0, 0, 0, 0, 0, 0, 0, 0, 0, 0, 0,
 0, 0, 0, 0, 0, 0, 0, 0, 0, 0, 0, 0, 0, 0, 0, 0, 0, 0, 0, 0, 0, 0, 0, 0, 0, 0, 0, 0, 0, 0, 0, 0, 0, 0, 0, 0, 0, 0, 0, 0, 0, 0, 0, 0, 0, 0, 0, 0, 0, 0, 0, 0, 0, 0, 0, 0, 0, 0,
 0, 0, 0, 0, 0, 0, 0, 0, 0, 0, 0, 0, 0, 0, 0, 0, 0, 0, 0, 0, 0, 22, 22,
 0, 0, 0, 0, 0, 0, 0, 0, 0, 0, 0, 0, 0, 0, 0, 0, 0, 0, 0, 0, 0, 0, 0, 0, 0, 0, 0, 0, 0, 0, 0, 0, 0, 0, 0, 0, 0, 0, 0, 0,
 23, 23, 24, 24,
]
}
}
Separator {
MaterialBinding {
value PER_FACE_INDEXED
}
Material {
ambientColor [
 0.792157 0.819608 0.933333, 0.745098 0.745098 0.745098, 0.745098 0.745098 0.745098, 0.745098 0.745098 0.745098, 0.745098 0.745098 0.745098,
 0.745098 0.745098 0.745098
]
diffuseColor [
 0.792157 0.819608 0.933333, 0.745098 0.745098 0.745098, 0.745098 0.745098 0.745098, 0.745098 0.745098 0.745098, 0.745098 0.745098 0.745098,
 0.745098 0.745098 0.745098
]
emissiveColor [
 0.000000 0.000000 0.000000, 0.000000 0.000000 0.000000, 0.000000 0.000000 0.000000, 0.000000 0.000000 0.000000, 0.000000 0.000000 0.000000,
 0.000000 0.000000 0.000000
]
specularColor [
 0.396078 0.409804 0.466667, 0.745098 0.745098 0.745098, 0.745098 0.745098 0.745098, 0.745098 0.745098 0.745098, 0.745098 0.745098 0.745098,
 0.745098 0.745098 0.745098
]
shininess [
 0.400000, 0.312500, 0.312500, 0.312500, 0.312500, 0.312500
]
transparency [
 0.000000, 0.000000, 0.000000, 0.000000, 0.000000, 0.000000
]
}
Coordinate3 {
point [
 -0.001300 0.006001 0.001167, -0.001300 0.006001 0.002333, -0.001300 0.006469 0.001167, -0.001300 0.006469 0.002333, -0.000800 0.006469 0.001399,
 -0.000800 0.006469 0.001633, -0.000800 0.007168 0.001400, -0.000800 0.007168 0.001633, -0.000800 0.007272 0.001388, -0.000800 0.007305 0.001619,
 -0.000800 0.007371 0.001354, -0.000800 0.007436 0.001579, -0.000800 0.007459 0.001298, -0.000800 0.007533 0.001224, -0.000800 0.007557 0.001515,
 -0.000800 0.007589 0.001136, -0.000800 0.007624 0.001037, -0.000800 0.007635 0.000233, -0.000800 0.007635 0.000933, -0.000800 0.007663 0.001428,
 -0.000800 0.007750 0.001322, -0.000800 0.007815 0.001201, -0.000800 0.007855 0.001069, -0.000800 0.007868 0.000233, -0.000800 0.007868 0.000933,
 -0.000350 0.007635 -0.003062, -0.000350 0.007635 0.000233, -0.000350 0.007868 -0.003062, -0.000350 0.007868 0.000233, -0.000050 0.007635 -0.003562,
 -0.000050 0.007868 -0.003562, 0.000050 0.007635 -0.003562, 0.000050 0.007868 -0.003562, 0.000350 0.007635 -0.003062, 0.000350 0.007635 0.000233,
 0.000350 0.007868 -0.003062, 0.000350 0.007868 0.000233, 0.000800 0.006469 0.001399, 0.000800 0.006469 0.001633, 0.000800 0.007168 0.001400,
 0.000800 0.007168 0.001633, 0.000800 0.007272 0.001388, 0.000800 0.007305 0.001619, 0.000800 0.007371 0.001354, 0.000800 0.007436 0.001579,
 0.000800 0.007459 0.001298, 0.000800 0.007533 0.001224, 0.000800 0.007557 0.001515, 0.000800 0.007589 0.001136, 0.000800 0.007624 0.001037,
 0.000800 0.007635 0.000233, 0.000800 0.007635 0.000933, 0.000800 0.007663 0.001428, 0.000800 0.007750 0.001322, 0.000800 0.007815 0.001201,
 0.000800 0.007855 0.001069, 0.000800 0.007868 0.000233, 0.000800 0.007868 0.000933, 0.001300 0.006001 0.001167, 0.001300 0.006001 0.002333,
 0.001300 0.006469 0.001167, 0.001300 0.006469 0.002333
]
}
IndexedFaceSet {
coordIndex [
 32, 35, 31, -1, 31, 35, 33, -1, 36, 34, 35, -1,
 35, 34, 33, -1, 57, 56, 24, -1, 24, 56, 36, -1,
 23, 24, 28, -1, 28, 24, 36, -1, 28, 36, 27, -1,
 27, 36, 35, -1, 27, 35, 30, -1, 30, 35, 32, -1,
 29, 25, 30, -1, 30, 25, 27, -1, 26, 28, 25, -1,
 25, 28, 27, -1, 36, 56, 34, -1, 34, 56, 50, -1,
 23, 28, 17, -1, 17, 28, 26, -1, 50, 56, 51, -1,
 51, 56, 57, -1, 51, 57, 49, -1, 49, 57, 55, -1,
 49, 55, 48, -1, 48, 55, 54, -1, 48, 54, 46, -1,
 38, 37, 40, -1, 40, 37, 39, -1, 40, 39, 42, -1,
 42, 39, 41, -1, 42, 41, 44, -1, 44, 41, 43, -1,
 44, 43, 47, -1, 47, 43, 45, -1, 47, 45, 52, -1,
 52, 45, 46, -1, 52, 46, 53, -1, 53, 46, 54, -1,
 34, 50, 51, -1, 18, 17, 26, -1, 29, 31, 25, -1,
 25, 31, 33, -1, 25, 33, 26, -1, 26, 33, 34, -1,
 26, 34, 18, -1, 18, 34, 51, -1, 23, 17, 24, -1,
 24, 17, 18, -1, 24, 18, 22, -1, 22, 18, 16, -1,
 22, 16, 21, -1, 21, 16, 15, -1, 21, 15, 20, -1,
 20, 15, 13, -1, 20, 13, 19, -1, 19, 13, 12, -1,
 4, 5, 6, -1, 6, 5, 7, -1, 6, 7, 8, -1,
 8, 7, 9, -1, 8, 9, 10, -1, 10, 9, 11, -1,
 10, 11, 12, -1, 12, 11, 14, -1, 12, 14, 19, -1,
 1, 3, 0, -1, 0, 3, 2, -1, 58, 60, 59, -1,
 59, 60, 61, -1, 38, 40, 5, -1, 5, 40, 7, -1,
 7, 40, 42, -1, 7, 42, 9, -1, 9, 42, 44, -1,
 9, 44, 11, -1, 11, 44, 47, -1, 11, 47, 14, -1,
 14, 47, 52, -1, 14, 52, 19, -1, 19, 52, 53, -1,
 19, 53, 20, -1, 20, 53, 54, -1, 20, 54, 21, -1,
 21, 54, 55, -1, 21, 55, 22, -1, 22, 55, 57, -1,
 22, 57, 24, -1, 38, 61, 37, -1, 37, 61, 60, -1,
 37, 60, 4, -1, 4, 60, 2, -1, 4, 2, 5, -1,
 5, 2, 3, -1, 5, 3, 38, -1, 38, 3, 61, -1,
 59, 61, 1, -1, 1, 61, 3, -1, 29, 30, 31, -1,
 31, 30, 32, -1, 58, 59, 0, -1, 0, 59, 1, -1,
 60, 58, 2, -1, 2, 58, 0, -1, 18, 51, 16, -1,
 16, 51, 49, -1, 16, 49, 15, -1, 15, 49, 48, -1,
 15, 48, 13, -1, 13, 48, 46, -1, 13, 46, 12, -1,
 12, 46, 45, -1, 12, 45, 10, -1, 10, 45, 43, -1,
 10, 43, 8, -1, 8, 43, 41, -1, 8, 41, 6, -1,
 6, 41, 39, -1, 39, 37, 6, -1, 6, 37, 4, -1
]
materialIndex [
 0, 0, 0, 0, 0, 0, 0, 0, 0, 0, 0, 0,
 0, 0, 0, 0, 0, 0,
 0, 0, 0, 0, 0, 0, 0, 0, 0, 0, 0, 0, 0, 0, 0, 0, 0, 0, 0, 0, 0, 0, 0, 0, 0, 0, 0, 0, 0,
 0, 0, 0, 0, 0, 0, 0, 0, 0, 0, 0, 0, 0, 0, 0, 0, 0, 0, 0, 1, 1, 2, 2,
 0, 0, 0, 0, 0, 0, 0, 0, 0, 0, 0, 0, 0, 0, 0, 0, 0, 0, 3, 3, 3, 3, 3, 3, 3, 3,
 4, 4, 0, 0, 0, 0,
 5, 5, 0, 0, 0, 0, 0, 0, 0, 0, 0, 0, 0, 0, 0, 0, 0, 0,
]
}
}
Separator {
MaterialBinding {
value PER_FACE_INDEXED
}
Material {
ambientColor [
 0.792157 0.819608 0.933333, 0.745098 0.745098 0.745098, 0.745098 0.745098 0.745098, 0.745098 0.745098 0.745098, 0.745098 0.745098 0.745098,
 0.745098 0.745098 0.745098, 0.745098 0.745098 0.745098, 0.745098 0.745098 0.745098, 0.745098 0.745098 0.745098, 0.745098 0.745098 0.745098,
 0.745098 0.745098 0.745098
]
diffuseColor [
 0.792157 0.819608 0.933333, 0.745098 0.745098 0.745098, 0.745098 0.745098 0.745098, 0.745098 0.745098 0.745098, 0.745098 0.745098 0.745098,
 0.745098 0.745098 0.745098, 0.745098 0.745098 0.745098, 0.745098 0.745098 0.745098, 0.745098 0.745098 0.745098, 0.745098 0.745098 0.745098,
 0.745098 0.745098 0.745098
]
emissiveColor [
 0.000000 0.000000 0.000000, 0.000000 0.000000 0.000000, 0.000000 0.000000 0.000000, 0.000000 0.000000 0.000000, 0.000000 0.000000 0.000000,
 0.000000 0.000000 0.000000, 0.000000 0.000000 0.000000, 0.000000 0.000000 0.000000, 0.000000 0.000000 0.000000, 0.000000 0.000000 0.000000,
 0.000000 0.000000 0.000000
]
specularColor [
 0.396078 0.409804 0.466667, 0.745098 0.745098 0.745098, 0.745098 0.745098 0.745098, 0.745098 0.745098 0.745098, 0.745098 0.745098 0.745098,
 0.745098 0.745098 0.745098, 0.745098 0.745098 0.745098, 0.745098 0.745098 0.745098, 0.745098 0.745098 0.745098, 0.745098 0.745098 0.745098,
 0.745098 0.745098 0.745098
]
shininess [
 0.400000, 0.312500, 0.312500, 0.312500, 0.312500, 0.312500, 0.312500, 0.312500, 0.312500, 0.312500,
 0.312500
]
transparency [
 0.000000, 0.000000, 0.000000, 0.000000, 0.000000, 0.000000, 0.000000, 0.000000, 0.000000, 0.000000,
 0.000000
]
}
Coordinate3 {
point [
 0.001700 0.006469 0.001399, 0.001700 0.006469 0.001633, 0.001700 0.007168 0.001400, 0.001700 0.007168 0.001633, 0.001700 0.007272 0.001388,
 0.001700 0.007305 0.001619, 0.001700 0.007371 0.001354, 0.001700 0.007436 0.001579, 0.001700 0.007459 0.001298, 0.001700 0.007533 0.001224,
 0.001700 0.007557 0.001515, 0.001700 0.007589 0.001136, 0.001700 0.007624 0.001037, 0.001700 0.007635 0.000233, 0.001700 0.007635 0.000933,
 0.001700 0.007663 0.001428, 0.001700 0.007750 0.001322, 0.001700 0.007815 0.001201, 0.001700 0.007855 0.001069, 0.001700 0.007868 0.000233,
 0.001700 0.007868 0.000933, 0.001710 0.006001 0.001167, 0.001710 0.006001 0.002333, 0.001710 0.006469 0.001167, 0.001710 0.006469 0.001399,
 0.001710 0.006469 0.001633, 0.001710 0.006469 0.002333, 0.002150 0.007635 -0.003062, 0.002150 0.007635 0.000233, 0.002150 0.007868 -0.003062,
 0.002150 0.007868 0.000233, 0.002450 0.007635 -0.003562, 0.002450 0.007868 -0.003562, 0.002550 0.007635 -0.003562, 0.002550 0.007868 -0.003562,
 0.002850 0.007635 -0.003062, 0.002850 0.007635 0.000233, 0.002850 0.007868 -0.003062, 0.002850 0.007868 0.000233, 0.003300 0.006469 0.001399,
 0.003300 0.006469 0.001633, 0.003300 0.007168 0.001400, 0.003300 0.007168 0.001633, 0.003300 0.007272 0.001388, 0.003300 0.007305 0.001619,
 0.003300 0.007371 0.001354, 0.003300 0.007436 0.001579, 0.003300 0.007459 0.001298, 0.003300 0.007533 0.001224, 0.003300 0.007557 0.001515,
 0.003300 0.007589 0.001136, 0.003300 0.007624 0.001037, 0.003300 0.007635 0.000233, 0.003300 0.007635 0.000933, 0.003300 0.007663 0.001428,
 0.003300 0.007750 0.001322, 0.003300 0.007815 0.001201, 0.003300 0.007855 0.001069, 0.003300 0.007868 0.000233, 0.003300 0.007868 0.000933,
 0.004600 0.006001 0.001167, 0.004600 0.006001 0.002333, 0.004600 0.006469 0.001167, 0.004600 0.006469 0.002333
]
}
IndexedFaceSet {
coordIndex [
 25, 1, 24, -1, 24, 1, 0, -1, 21, 22, 26, -1,
 26, 25, 21, -1, 21, 25, 24, -1, 21, 24, 23, -1,
 0, 1, 2, -1, 2, 1, 3, -1, 2, 3, 4, -1,
 4, 3, 5, -1, 4, 5, 6, -1, 6, 5, 7, -1,
 6, 7, 8, -1, 19, 13, 20, -1, 20, 13, 14, -1,
 20, 14, 18, -1, 18, 14, 12, -1, 18, 12, 17, -1,
 17, 12, 11, -1, 17, 11, 16, -1, 16, 11, 9, -1,
 16, 9, 15, -1, 15, 9, 8, -1, 15, 8, 10, -1,
 10, 8, 7, -1, 23, 24, 39, -1, 25, 26, 40, -1,
 40, 26, 63, -1, 40, 63, 39, -1, 39, 63, 62, -1,
 39, 62, 23, -1, 31, 27, 32, -1, 32, 27, 29, -1,
 28, 30, 27, -1, 27, 30, 29, -1, 36, 52, 53, -1,
 14, 13, 28, -1, 31, 33, 27, -1, 27, 33, 35, -1,
 27, 35, 28, -1, 28, 35, 36, -1, 28, 36, 14, -1,
 14, 36, 53, -1, 34, 37, 33, -1, 33, 37, 35, -1,
 38, 36, 37, -1, 37, 36, 35, -1, 19, 30, 13, -1,
 13, 30, 28, -1, 38, 58, 36, -1, 36, 58, 52, -1,
 59, 58, 20, -1, 20, 58, 38, -1, 19, 20, 30, -1,
 30, 20, 38, -1, 30, 38, 29, -1, 29, 38, 37, -1,
 29, 37, 32, -1, 32, 37, 34, -1, 0, 2, 24, -1,
 24, 2, 41, -1, 24, 41, 39, -1, 14, 53, 12, -1,
 12, 53, 51, -1, 12, 51, 11, -1, 11, 51, 50, -1,
 11, 50, 9, -1, 9, 50, 48, -1, 9, 48, 8, -1,
 8, 48, 47, -1, 8, 47, 6, -1, 6, 47, 45, -1,
 6, 45, 4, -1, 4, 45, 43, -1, 4, 43, 2, -1,
 2, 43, 41, -1, 62, 60, 23, -1, 23, 60, 21, -1,
 60, 61, 21, -1, 21, 61, 22, -1, 34, 33, 32, -1,
 32, 33, 31, -1, 61, 63, 22, -1, 22, 63, 26, -1,
 3, 42, 44, -1, 3, 44, 5, -1, 5, 44, 46, -1,
 5, 46, 7, -1, 7, 46, 49, -1, 7, 49, 10, -1,
 10, 49, 54, -1, 10, 54, 15, -1, 15, 54, 55, -1,
 15, 55, 16, -1, 16, 55, 56, -1, 16, 56, 17, -1,
 17, 56, 57, -1, 17, 57, 18, -1, 18, 57, 59, -1,
 18, 59, 20, -1, 40, 42, 25, -1, 25, 42, 3, -1,
 25, 3, 1, -1, 52, 58, 53, -1, 53, 58, 59, -1,
 53, 59, 51, -1, 51, 59, 57, -1, 51, 57, 50, -1,
 50, 57, 56, -1, 50, 56, 48, -1, 40, 39, 42, -1,
 42, 39, 41, -1, 42, 41, 44, -1, 44, 41, 43, -1,
 44, 43, 46, -1, 46, 43, 45, -1, 46, 45, 49, -1,
 49, 45, 47, -1, 49, 47, 54, -1, 54, 47, 48, -1,
 54, 48, 55, -1, 55, 48, 56, -1, 63, 61, 62, -1,
 62, 61, 60, -1
]
materialIndex [
 1, 1, 2, 2, 2, 2, 0, 0, 0, 0, 0, 0, 0, 0, 0, 0, 0, 0, 0, 0, 0, 0, 0, 0, 0,
 3, 3, 3, 3, 3, 3, 4, 4, 0, 0,
 0, 0, 0, 0, 0, 0, 0, 0, 0, 0, 5, 5,
 0, 0, 6, 6, 7, 7, 7, 7, 7, 7, 7, 7,
 0, 0, 0, 0, 0, 0, 0, 0, 0, 0, 0, 0, 0, 0, 0, 0, 0, 8, 8,
 0, 0, 0, 0, 9, 9,
 0, 0, 0, 0, 0, 0, 0, 0, 0, 0, 0, 0, 0, 0, 0, 0, 0, 0, 0, 0, 0, 0, 0, 0, 0, 0, 0, 0, 0, 0, 0, 0, 0, 0, 0, 0, 0, 0,
 10, 10,
]
}
}
