ISO-10303-21;
HEADER;
FILE_DESCRIPTION(('FreeCAD Model'),'2;1');
FILE_NAME('Open CASCADE Shape Model','2026-10-06T12:53:26',(''),(''),
  'Open CASCADE STEP processor 7.8','FreeCAD','Unknown');
FILE_SCHEMA(('AUTOMOTIVE_DESIGN { 1 0 10303 214 1 1 1 1 }'));
ENDSEC;
DATA;
#1 = APPLICATION_PROTOCOL_DEFINITION('international standard',
  'automotive_design',2000,#2);
#2 = APPLICATION_CONTEXT(
  'core data for automotive mechanical design processes');
#3 = SHAPE_DEFINITION_REPRESENTATION(#4,#10);
#4 = PRODUCT_DEFINITION_SHAPE('','',#5);
#5 = PRODUCT_DEFINITION('design','',#6,#9);
#6 = PRODUCT_DEFINITION_FORMATION('','',#7);
#7 = PRODUCT('Body','Body','',(#8));
#8 = PRODUCT_CONTEXT('',#2,'mechanical');
#9 = PRODUCT_DEFINITION_CONTEXT('part definition',#2,'design');
#10 = ADVANCED_BREP_SHAPE_REPRESENTATION('',(#11,#15),#571);
#11 = AXIS2_PLACEMENT_3D('',#12,#13,#14);
#12 = CARTESIAN_POINT('',(0.,0.,0.));
#13 = DIRECTION('',(0.,0.,1.));
#14 = DIRECTION('',(1.,0.,-0.));
#15 = MANIFOLD_SOLID_BREP('',#16);
#16 = CLOSED_SHELL('',(#17,#57,#88,#119,#200,#251,#282,#306,#330,#354,
    #378,#402,#426,#457,#481,#505,#522,#534,#555));
#17 = ADVANCED_FACE('',(#18),#52,.F.);
#18 = FACE_BOUND('',#19,.F.);
#19 = EDGE_LOOP('',(#20,#30,#38,#46));
#20 = ORIENTED_EDGE('',*,*,#21,.T.);
#21 = EDGE_CURVE('',#22,#24,#26,.T.);
#22 = VERTEX_POINT('',#23);
#23 = CARTESIAN_POINT('',(0.,0.,0.));
#24 = VERTEX_POINT('',#25);
#25 = CARTESIAN_POINT('',(0.,0.,1.5));
#26 = LINE('',#27,#28);
#27 = CARTESIAN_POINT('',(0.,0.,0.));
#28 = VECTOR('',#29,1.);
#29 = DIRECTION('',(0.,0.,1.));
#30 = ORIENTED_EDGE('',*,*,#31,.T.);
#31 = EDGE_CURVE('',#24,#32,#34,.T.);
#32 = VERTEX_POINT('',#33);
#33 = CARTESIAN_POINT('',(0.,-64.6,1.5));
#34 = LINE('',#35,#36);
#35 = CARTESIAN_POINT('',(0.,0.,1.5));
#36 = VECTOR('',#37,1.);
#37 = DIRECTION('',(0.,-1.,0.));
#38 = ORIENTED_EDGE('',*,*,#39,.F.);
#39 = EDGE_CURVE('',#40,#32,#42,.T.);
#40 = VERTEX_POINT('',#41);
#41 = CARTESIAN_POINT('',(0.,-64.6,0.));
#42 = LINE('',#43,#44);
#43 = CARTESIAN_POINT('',(0.,-64.6,0.));
#44 = VECTOR('',#45,1.);
#45 = DIRECTION('',(0.,0.,1.));
#46 = ORIENTED_EDGE('',*,*,#47,.F.);
#47 = EDGE_CURVE('',#22,#40,#48,.T.);
#48 = LINE('',#49,#50);
#49 = CARTESIAN_POINT('',(0.,0.,0.));
#50 = VECTOR('',#51,1.);
#51 = DIRECTION('',(0.,-1.,0.));
#52 = PLANE('',#53);
#53 = AXIS2_PLACEMENT_3D('',#54,#55,#56);
#54 = CARTESIAN_POINT('',(0.,0.,0.));
#55 = DIRECTION('',(1.,0.,0.));
#56 = DIRECTION('',(0.,-1.,0.));
#57 = ADVANCED_FACE('',(#58),#83,.F.);
#58 = FACE_BOUND('',#59,.F.);
#59 = EDGE_LOOP('',(#60,#70,#76,#77));
#60 = ORIENTED_EDGE('',*,*,#61,.T.);
#61 = EDGE_CURVE('',#62,#64,#66,.T.);
#62 = VERTEX_POINT('',#63);
#63 = CARTESIAN_POINT('',(117.43,0.,0.));
#64 = VERTEX_POINT('',#65);
#65 = CARTESIAN_POINT('',(117.43,0.,1.5));
#66 = LINE('',#67,#68);
#67 = CARTESIAN_POINT('',(117.43,0.,0.));
#68 = VECTOR('',#69,1.);
#69 = DIRECTION('',(0.,0.,1.));
#70 = ORIENTED_EDGE('',*,*,#71,.T.);
#71 = EDGE_CURVE('',#64,#24,#72,.T.);
#72 = LINE('',#73,#74);
#73 = CARTESIAN_POINT('',(117.43,0.,1.5));
#74 = VECTOR('',#75,1.);
#75 = DIRECTION('',(-1.,0.,0.));
#76 = ORIENTED_EDGE('',*,*,#21,.F.);
#77 = ORIENTED_EDGE('',*,*,#78,.F.);
#78 = EDGE_CURVE('',#62,#22,#79,.T.);
#79 = LINE('',#80,#81);
#80 = CARTESIAN_POINT('',(117.43,0.,0.));
#81 = VECTOR('',#82,1.);
#82 = DIRECTION('',(-1.,0.,0.));
#83 = PLANE('',#84);
#84 = AXIS2_PLACEMENT_3D('',#85,#86,#87);
#85 = CARTESIAN_POINT('',(117.43,0.,0.));
#86 = DIRECTION('',(0.,-1.,0.));
#87 = DIRECTION('',(-1.,0.,0.));
#88 = ADVANCED_FACE('',(#89),#114,.F.);
#89 = FACE_BOUND('',#90,.F.);
#90 = EDGE_LOOP('',(#91,#92,#100,#108));
#91 = ORIENTED_EDGE('',*,*,#39,.T.);
#92 = ORIENTED_EDGE('',*,*,#93,.T.);
#93 = EDGE_CURVE('',#32,#94,#96,.T.);
#94 = VERTEX_POINT('',#95);
#95 = CARTESIAN_POINT('',(117.43,-64.6,1.5));
#96 = LINE('',#97,#98);
#97 = CARTESIAN_POINT('',(0.,-64.6,1.5));
#98 = VECTOR('',#99,1.);
#99 = DIRECTION('',(1.,0.,0.));
#100 = ORIENTED_EDGE('',*,*,#101,.F.);
#101 = EDGE_CURVE('',#102,#94,#104,.T.);
#102 = VERTEX_POINT('',#103);
#103 = CARTESIAN_POINT('',(117.43,-64.6,0.));
#104 = LINE('',#105,#106);
#105 = CARTESIAN_POINT('',(117.43,-64.6,0.));
#106 = VECTOR('',#107,1.);
#107 = DIRECTION('',(0.,0.,1.));
#108 = ORIENTED_EDGE('',*,*,#109,.F.);
#109 = EDGE_CURVE('',#40,#102,#110,.T.);
#110 = LINE('',#111,#112);
#111 = CARTESIAN_POINT('',(0.,-64.6,0.));
#112 = VECTOR('',#113,1.);
#113 = DIRECTION('',(1.,0.,0.));
#114 = PLANE('',#115);
#115 = AXIS2_PLACEMENT_3D('',#116,#117,#118);
#116 = CARTESIAN_POINT('',(0.,-64.6,0.));
#117 = DIRECTION('',(0.,1.,0.));
#118 = DIRECTION('',(1.,0.,0.));
#119 = ADVANCED_FACE('',(#120),#195,.F.);
#120 = FACE_BOUND('',#121,.F.);
#121 = EDGE_LOOP('',(#122,#123,#124,#125,#133,#141,#149,#157,#165,#173,
    #181,#189));
#122 = ORIENTED_EDGE('',*,*,#78,.T.);
#123 = ORIENTED_EDGE('',*,*,#47,.T.);
#124 = ORIENTED_EDGE('',*,*,#109,.T.);
#125 = ORIENTED_EDGE('',*,*,#126,.T.);
#126 = EDGE_CURVE('',#102,#127,#129,.T.);
#127 = VERTEX_POINT('',#128);
#128 = CARTESIAN_POINT('',(117.43,-58.9,0.));
#129 = LINE('',#130,#131);
#130 = CARTESIAN_POINT('',(117.43,-64.6,0.));
#131 = VECTOR('',#132,1.);
#132 = DIRECTION('',(0.,1.,0.));
#133 = ORIENTED_EDGE('',*,*,#134,.T.);
#134 = EDGE_CURVE('',#127,#135,#137,.T.);
#135 = VERTEX_POINT('',#136);
#136 = CARTESIAN_POINT('',(105.73,-58.9,0.));
#137 = LINE('',#138,#139);
#138 = CARTESIAN_POINT('',(117.43,-58.9,0.));
#139 = VECTOR('',#140,1.);
#140 = DIRECTION('',(-1.,0.,0.));
#141 = ORIENTED_EDGE('',*,*,#142,.T.);
#142 = EDGE_CURVE('',#135,#143,#145,.T.);
#143 = VERTEX_POINT('',#144);
#144 = CARTESIAN_POINT('',(105.73,-40.1,0.));
#145 = LINE('',#146,#147);
#146 = CARTESIAN_POINT('',(105.73,-58.9,0.));
#147 = VECTOR('',#148,1.);
#148 = DIRECTION('',(0.,1.,0.));
#149 = ORIENTED_EDGE('',*,*,#150,.T.);
#150 = EDGE_CURVE('',#143,#151,#153,.T.);
#151 = VERTEX_POINT('',#152);
#152 = CARTESIAN_POINT('',(36.26,-40.1,0.));
#153 = LINE('',#154,#155);
#154 = CARTESIAN_POINT('',(105.73,-40.1,0.));
#155 = VECTOR('',#156,1.);
#156 = DIRECTION('',(-1.,0.,0.));
#157 = ORIENTED_EDGE('',*,*,#158,.T.);
#158 = EDGE_CURVE('',#151,#159,#161,.T.);
#159 = VERTEX_POINT('',#160);
#160 = CARTESIAN_POINT('',(36.26,-24.5,0.));
#161 = LINE('',#162,#163);
#162 = CARTESIAN_POINT('',(36.26,-40.1,0.));
#163 = VECTOR('',#164,1.);
#164 = DIRECTION('',(0.,1.,0.));
#165 = ORIENTED_EDGE('',*,*,#166,.T.);
#166 = EDGE_CURVE('',#159,#167,#169,.T.);
#167 = VERTEX_POINT('',#168);
#168 = CARTESIAN_POINT('',(105.73,-24.5,0.));
#169 = LINE('',#170,#171);
#170 = CARTESIAN_POINT('',(36.26,-24.5,0.));
#171 = VECTOR('',#172,1.);
#172 = DIRECTION('',(1.,0.,0.));
#173 = ORIENTED_EDGE('',*,*,#174,.T.);
#174 = EDGE_CURVE('',#167,#175,#177,.T.);
#175 = VERTEX_POINT('',#176);
#176 = CARTESIAN_POINT('',(105.73,-8.9,0.));
#177 = LINE('',#178,#179);
#178 = CARTESIAN_POINT('',(105.73,-58.9,0.));
#179 = VECTOR('',#180,1.);
#180 = DIRECTION('',(0.,1.,0.));
#181 = ORIENTED_EDGE('',*,*,#182,.T.);
#182 = EDGE_CURVE('',#175,#183,#185,.T.);
#183 = VERTEX_POINT('',#184);
#184 = CARTESIAN_POINT('',(117.43,-8.9,0.));
#185 = LINE('',#186,#187);
#186 = CARTESIAN_POINT('',(105.73,-8.9,0.));
#187 = VECTOR('',#188,1.);
#188 = DIRECTION('',(1.,0.,0.));
#189 = ORIENTED_EDGE('',*,*,#190,.T.);
#190 = EDGE_CURVE('',#183,#62,#191,.T.);
#191 = LINE('',#192,#193);
#192 = CARTESIAN_POINT('',(117.43,-64.6,0.));
#193 = VECTOR('',#194,1.);
#194 = DIRECTION('',(0.,1.,0.));
#195 = PLANE('',#196);
#196 = AXIS2_PLACEMENT_3D('',#197,#198,#199);
#197 = CARTESIAN_POINT('',(58.715,-32.3,0.));
#198 = DIRECTION('',(0.,0.,1.));
#199 = DIRECTION('',(1.,0.,0.));
#200 = ADVANCED_FACE('',(#201,#212),#246,.T.);
#201 = FACE_BOUND('',#202,.T.);
#202 = EDGE_LOOP('',(#203,#204,#205,#211));
#203 = ORIENTED_EDGE('',*,*,#31,.T.);
#204 = ORIENTED_EDGE('',*,*,#93,.T.);
#205 = ORIENTED_EDGE('',*,*,#206,.T.);
#206 = EDGE_CURVE('',#94,#64,#207,.T.);
#207 = LINE('',#208,#209);
#208 = CARTESIAN_POINT('',(117.43,-64.6,1.5));
#209 = VECTOR('',#210,1.);
#210 = DIRECTION('',(0.,1.,0.));
#211 = ORIENTED_EDGE('',*,*,#71,.T.);
#212 = FACE_BOUND('',#213,.T.);
#213 = EDGE_LOOP('',(#214,#224,#232,#240));
#214 = ORIENTED_EDGE('',*,*,#215,.F.);
#215 = EDGE_CURVE('',#216,#218,#220,.T.);
#216 = VERTEX_POINT('',#217);
#217 = CARTESIAN_POINT('',(1.1,-1.41,1.5));
#218 = VERTEX_POINT('',#219);
#219 = CARTESIAN_POINT('',(1.1,-63.19,1.5));
#220 = LINE('',#221,#222);
#221 = CARTESIAN_POINT('',(1.1,-1.41,1.5));
#222 = VECTOR('',#223,1.);
#223 = DIRECTION('',(0.,-1.,0.));
#224 = ORIENTED_EDGE('',*,*,#225,.F.);
#225 = EDGE_CURVE('',#226,#216,#228,.T.);
#226 = VERTEX_POINT('',#227);
#227 = CARTESIAN_POINT('',(110.92,-1.41,1.5));
#228 = LINE('',#229,#230);
#229 = CARTESIAN_POINT('',(110.92,-1.41,1.5));
#230 = VECTOR('',#231,1.);
#231 = DIRECTION('',(-1.,0.,0.));
#232 = ORIENTED_EDGE('',*,*,#233,.F.);
#233 = EDGE_CURVE('',#234,#226,#236,.T.);
#234 = VERTEX_POINT('',#235);
#235 = CARTESIAN_POINT('',(110.92,-63.19,1.5));
#236 = LINE('',#237,#238);
#237 = CARTESIAN_POINT('',(110.92,-63.19,1.5));
#238 = VECTOR('',#239,1.);
#239 = DIRECTION('',(0.,1.,0.));
#240 = ORIENTED_EDGE('',*,*,#241,.F.);
#241 = EDGE_CURVE('',#218,#234,#242,.T.);
#242 = LINE('',#243,#244);
#243 = CARTESIAN_POINT('',(1.1,-63.19,1.5));
#244 = VECTOR('',#245,1.);
#245 = DIRECTION('',(1.,0.,0.));
#246 = PLANE('',#247);
#247 = AXIS2_PLACEMENT_3D('',#248,#249,#250);
#248 = CARTESIAN_POINT('',(58.715,-32.3,1.5));
#249 = DIRECTION('',(0.,0.,1.));
#250 = DIRECTION('',(1.,0.,0.));
#251 = ADVANCED_FACE('',(#252),#277,.F.);
#252 = FACE_BOUND('',#253,.F.);
#253 = EDGE_LOOP('',(#254,#262,#270,#276));
#254 = ORIENTED_EDGE('',*,*,#255,.T.);
#255 = EDGE_CURVE('',#175,#256,#258,.T.);
#256 = VERTEX_POINT('',#257);
#257 = CARTESIAN_POINT('',(105.73,-8.9,-0.3));
#258 = LINE('',#259,#260);
#259 = CARTESIAN_POINT('',(105.73,-8.9,0.));
#260 = VECTOR('',#261,1.);
#261 = DIRECTION('',(0.,0.,-1.));
#262 = ORIENTED_EDGE('',*,*,#263,.T.);
#263 = EDGE_CURVE('',#256,#264,#266,.T.);
#264 = VERTEX_POINT('',#265);
#265 = CARTESIAN_POINT('',(117.43,-8.9,-0.3));
#266 = LINE('',#267,#268);
#267 = CARTESIAN_POINT('',(105.73,-8.9,-0.3));
#268 = VECTOR('',#269,1.);
#269 = DIRECTION('',(1.,0.,0.));
#270 = ORIENTED_EDGE('',*,*,#271,.F.);
#271 = EDGE_CURVE('',#183,#264,#272,.T.);
#272 = LINE('',#273,#274);
#273 = CARTESIAN_POINT('',(117.43,-8.9,0.));
#274 = VECTOR('',#275,1.);
#275 = DIRECTION('',(0.,0.,-1.));
#276 = ORIENTED_EDGE('',*,*,#182,.F.);
#277 = PLANE('',#278);
#278 = AXIS2_PLACEMENT_3D('',#279,#280,#281);
#279 = CARTESIAN_POINT('',(105.73,-8.9,0.));
#280 = DIRECTION('',(0.,-1.,0.));
#281 = DIRECTION('',(1.,0.,0.));
#282 = ADVANCED_FACE('',(#283),#301,.F.);
#283 = FACE_BOUND('',#284,.F.);
#284 = EDGE_LOOP('',(#285,#286,#294,#300));
#285 = ORIENTED_EDGE('',*,*,#174,.F.);
#286 = ORIENTED_EDGE('',*,*,#287,.T.);
#287 = EDGE_CURVE('',#167,#288,#290,.T.);
#288 = VERTEX_POINT('',#289);
#289 = CARTESIAN_POINT('',(105.73,-24.5,-0.3));
#290 = LINE('',#291,#292);
#291 = CARTESIAN_POINT('',(105.73,-24.5,0.));
#292 = VECTOR('',#293,1.);
#293 = DIRECTION('',(0.,0.,-1.));
#294 = ORIENTED_EDGE('',*,*,#295,.T.);
#295 = EDGE_CURVE('',#288,#256,#296,.T.);
#296 = LINE('',#297,#298);
#297 = CARTESIAN_POINT('',(105.73,-58.9,-0.3));
#298 = VECTOR('',#299,1.);
#299 = DIRECTION('',(0.,1.,0.));
#300 = ORIENTED_EDGE('',*,*,#255,.F.);
#301 = PLANE('',#302);
#302 = AXIS2_PLACEMENT_3D('',#303,#304,#305);
#303 = CARTESIAN_POINT('',(105.73,-58.9,0.));
#304 = DIRECTION('',(1.,0.,0.));
#305 = DIRECTION('',(0.,1.,0.));
#306 = ADVANCED_FACE('',(#307),#325,.F.);
#307 = FACE_BOUND('',#308,.F.);
#308 = EDGE_LOOP('',(#309,#317,#323,#324));
#309 = ORIENTED_EDGE('',*,*,#310,.T.);
#310 = EDGE_CURVE('',#159,#311,#313,.T.);
#311 = VERTEX_POINT('',#312);
#312 = CARTESIAN_POINT('',(36.26,-24.5,-0.3));
#313 = LINE('',#314,#315);
#314 = CARTESIAN_POINT('',(36.26,-24.5,0.));
#315 = VECTOR('',#316,1.);
#316 = DIRECTION('',(0.,0.,-1.));
#317 = ORIENTED_EDGE('',*,*,#318,.T.);
#318 = EDGE_CURVE('',#311,#288,#319,.T.);
#319 = LINE('',#320,#321);
#320 = CARTESIAN_POINT('',(36.26,-24.5,-0.3));
#321 = VECTOR('',#322,1.);
#322 = DIRECTION('',(1.,0.,0.));
#323 = ORIENTED_EDGE('',*,*,#287,.F.);
#324 = ORIENTED_EDGE('',*,*,#166,.F.);
#325 = PLANE('',#326);
#326 = AXIS2_PLACEMENT_3D('',#327,#328,#329);
#327 = CARTESIAN_POINT('',(36.26,-24.5,0.));
#328 = DIRECTION('',(0.,-1.,0.));
#329 = DIRECTION('',(1.,0.,0.));
#330 = ADVANCED_FACE('',(#331),#349,.F.);
#331 = FACE_BOUND('',#332,.F.);
#332 = EDGE_LOOP('',(#333,#341,#347,#348));
#333 = ORIENTED_EDGE('',*,*,#334,.T.);
#334 = EDGE_CURVE('',#151,#335,#337,.T.);
#335 = VERTEX_POINT('',#336);
#336 = CARTESIAN_POINT('',(36.26,-40.1,-0.3));
#337 = LINE('',#338,#339);
#338 = CARTESIAN_POINT('',(36.26,-40.1,0.));
#339 = VECTOR('',#340,1.);
#340 = DIRECTION('',(0.,0.,-1.));
#341 = ORIENTED_EDGE('',*,*,#342,.T.);
#342 = EDGE_CURVE('',#335,#311,#343,.T.);
#343 = LINE('',#344,#345);
#344 = CARTESIAN_POINT('',(36.26,-40.1,-0.3));
#345 = VECTOR('',#346,1.);
#346 = DIRECTION('',(0.,1.,0.));
#347 = ORIENTED_EDGE('',*,*,#310,.F.);
#348 = ORIENTED_EDGE('',*,*,#158,.F.);
#349 = PLANE('',#350);
#350 = AXIS2_PLACEMENT_3D('',#351,#352,#353);
#351 = CARTESIAN_POINT('',(36.26,-40.1,0.));
#352 = DIRECTION('',(1.,0.,0.));
#353 = DIRECTION('',(0.,1.,0.));
#354 = ADVANCED_FACE('',(#355),#373,.F.);
#355 = FACE_BOUND('',#356,.F.);
#356 = EDGE_LOOP('',(#357,#365,#371,#372));
#357 = ORIENTED_EDGE('',*,*,#358,.T.);
#358 = EDGE_CURVE('',#143,#359,#361,.T.);
#359 = VERTEX_POINT('',#360);
#360 = CARTESIAN_POINT('',(105.73,-40.1,-0.3));
#361 = LINE('',#362,#363);
#362 = CARTESIAN_POINT('',(105.73,-40.1,0.));
#363 = VECTOR('',#364,1.);
#364 = DIRECTION('',(0.,0.,-1.));
#365 = ORIENTED_EDGE('',*,*,#366,.T.);
#366 = EDGE_CURVE('',#359,#335,#367,.T.);
#367 = LINE('',#368,#369);
#368 = CARTESIAN_POINT('',(105.73,-40.1,-0.3));
#369 = VECTOR('',#370,1.);
#370 = DIRECTION('',(-1.,0.,0.));
#371 = ORIENTED_EDGE('',*,*,#334,.F.);
#372 = ORIENTED_EDGE('',*,*,#150,.F.);
#373 = PLANE('',#374);
#374 = AXIS2_PLACEMENT_3D('',#375,#376,#377);
#375 = CARTESIAN_POINT('',(105.73,-40.1,0.));
#376 = DIRECTION('',(0.,1.,0.));
#377 = DIRECTION('',(-1.,0.,0.));
#378 = ADVANCED_FACE('',(#379),#397,.F.);
#379 = FACE_BOUND('',#380,.F.);
#380 = EDGE_LOOP('',(#381,#382,#390,#396));
#381 = ORIENTED_EDGE('',*,*,#142,.F.);
#382 = ORIENTED_EDGE('',*,*,#383,.T.);
#383 = EDGE_CURVE('',#135,#384,#386,.T.);
#384 = VERTEX_POINT('',#385);
#385 = CARTESIAN_POINT('',(105.73,-58.9,-0.3));
#386 = LINE('',#387,#388);
#387 = CARTESIAN_POINT('',(105.73,-58.9,0.));
#388 = VECTOR('',#389,1.);
#389 = DIRECTION('',(0.,0.,-1.));
#390 = ORIENTED_EDGE('',*,*,#391,.T.);
#391 = EDGE_CURVE('',#384,#359,#392,.T.);
#392 = LINE('',#393,#394);
#393 = CARTESIAN_POINT('',(105.73,-58.9,-0.3));
#394 = VECTOR('',#395,1.);
#395 = DIRECTION('',(0.,1.,0.));
#396 = ORIENTED_EDGE('',*,*,#358,.F.);
#397 = PLANE('',#398);
#398 = AXIS2_PLACEMENT_3D('',#399,#400,#401);
#399 = CARTESIAN_POINT('',(105.73,-58.9,0.));
#400 = DIRECTION('',(1.,0.,0.));
#401 = DIRECTION('',(0.,1.,0.));
#402 = ADVANCED_FACE('',(#403),#421,.F.);
#403 = FACE_BOUND('',#404,.F.);
#404 = EDGE_LOOP('',(#405,#413,#419,#420));
#405 = ORIENTED_EDGE('',*,*,#406,.T.);
#406 = EDGE_CURVE('',#127,#407,#409,.T.);
#407 = VERTEX_POINT('',#408);
#408 = CARTESIAN_POINT('',(117.43,-58.9,-0.3));
#409 = LINE('',#410,#411);
#410 = CARTESIAN_POINT('',(117.43,-58.9,0.));
#411 = VECTOR('',#412,1.);
#412 = DIRECTION('',(0.,0.,-1.));
#413 = ORIENTED_EDGE('',*,*,#414,.T.);
#414 = EDGE_CURVE('',#407,#384,#415,.T.);
#415 = LINE('',#416,#417);
#416 = CARTESIAN_POINT('',(117.43,-58.9,-0.3));
#417 = VECTOR('',#418,1.);
#418 = DIRECTION('',(-1.,0.,0.));
#419 = ORIENTED_EDGE('',*,*,#383,.F.);
#420 = ORIENTED_EDGE('',*,*,#134,.F.);
#421 = PLANE('',#422);
#422 = AXIS2_PLACEMENT_3D('',#423,#424,#425);
#423 = CARTESIAN_POINT('',(117.43,-58.9,0.));
#424 = DIRECTION('',(0.,1.,0.));
#425 = DIRECTION('',(-1.,0.,0.));
#426 = ADVANCED_FACE('',(#427),#452,.F.);
#427 = FACE_BOUND('',#428,.F.);
#428 = EDGE_LOOP('',(#429,#437,#445,#451));
#429 = ORIENTED_EDGE('',*,*,#430,.T.);
#430 = EDGE_CURVE('',#216,#431,#433,.T.);
#431 = VERTEX_POINT('',#432);
#432 = CARTESIAN_POINT('',(1.1,-1.41,1.56));
#433 = LINE('',#434,#435);
#434 = CARTESIAN_POINT('',(1.1,-1.41,1.5));
#435 = VECTOR('',#436,1.);
#436 = DIRECTION('',(0.,0.,1.));
#437 = ORIENTED_EDGE('',*,*,#438,.T.);
#438 = EDGE_CURVE('',#431,#439,#441,.T.);
#439 = VERTEX_POINT('',#440);
#440 = CARTESIAN_POINT('',(1.1,-63.19,1.56));
#441 = LINE('',#442,#443);
#442 = CARTESIAN_POINT('',(1.1,-1.41,1.56));
#443 = VECTOR('',#444,1.);
#444 = DIRECTION('',(0.,-1.,0.));
#445 = ORIENTED_EDGE('',*,*,#446,.F.);
#446 = EDGE_CURVE('',#218,#439,#447,.T.);
#447 = LINE('',#448,#449);
#448 = CARTESIAN_POINT('',(1.1,-63.19,1.5));
#449 = VECTOR('',#450,1.);
#450 = DIRECTION('',(0.,0.,1.));
#451 = ORIENTED_EDGE('',*,*,#215,.F.);
#452 = PLANE('',#453);
#453 = AXIS2_PLACEMENT_3D('',#454,#455,#456);
#454 = CARTESIAN_POINT('',(1.1,-1.41,1.5));
#455 = DIRECTION('',(1.,0.,0.));
#456 = DIRECTION('',(0.,-1.,0.));
#457 = ADVANCED_FACE('',(#458),#476,.F.);
#458 = FACE_BOUND('',#459,.F.);
#459 = EDGE_LOOP('',(#460,#461,#469,#475));
#460 = ORIENTED_EDGE('',*,*,#446,.T.);
#461 = ORIENTED_EDGE('',*,*,#462,.T.);
#462 = EDGE_CURVE('',#439,#463,#465,.T.);
#463 = VERTEX_POINT('',#464);
#464 = CARTESIAN_POINT('',(110.92,-63.19,1.56));
#465 = LINE('',#466,#467);
#466 = CARTESIAN_POINT('',(1.1,-63.19,1.56));
#467 = VECTOR('',#468,1.);
#468 = DIRECTION('',(1.,0.,0.));
#469 = ORIENTED_EDGE('',*,*,#470,.F.);
#470 = EDGE_CURVE('',#234,#463,#471,.T.);
#471 = LINE('',#472,#473);
#472 = CARTESIAN_POINT('',(110.92,-63.19,1.5));
#473 = VECTOR('',#474,1.);
#474 = DIRECTION('',(0.,0.,1.));
#475 = ORIENTED_EDGE('',*,*,#241,.F.);
#476 = PLANE('',#477);
#477 = AXIS2_PLACEMENT_3D('',#478,#479,#480);
#478 = CARTESIAN_POINT('',(1.1,-63.19,1.5));
#479 = DIRECTION('',(0.,1.,0.));
#480 = DIRECTION('',(1.,0.,0.));
#481 = ADVANCED_FACE('',(#482),#500,.F.);
#482 = FACE_BOUND('',#483,.F.);
#483 = EDGE_LOOP('',(#484,#485,#493,#499));
#484 = ORIENTED_EDGE('',*,*,#470,.T.);
#485 = ORIENTED_EDGE('',*,*,#486,.T.);
#486 = EDGE_CURVE('',#463,#487,#489,.T.);
#487 = VERTEX_POINT('',#488);
#488 = CARTESIAN_POINT('',(110.92,-1.41,1.56));
#489 = LINE('',#490,#491);
#490 = CARTESIAN_POINT('',(110.92,-63.19,1.56));
#491 = VECTOR('',#492,1.);
#492 = DIRECTION('',(0.,1.,0.));
#493 = ORIENTED_EDGE('',*,*,#494,.F.);
#494 = EDGE_CURVE('',#226,#487,#495,.T.);
#495 = LINE('',#496,#497);
#496 = CARTESIAN_POINT('',(110.92,-1.41,1.5));
#497 = VECTOR('',#498,1.);
#498 = DIRECTION('',(0.,0.,1.));
#499 = ORIENTED_EDGE('',*,*,#233,.F.);
#500 = PLANE('',#501);
#501 = AXIS2_PLACEMENT_3D('',#502,#503,#504);
#502 = CARTESIAN_POINT('',(110.92,-63.19,1.5));
#503 = DIRECTION('',(-1.,0.,0.));
#504 = DIRECTION('',(0.,1.,0.));
#505 = ADVANCED_FACE('',(#506),#517,.F.);
#506 = FACE_BOUND('',#507,.F.);
#507 = EDGE_LOOP('',(#508,#509,#515,#516));
#508 = ORIENTED_EDGE('',*,*,#494,.T.);
#509 = ORIENTED_EDGE('',*,*,#510,.T.);
#510 = EDGE_CURVE('',#487,#431,#511,.T.);
#511 = LINE('',#512,#513);
#512 = CARTESIAN_POINT('',(110.92,-1.41,1.56));
#513 = VECTOR('',#514,1.);
#514 = DIRECTION('',(-1.,0.,0.));
#515 = ORIENTED_EDGE('',*,*,#430,.F.);
#516 = ORIENTED_EDGE('',*,*,#225,.F.);
#517 = PLANE('',#518);
#518 = AXIS2_PLACEMENT_3D('',#519,#520,#521);
#519 = CARTESIAN_POINT('',(110.92,-1.41,1.5));
#520 = DIRECTION('',(0.,-1.,0.));
#521 = DIRECTION('',(-1.,0.,0.));
#522 = ADVANCED_FACE('',(#523),#529,.T.);
#523 = FACE_BOUND('',#524,.T.);
#524 = EDGE_LOOP('',(#525,#526,#527,#528));
#525 = ORIENTED_EDGE('',*,*,#438,.T.);
#526 = ORIENTED_EDGE('',*,*,#462,.T.);
#527 = ORIENTED_EDGE('',*,*,#486,.T.);
#528 = ORIENTED_EDGE('',*,*,#510,.T.);
#529 = PLANE('',#530);
#530 = AXIS2_PLACEMENT_3D('',#531,#532,#533);
#531 = CARTESIAN_POINT('',(56.01,-32.3,1.56));
#532 = DIRECTION('',(0.,0.,1.));
#533 = DIRECTION('',(1.,0.,0.));
#534 = ADVANCED_FACE('',(#535),#550,.T.);
#535 = FACE_BOUND('',#536,.T.);
#536 = EDGE_LOOP('',(#537,#538,#539,#540,#546,#547,#548,#549));
#537 = ORIENTED_EDGE('',*,*,#101,.F.);
#538 = ORIENTED_EDGE('',*,*,#126,.T.);
#539 = ORIENTED_EDGE('',*,*,#406,.T.);
#540 = ORIENTED_EDGE('',*,*,#541,.F.);
#541 = EDGE_CURVE('',#264,#407,#542,.T.);
#542 = LINE('',#543,#544);
#543 = CARTESIAN_POINT('',(117.43,-8.9,-0.3));
#544 = VECTOR('',#545,1.);
#545 = DIRECTION('',(0.,-1.,0.));
#546 = ORIENTED_EDGE('',*,*,#271,.F.);
#547 = ORIENTED_EDGE('',*,*,#190,.T.);
#548 = ORIENTED_EDGE('',*,*,#61,.T.);
#549 = ORIENTED_EDGE('',*,*,#206,.F.);
#550 = PLANE('',#551);
#551 = AXIS2_PLACEMENT_3D('',#552,#553,#554);
#552 = CARTESIAN_POINT('',(117.43,-32.30722891566,0.632981927711));
#553 = DIRECTION('',(1.,0.,0.));
#554 = DIRECTION('',(0.,0.,1.));
#555 = ADVANCED_FACE('',(#556),#566,.T.);
#556 = FACE_BOUND('',#557,.T.);
#557 = EDGE_LOOP('',(#558,#559,#560,#561,#562,#563,#564,#565));
#558 = ORIENTED_EDGE('',*,*,#414,.T.);
#559 = ORIENTED_EDGE('',*,*,#391,.T.);
#560 = ORIENTED_EDGE('',*,*,#366,.T.);
#561 = ORIENTED_EDGE('',*,*,#342,.T.);
#562 = ORIENTED_EDGE('',*,*,#318,.T.);
#563 = ORIENTED_EDGE('',*,*,#295,.T.);
#564 = ORIENTED_EDGE('',*,*,#263,.T.);
#565 = ORIENTED_EDGE('',*,*,#541,.T.);
#566 = PLANE('',#567);
#567 = AXIS2_PLACEMENT_3D('',#568,#569,#570);
#568 = CARTESIAN_POINT('',(85.954430510025,-33.05261111534,-0.3));
#569 = DIRECTION('',(-0.,-0.,-1.));
#570 = DIRECTION('',(-1.,0.,0.));
#571 = ( GEOMETRIC_REPRESENTATION_CONTEXT(3) 
GLOBAL_UNCERTAINTY_ASSIGNED_CONTEXT((#575)) GLOBAL_UNIT_ASSIGNED_CONTEXT
((#572,#573,#574)) REPRESENTATION_CONTEXT('Context #1',
  '3D Context with UNIT and UNCERTAINTY') );
#572 = ( LENGTH_UNIT() NAMED_UNIT(*) SI_UNIT(.MILLI.,.METRE.) );
#573 = ( NAMED_UNIT(*) PLANE_ANGLE_UNIT() SI_UNIT($,.RADIAN.) );
#574 = ( NAMED_UNIT(*) SI_UNIT($,.STERADIAN.) SOLID_ANGLE_UNIT() );
#575 = UNCERTAINTY_MEASURE_WITH_UNIT(LENGTH_MEASURE(1.E-07),#572,
  'distance_accuracy_value','confusion accuracy');
#576 = PRODUCT_RELATED_PRODUCT_CATEGORY('part',$,(#7));
#577 = MECHANICAL_DESIGN_GEOMETRIC_PRESENTATION_REPRESENTATION('',(#578,
    #589,#597,#605),#571);
#578 = STYLED_ITEM('color',(#579),#15);
#579 = PRESENTATION_STYLE_ASSIGNMENT((#580,#586));
#580 = SURFACE_STYLE_USAGE(.BOTH.,#581);
#581 = SURFACE_SIDE_STYLE('',(#582));
#582 = SURFACE_STYLE_FILL_AREA(#583);
#583 = FILL_AREA_STYLE('',(#584));
#584 = FILL_AREA_STYLE_COLOUR('',#585);
#585 = COLOUR_RGB('',0.678431390124,0.709803936702,0.741176476869);
#586 = CURVE_STYLE('',#587,POSITIVE_LENGTH_MEASURE(0.1),#588);
#587 = DRAUGHTING_PRE_DEFINED_CURVE_FONT('continuous');
#588 = COLOUR_RGB('',9.803921802644E-02,9.803921802644E-02,
  9.803921802644E-02);
#589 = OVER_RIDING_STYLED_ITEM('overriding color',(#590),#378,#578);
#590 = PRESENTATION_STYLE_ASSIGNMENT((#591));
#591 = SURFACE_STYLE_USAGE(.BOTH.,#592);
#592 = SURFACE_SIDE_STYLE('',(#593));
#593 = SURFACE_STYLE_FILL_AREA(#594);
#594 = FILL_AREA_STYLE('',(#595));
#595 = FILL_AREA_STYLE_COLOUR('',#596);
#596 = COLOUR_RGB('',0.26611733232,0.267017632342,0.292942704263);
#597 = OVER_RIDING_STYLED_ITEM('overriding color',(#598),#522,#578);
#598 = PRESENTATION_STYLE_ASSIGNMENT((#599));
#599 = SURFACE_STYLE_USAGE(.BOTH.,#600);
#600 = SURFACE_SIDE_STYLE('',(#601));
#601 = SURFACE_STYLE_FILL_AREA(#602);
#602 = FILL_AREA_STYLE('',(#603));
#603 = FILL_AREA_STYLE_COLOUR('',#604);
#604 = COLOUR_RGB('',0.216266106617,0.216983291771,0.238071265824);
#605 = OVER_RIDING_STYLED_ITEM('overriding color',(#606),#555,#578);
#606 = PRESENTATION_STYLE_ASSIGNMENT((#607));
#607 = SURFACE_STYLE_USAGE(.BOTH.,#608);
#608 = SURFACE_SIDE_STYLE('',(#609));
#609 = SURFACE_STYLE_FILL_AREA(#610);
#610 = FILL_AREA_STYLE('',(#611));
#611 = FILL_AREA_STYLE_COLOUR('',#612);
#612 = COLOUR_RGB('',0.682749692544,0.616311902507,0.316151674145);
ENDSEC;
END-ISO-10303-21;
