ISO-10303-21;
HEADER;
FILE_DESCRIPTION( ( 'Unknown' ), '1' );
FILE_NAME( 'I:/User_Groups_Only/17_EMC_Product_&_Development/Article_Master/eiCan/Assembly/As_SSTII/Master_Data/01_CAD_drawing/1_Drawing/970xxx321/970150321/Released_Data/970150321.stp', 'Unknown', ( 'Unknown' ), ( 'Unknown' ), 'PSStep 19.0.9', 'Unknown', '  ' );
FILE_SCHEMA( ( 'AUTOMOTIVE_DESIGN { 1 0 10303 214 1 1 1 1 }' ) );
ENDSEC;
DATA;
#1 = MECHANICAL_DESIGN_GEOMETRIC_PRESENTATION_REPRESENTATION( ' ', ( #10, #11, #12, #13, #14, #15, #16, #17, #18, #19, #20, #21, #22, #23, #24, #25, #26, #27, #28, #29, #30, #31, #32 ), #6 );
#2 = PRODUCT_DEFINITION_CONTEXT( '', #33, 'design' );
#3 = APPLICATION_PROTOCOL_DEFINITION( 'international standard', 'automotive_design', 2001, #33 );
#4 = PRODUCT_CATEGORY_RELATIONSHIP( 'NONE', 'NONE', #34, #35 );
#5 = SHAPE_DEFINITION_REPRESENTATION( #36, #37 );
#6 =  ( GEOMETRIC_REPRESENTATION_CONTEXT( 3 )GLOBAL_UNCERTAINTY_ASSIGNED_CONTEXT( ( #40 ) )GLOBAL_UNIT_ASSIGNED_CONTEXT( ( #42, #43, #44 ) )REPRESENTATION_CONTEXT( 'NONE', 'WORKSPACE' ) );
#10 = STYLED_ITEM( '', ( #46 ), #47 );
#11 = STYLED_ITEM( '', ( #48 ), #49 );
#12 = STYLED_ITEM( '', ( #50 ), #51 );
#13 = STYLED_ITEM( '', ( #52 ), #53 );
#14 = STYLED_ITEM( '', ( #54 ), #55 );
#15 = STYLED_ITEM( '', ( #56 ), #57 );
#16 = STYLED_ITEM( '', ( #58 ), #59 );
#17 = STYLED_ITEM( '', ( #60 ), #61 );
#18 = STYLED_ITEM( '', ( #62 ), #63 );
#19 = STYLED_ITEM( '', ( #64 ), #65 );
#20 = STYLED_ITEM( '', ( #66 ), #67 );
#21 = STYLED_ITEM( '', ( #68 ), #69 );
#22 = STYLED_ITEM( '', ( #70 ), #71 );
#23 = STYLED_ITEM( '', ( #72 ), #73 );
#24 = STYLED_ITEM( '', ( #74 ), #75 );
#25 = STYLED_ITEM( '', ( #76 ), #77 );
#26 = STYLED_ITEM( '', ( #78 ), #79 );
#27 = STYLED_ITEM( '', ( #80 ), #81 );
#28 = STYLED_ITEM( '', ( #82 ), #83 );
#29 = STYLED_ITEM( '', ( #84 ), #85 );
#30 = STYLED_ITEM( '', ( #86 ), #87 );
#31 = STYLED_ITEM( '', ( #88 ), #89 );
#32 = STYLED_ITEM( '', ( #90 ), #91 );
#33 = APPLICATION_CONTEXT( 'core data for automotive mechanical design processes' );
#34 = PRODUCT_CATEGORY( 'part', 'NONE' );
#35 = PRODUCT_RELATED_PRODUCT_CATEGORY( 'detail', ' ', ( #92 ) );
#36 = PRODUCT_DEFINITION_SHAPE( 'NONE', 'NONE', #93 );
#37 = ADVANCED_BREP_SHAPE_REPRESENTATION( '1', ( #94, #95 ), #6 );
#40 = UNCERTAINTY_MEASURE_WITH_UNIT( LENGTH_MEASURE( 0.00100000000000000 ), #42, '', '' );
#42 =  ( CONVERSION_BASED_UNIT( 'MILLIMETRE', #98 )LENGTH_UNIT(  )NAMED_UNIT( #101 ) );
#43 =  ( NAMED_UNIT( #103 )PLANE_ANGLE_UNIT(  )SI_UNIT( $, .RADIAN. ) );
#44 =  ( NAMED_UNIT( #103 )SI_UNIT( $, .STERADIAN. )SOLID_ANGLE_UNIT(  ) );
#46 = PRESENTATION_STYLE_ASSIGNMENT( ( #109 ) );
#47 = ADVANCED_FACE( '', ( #110 ), #111, .T. );
#48 = PRESENTATION_STYLE_ASSIGNMENT( ( #112 ) );
#49 = ADVANCED_FACE( '', ( #113 ), #114, .F. );
#50 = PRESENTATION_STYLE_ASSIGNMENT( ( #115 ) );
#51 = ADVANCED_FACE( '', ( #116 ), #117, .T. );
#52 = PRESENTATION_STYLE_ASSIGNMENT( ( #118 ) );
#53 = ADVANCED_FACE( '', ( #119 ), #120, .F. );
#54 = PRESENTATION_STYLE_ASSIGNMENT( ( #121 ) );
#55 = ADVANCED_FACE( '', ( #122 ), #123, .T. );
#56 = PRESENTATION_STYLE_ASSIGNMENT( ( #124 ) );
#57 = ADVANCED_FACE( '', ( #125 ), #126, .T. );
#58 = PRESENTATION_STYLE_ASSIGNMENT( ( #127 ) );
#59 = ADVANCED_FACE( '', ( #128 ), #129, .T. );
#60 = PRESENTATION_STYLE_ASSIGNMENT( ( #130 ) );
#61 = ADVANCED_FACE( '', ( #131 ), #132, .T. );
#62 = PRESENTATION_STYLE_ASSIGNMENT( ( #133 ) );
#63 = ADVANCED_FACE( '', ( #134 ), #135, .T. );
#64 = PRESENTATION_STYLE_ASSIGNMENT( ( #136 ) );
#65 = ADVANCED_FACE( '', ( #137 ), #138, .F. );
#66 = PRESENTATION_STYLE_ASSIGNMENT( ( #139 ) );
#67 = ADVANCED_FACE( '', ( #140 ), #141, .T. );
#68 = PRESENTATION_STYLE_ASSIGNMENT( ( #142 ) );
#69 = ADVANCED_FACE( '', ( #143 ), #144, .T. );
#70 = PRESENTATION_STYLE_ASSIGNMENT( ( #145 ) );
#71 = ADVANCED_FACE( '', ( #146 ), #147, .F. );
#72 = PRESENTATION_STYLE_ASSIGNMENT( ( #148 ) );
#73 = ADVANCED_FACE( '', ( #149, #150 ), #151, .F. );
#74 = PRESENTATION_STYLE_ASSIGNMENT( ( #152 ) );
#75 = ADVANCED_FACE( '', ( #153 ), #154, .F. );
#76 = PRESENTATION_STYLE_ASSIGNMENT( ( #155 ) );
#77 = ADVANCED_FACE( '', ( #156 ), #157, .T. );
#78 = PRESENTATION_STYLE_ASSIGNMENT( ( #158 ) );
#79 = ADVANCED_FACE( '', ( #159, #160 ), #161, .F. );
#80 = PRESENTATION_STYLE_ASSIGNMENT( ( #162 ) );
#81 = ADVANCED_FACE( '', ( #163, #164 ), #165, .T. );
#82 = PRESENTATION_STYLE_ASSIGNMENT( ( #166 ) );
#83 = ADVANCED_FACE( '', ( #167, #168 ), #169, .F. );
#84 = PRESENTATION_STYLE_ASSIGNMENT( ( #170 ) );
#85 = ADVANCED_FACE( '', ( #171, #172 ), #173, .F. );
#86 = PRESENTATION_STYLE_ASSIGNMENT( ( #174 ) );
#87 = ADVANCED_FACE( '', ( #175 ), #176, .T. );
#88 = PRESENTATION_STYLE_ASSIGNMENT( ( #177 ) );
#89 = ADVANCED_FACE( '', ( #178 ), #179, .T. );
#90 = PRESENTATION_STYLE_ASSIGNMENT( ( #180 ) );
#91 = ADVANCED_FACE( '', ( #181 ), #182, .F. );
#92 = PRODUCT( '1', '1', 'PART-1-DESC', ( #183 ) );
#93 = PRODUCT_DEFINITION( 'NONE', 'NONE', #184, #2 );
#94 = MANIFOLD_SOLID_BREP( '1', #185 );
#95 = AXIS2_PLACEMENT_3D( '', #186, #187, #188 );
#98 = LENGTH_MEASURE_WITH_UNIT( LENGTH_MEASURE( 1.00000000000000 ), #189 );
#101 = DIMENSIONAL_EXPONENTS( 1.00000000000000, 0.000000000000000, 0.000000000000000, 0.000000000000000, 0.000000000000000, 0.000000000000000, 0.000000000000000 );
#103 = DIMENSIONAL_EXPONENTS( 0.000000000000000, 0.000000000000000, 0.000000000000000, 0.000000000000000, 0.000000000000000, 0.000000000000000, 0.000000000000000 );
#109 = SURFACE_STYLE_USAGE( .BOTH., #190 );
#110 = FACE_OUTER_BOUND( '', #191, .T. );
#111 = CONICAL_SURFACE( '', #192, 3.75000006100000, 0.785398163400000 );
#112 = SURFACE_STYLE_USAGE( .BOTH., #193 );
#113 = FACE_OUTER_BOUND( '', #194, .T. );
#114 = PLANE( '', #195 );
#115 = SURFACE_STYLE_USAGE( .BOTH., #196 );
#116 = FACE_OUTER_BOUND( '', #197, .T. );
#117 = CONICAL_SURFACE( '', #198, 3.75000006100000, 0.785398163400000 );
#118 = SURFACE_STYLE_USAGE( .BOTH., #199 );
#119 = FACE_OUTER_BOUND( '', #200, .T. );
#120 = PLANE( '', #201 );
#121 = SURFACE_STYLE_USAGE( .BOTH., #202 );
#122 = FACE_OUTER_BOUND( '', #203, .T. );
#123 = CONICAL_SURFACE( '', #204, 3.75000006100000, 0.785398163400000 );
#124 = SURFACE_STYLE_USAGE( .BOTH., #205 );
#125 = FACE_OUTER_BOUND( '', #206, .T. );
#126 = CONICAL_SURFACE( '', #207, 3.75000006100000, 0.785398163400000 );
#127 = SURFACE_STYLE_USAGE( .BOTH., #208 );
#128 = FACE_OUTER_BOUND( '', #209, .T. );
#129 = CONICAL_SURFACE( '', #210, 3.75000006100000, 0.785398163400000 );
#130 = SURFACE_STYLE_USAGE( .BOTH., #211 );
#131 = FACE_OUTER_BOUND( '', #212, .T. );
#132 = CONICAL_SURFACE( '', #213, 3.75000006100000, 0.785398163400000 );
#133 = SURFACE_STYLE_USAGE( .BOTH., #214 );
#134 = FACE_OUTER_BOUND( '', #215, .T. );
#135 = CONICAL_SURFACE( '', #216, 3.75000006100000, 0.785398163400000 );
#136 = SURFACE_STYLE_USAGE( .BOTH., #217 );
#137 = FACE_OUTER_BOUND( '', #218, .T. );
#138 = PLANE( '', #219 );
#139 = SURFACE_STYLE_USAGE( .BOTH., #220 );
#140 = FACE_OUTER_BOUND( '', #221, .T. );
#141 = CONICAL_SURFACE( '', #222, 3.75000006100000, 0.785398163400000 );
#142 = SURFACE_STYLE_USAGE( .BOTH., #223 );
#143 = FACE_OUTER_BOUND( '', #224, .T. );
#144 = CONICAL_SURFACE( '', #225, 3.75000006100000, 0.785398163400000 );
#145 = SURFACE_STYLE_USAGE( .BOTH., #226 );
#146 = FACE_OUTER_BOUND( '', #227, .T. );
#147 = PLANE( '', #228 );
#148 = SURFACE_STYLE_USAGE( .BOTH., #229 );
#149 = FACE_OUTER_BOUND( '', #230, .T. );
#150 = FACE_OUTER_BOUND( '', #231, .T. );
#151 = CYLINDRICAL_SURFACE( '', #232, 1.22950000000000 );
#152 = SURFACE_STYLE_USAGE( .BOTH., #233 );
#153 = FACE_OUTER_BOUND( '', #234, .T. );
#154 = PLANE( '', #235 );
#155 = SURFACE_STYLE_USAGE( .BOTH., #236 );
#156 = FACE_OUTER_BOUND( '', #237, .T. );
#157 = CONICAL_SURFACE( '', #238, 3.75000006100000, 0.785398163400000 );
#158 = SURFACE_STYLE_USAGE( .BOTH., #239 );
#159 = FACE_BOUND( '', #240, .T. );
#160 = FACE_OUTER_BOUND( '', #241, .T. );
#161 = CONICAL_SURFACE( '', #242, 1.52950000000000, 0.785398163400000 );
#162 = SURFACE_STYLE_USAGE( .BOTH., #243 );
#163 = FACE_BOUND( '', #244, .T. );
#164 = FACE_OUTER_BOUND( '', #245, .T. );
#165 = PLANE( '', #246 );
#166 = SURFACE_STYLE_USAGE( .BOTH., #247 );
#167 = FACE_BOUND( '', #248, .T. );
#168 = FACE_OUTER_BOUND( '', #249, .T. );
#169 = PLANE( '', #250 );
#170 = SURFACE_STYLE_USAGE( .BOTH., #251 );
#171 = FACE_BOUND( '', #252, .T. );
#172 = FACE_OUTER_BOUND( '', #253, .T. );
#173 = CONICAL_SURFACE( '', #254, 1.52950000000000, 0.785398163400000 );
#174 = SURFACE_STYLE_USAGE( .BOTH., #255 );
#175 = FACE_OUTER_BOUND( '', #256, .T. );
#176 = CONICAL_SURFACE( '', #257, 3.75000006100000, 0.785398163400000 );
#177 = SURFACE_STYLE_USAGE( .BOTH., #258 );
#178 = FACE_OUTER_BOUND( '', #259, .T. );
#179 = CONICAL_SURFACE( '', #260, 3.75000006100000, 0.785398163400000 );
#180 = SURFACE_STYLE_USAGE( .BOTH., #261 );
#181 = FACE_OUTER_BOUND( '', #262, .T. );
#182 = PLANE( '', #263 );
#183 = PRODUCT_CONTEXT( '', #33, 'mechanical' );
#184 = PRODUCT_DEFINITION_FORMATION_WITH_SPECIFIED_SOURCE( ' ', 'NONE', #92, .NOT_KNOWN. );
#185 = CLOSED_SHELL( '', ( #61, #53, #49, #75, #65, #91, #71, #77, #67, #47, #89, #59, #57, #83, #63, #55, #87, #51, #69, #81, #85, #79, #73 ) );
#186 = CARTESIAN_POINT( '', ( 0.000000000000000, 0.000000000000000, 0.000000000000000 ) );
#187 = DIRECTION( '', ( 0.000000000000000, 0.000000000000000, 1.00000000000000 ) );
#188 = DIRECTION( '', ( 1.00000000000000, 0.000000000000000, 0.000000000000000 ) );
#189 =  ( LENGTH_UNIT(  )NAMED_UNIT( #101 )SI_UNIT( .MILLI., .METRE. ) );
#190 = SURFACE_SIDE_STYLE( '', ( #265 ) );
#191 = EDGE_LOOP( '', ( #266, #267, #268 ) );
#192 = AXIS2_PLACEMENT_3D( '', #269, #270, #271 );
#193 = SURFACE_SIDE_STYLE( '', ( #272 ) );
#194 = EDGE_LOOP( '', ( #273, #274, #275, #276, #277, #278 ) );
#195 = AXIS2_PLACEMENT_3D( '', #279, #280, #281 );
#196 = SURFACE_SIDE_STYLE( '', ( #282 ) );
#197 = EDGE_LOOP( '', ( #283, #284, #285 ) );
#198 = AXIS2_PLACEMENT_3D( '', #286, #287, #288 );
#199 = SURFACE_SIDE_STYLE( '', ( #289 ) );
#200 = EDGE_LOOP( '', ( #290, #291, #292, #293, #294, #295 ) );
#201 = AXIS2_PLACEMENT_3D( '', #296, #297, #298 );
#202 = SURFACE_SIDE_STYLE( '', ( #299 ) );
#203 = EDGE_LOOP( '', ( #300, #301, #302 ) );
#204 = AXIS2_PLACEMENT_3D( '', #303, #304, #305 );
#205 = SURFACE_SIDE_STYLE( '', ( #306 ) );
#206 = EDGE_LOOP( '', ( #307, #308, #309 ) );
#207 = AXIS2_PLACEMENT_3D( '', #310, #311, #312 );
#208 = SURFACE_SIDE_STYLE( '', ( #313 ) );
#209 = EDGE_LOOP( '', ( #314, #315, #316 ) );
#210 = AXIS2_PLACEMENT_3D( '', #317, #318, #319 );
#211 = SURFACE_SIDE_STYLE( '', ( #320 ) );
#212 = EDGE_LOOP( '', ( #321, #322, #323 ) );
#213 = AXIS2_PLACEMENT_3D( '', #324, #325, #326 );
#214 = SURFACE_SIDE_STYLE( '', ( #327 ) );
#215 = EDGE_LOOP( '', ( #328, #329, #330 ) );
#216 = AXIS2_PLACEMENT_3D( '', #331, #332, #333 );
#217 = SURFACE_SIDE_STYLE( '', ( #334 ) );
#218 = EDGE_LOOP( '', ( #335, #336, #337, #338, #339, #340 ) );
#219 = AXIS2_PLACEMENT_3D( '', #341, #342, #343 );
#220 = SURFACE_SIDE_STYLE( '', ( #344 ) );
#221 = EDGE_LOOP( '', ( #345, #346, #347 ) );
#222 = AXIS2_PLACEMENT_3D( '', #348, #349, #350 );
#223 = SURFACE_SIDE_STYLE( '', ( #351 ) );
#224 = EDGE_LOOP( '', ( #352, #353, #354 ) );
#225 = AXIS2_PLACEMENT_3D( '', #355, #356, #357 );
#226 = SURFACE_SIDE_STYLE( '', ( #358 ) );
#227 = EDGE_LOOP( '', ( #359, #360, #361, #362, #363, #364 ) );
#228 = AXIS2_PLACEMENT_3D( '', #365, #366, #367 );
#229 = SURFACE_SIDE_STYLE( '', ( #368 ) );
#230 = EDGE_LOOP( '', ( #369 ) );
#231 = EDGE_LOOP( '', ( #370 ) );
#232 = AXIS2_PLACEMENT_3D( '', #371, #372, #373 );
#233 = SURFACE_SIDE_STYLE( '', ( #374 ) );
#234 = EDGE_LOOP( '', ( #375, #376, #377, #378, #379, #380 ) );
#235 = AXIS2_PLACEMENT_3D( '', #381, #382, #383 );
#236 = SURFACE_SIDE_STYLE( '', ( #384 ) );
#237 = EDGE_LOOP( '', ( #385, #386, #387 ) );
#238 = AXIS2_PLACEMENT_3D( '', #388, #389, #390 );
#239 = SURFACE_SIDE_STYLE( '', ( #391 ) );
#240 = EDGE_LOOP( '', ( #392 ) );
#241 = EDGE_LOOP( '', ( #393 ) );
#242 = AXIS2_PLACEMENT_3D( '', #394, #395, #396 );
#243 = SURFACE_SIDE_STYLE( '', ( #397 ) );
#244 = EDGE_LOOP( '', ( #398 ) );
#245 = EDGE_LOOP( '', ( #399, #400, #401, #402, #403, #404 ) );
#246 = AXIS2_PLACEMENT_3D( '', #405, #406, #407 );
#247 = SURFACE_SIDE_STYLE( '', ( #408 ) );
#248 = EDGE_LOOP( '', ( #409 ) );
#249 = EDGE_LOOP( '', ( #410, #411, #412, #413, #414, #415 ) );
#250 = AXIS2_PLACEMENT_3D( '', #416, #417, #418 );
#251 = SURFACE_SIDE_STYLE( '', ( #419 ) );
#252 = EDGE_LOOP( '', ( #420 ) );
#253 = EDGE_LOOP( '', ( #421 ) );
#254 = AXIS2_PLACEMENT_3D( '', #422, #423, #424 );
#255 = SURFACE_SIDE_STYLE( '', ( #425 ) );
#256 = EDGE_LOOP( '', ( #426, #427, #428 ) );
#257 = AXIS2_PLACEMENT_3D( '', #429, #430, #431 );
#258 = SURFACE_SIDE_STYLE( '', ( #432 ) );
#259 = EDGE_LOOP( '', ( #433, #434, #435 ) );
#260 = AXIS2_PLACEMENT_3D( '', #436, #437, #438 );
#261 = SURFACE_SIDE_STYLE( '', ( #439 ) );
#262 = EDGE_LOOP( '', ( #440, #441, #442, #443, #444, #445 ) );
#263 = AXIS2_PLACEMENT_3D( '', #446, #447, #448 );
#265 = SURFACE_STYLE_FILL_AREA( #449 );
#266 = ORIENTED_EDGE( '', *, *, #450, .F. );
#267 = ORIENTED_EDGE( '', *, *, #451, .F. );
#268 = ORIENTED_EDGE( '', *, *, #452, .F. );
#269 = CARTESIAN_POINT( '', ( 0.000000000000000, 0.000000000000000, 6.50000000000000 ) );
#270 = DIRECTION( '', ( -0.000000000000000, 0.000000000000000, -1.00000000000000 ) );
#271 = DIRECTION( '', ( -1.00000000000000, 0.000000000000000, 0.000000000000000 ) );
#272 = SURFACE_STYLE_FILL_AREA( #453 );
#273 = ORIENTED_EDGE( '', *, *, #454, .F. );
#274 = ORIENTED_EDGE( '', *, *, #455, .F. );
#275 = ORIENTED_EDGE( '', *, *, #451, .T. );
#276 = ORIENTED_EDGE( '', *, *, #456, .T. );
#277 = ORIENTED_EDGE( '', *, *, #457, .T. );
#278 = ORIENTED_EDGE( '', *, *, #458, .F. );
#279 = CARTESIAN_POINT( '', ( 3.17542605800720, 0.000000000000000, 7.50000000000000 ) );
#280 = DIRECTION( '', ( -0.866025442196779, -0.499999933467869, 0.000000000000000 ) );
#281 = DIRECTION( '', ( 0.499999933467869, -0.866025442196779, 0.000000000000000 ) );
#282 = SURFACE_STYLE_FILL_AREA( #459 );
#283 = ORIENTED_EDGE( '', *, *, #460, .T. );
#284 = ORIENTED_EDGE( '', *, *, #454, .T. );
#285 = ORIENTED_EDGE( '', *, *, #461, .F. );
#286 = CARTESIAN_POINT( '', ( 0.000000000000000, 0.000000000000000, -6.50000000000000 ) );
#287 = DIRECTION( '', ( -0.000000000000000, -0.000000000000000, 1.00000000000000 ) );
#288 = DIRECTION( '', ( 1.00000000000000, 0.000000000000000, 0.000000000000000 ) );
#289 = SURFACE_STYLE_FILL_AREA( #462 );
#290 = ORIENTED_EDGE( '', *, *, #463, .F. );
#291 = ORIENTED_EDGE( '', *, *, #464, .F. );
#292 = ORIENTED_EDGE( '', *, *, #465, .T. );
#293 = ORIENTED_EDGE( '', *, *, #466, .T. );
#294 = ORIENTED_EDGE( '', *, *, #467, .T. );
#295 = ORIENTED_EDGE( '', *, *, #468, .F. );
#296 = CARTESIAN_POINT( '', ( -1.58771313463753, 2.74999957308553, 7.50000000000000 ) );
#297 = DIRECTION( '', ( 0.866025365372096, -0.500000066532123, 0.000000000000000 ) );
#298 = DIRECTION( '', ( 0.500000066532123, 0.866025365372096, 0.000000000000000 ) );
#299 = SURFACE_STYLE_FILL_AREA( #469 );
#300 = ORIENTED_EDGE( '', *, *, #470, .T. );
#301 = ORIENTED_EDGE( '', *, *, #471, .F. );
#302 = ORIENTED_EDGE( '', *, *, #472, .T. );
#303 = CARTESIAN_POINT( '', ( 0.000000000000000, 0.000000000000000, -6.50000000000000 ) );
#304 = DIRECTION( '', ( -0.000000000000000, -0.000000000000000, 1.00000000000000 ) );
#305 = DIRECTION( '', ( 1.00000000000000, 0.000000000000000, 0.000000000000000 ) );
#306 = SURFACE_STYLE_FILL_AREA( #473 );
#307 = ORIENTED_EDGE( '', *, *, #474, .F. );
#308 = ORIENTED_EDGE( '', *, *, #475, .F. );
#309 = ORIENTED_EDGE( '', *, *, #476, .F. );
#310 = CARTESIAN_POINT( '', ( 0.000000000000000, 0.000000000000000, 6.50000000000000 ) );
#311 = DIRECTION( '', ( -0.000000000000000, 0.000000000000000, -1.00000000000000 ) );
#312 = DIRECTION( '', ( -1.00000000000000, 0.000000000000000, 0.000000000000000 ) );
#313 = SURFACE_STYLE_FILL_AREA( #477 );
#314 = ORIENTED_EDGE( '', *, *, #478, .F. );
#315 = ORIENTED_EDGE( '', *, *, #479, .F. );
#316 = ORIENTED_EDGE( '', *, *, #480, .F. );
#317 = CARTESIAN_POINT( '', ( 0.000000000000000, 0.000000000000000, 6.50000000000000 ) );
#318 = DIRECTION( '', ( -0.000000000000000, 0.000000000000000, -1.00000000000000 ) );
#319 = DIRECTION( '', ( -1.00000000000000, 0.000000000000000, 0.000000000000000 ) );
#320 = SURFACE_STYLE_FILL_AREA( #481 );
#321 = ORIENTED_EDGE( '', *, *, #482, .T. );
#322 = ORIENTED_EDGE( '', *, *, #483, .F. );
#323 = ORIENTED_EDGE( '', *, *, #484, .T. );
#324 = CARTESIAN_POINT( '', ( 0.000000000000000, 0.000000000000000, -6.50000000000000 ) );
#325 = DIRECTION( '', ( -0.000000000000000, -0.000000000000000, 1.00000000000000 ) );
#326 = DIRECTION( '', ( 1.00000000000000, 0.000000000000000, 0.000000000000000 ) );
#327 = SURFACE_STYLE_FILL_AREA( #485 );
#328 = ORIENTED_EDGE( '', *, *, #486, .T. );
#329 = ORIENTED_EDGE( '', *, *, #463, .T. );
#330 = ORIENTED_EDGE( '', *, *, #487, .F. );
#331 = CARTESIAN_POINT( '', ( 0.000000000000000, 0.000000000000000, -6.50000000000000 ) );
#332 = DIRECTION( '', ( -0.000000000000000, -0.000000000000000, 1.00000000000000 ) );
#333 = DIRECTION( '', ( 1.00000000000000, 0.000000000000000, 0.000000000000000 ) );
#334 = SURFACE_STYLE_FILL_AREA( #488 );
#335 = ORIENTED_EDGE( '', *, *, #470, .F. );
#336 = ORIENTED_EDGE( '', *, *, #489, .F. );
#337 = ORIENTED_EDGE( '', *, *, #480, .T. );
#338 = ORIENTED_EDGE( '', *, *, #474, .T. );
#339 = ORIENTED_EDGE( '', *, *, #490, .T. );
#340 = ORIENTED_EDGE( '', *, *, #484, .F. );
#341 = CARTESIAN_POINT( '', ( -1.58771292336966, -2.74999969506110, 7.50000000000000 ) );
#342 = DIRECTION( '', ( 0.000000000000000, 0.999999999999997, 0.000000000000000 ) );
#343 = DIRECTION( '', ( -0.999999999999997, 0.000000000000000, 0.000000000000000 ) );
#344 = SURFACE_STYLE_FILL_AREA( #491 );
#345 = ORIENTED_EDGE( '', *, *, #492, .F. );
#346 = ORIENTED_EDGE( '', *, *, #493, .F. );
#347 = ORIENTED_EDGE( '', *, *, #466, .F. );
#348 = CARTESIAN_POINT( '', ( 0.000000000000000, 0.000000000000000, 6.50000000000000 ) );
#349 = DIRECTION( '', ( -0.000000000000000, 0.000000000000000, -1.00000000000000 ) );
#350 = DIRECTION( '', ( -1.00000000000000, 0.000000000000000, 0.000000000000000 ) );
#351 = SURFACE_STYLE_FILL_AREA( #494 );
#352 = ORIENTED_EDGE( '', *, *, #468, .T. );
#353 = ORIENTED_EDGE( '', *, *, #495, .T. );
#354 = ORIENTED_EDGE( '', *, *, #496, .T. );
#355 = CARTESIAN_POINT( '', ( 0.000000000000000, 0.000000000000000, -6.50000000000000 ) );
#356 = DIRECTION( '', ( -0.000000000000000, -0.000000000000000, 1.00000000000000 ) );
#357 = DIRECTION( '', ( 1.00000000000000, 0.000000000000000, 0.000000000000000 ) );
#358 = SURFACE_STYLE_FILL_AREA( #497 );
#359 = ORIENTED_EDGE( '', *, *, #495, .F. );
#360 = ORIENTED_EDGE( '', *, *, #467, .F. );
#361 = ORIENTED_EDGE( '', *, *, #493, .T. );
#362 = ORIENTED_EDGE( '', *, *, #452, .T. );
#363 = ORIENTED_EDGE( '', *, *, #455, .T. );
#364 = ORIENTED_EDGE( '', *, *, #460, .F. );
#365 = CARTESIAN_POINT( '', ( 1.58771313463753, 2.75000006098779, 7.50000000000000 ) );
#366 = DIRECTION( '', ( 0.000000000000000, -0.999999999999988, 0.000000000000000 ) );
#367 = DIRECTION( '', ( 0.999999999999988, 0.000000000000000, 0.000000000000000 ) );
#368 = SURFACE_STYLE_FILL_AREA( #498 );
#369 = ORIENTED_EDGE( '', *, *, #499, .T. );
#370 = ORIENTED_EDGE( '', *, *, #500, .T. );
#371 = CARTESIAN_POINT( '', ( 0.000000000000000, 0.000000000000000, 7.50000000000000 ) );
#372 = DIRECTION( '', ( -0.000000000000000, -0.000000000000000, 1.00000000000000 ) );
#373 = DIRECTION( '', ( 0.000000000000000, -1.00000000000000, 0.000000000000000 ) );
#374 = SURFACE_STYLE_FILL_AREA( #501 );
#375 = ORIENTED_EDGE( '', *, *, #502, .F. );
#376 = ORIENTED_EDGE( '', *, *, #457, .F. );
#377 = ORIENTED_EDGE( '', *, *, #503, .T. );
#378 = ORIENTED_EDGE( '', *, *, #478, .T. );
#379 = ORIENTED_EDGE( '', *, *, #489, .T. );
#380 = ORIENTED_EDGE( '', *, *, #472, .F. );
#381 = CARTESIAN_POINT( '', ( 1.58771334590542, -2.74999993901221, 7.50000000000000 ) );
#382 = DIRECTION( '', ( -0.866025480609116, 0.499999866935732, 0.000000000000000 ) );
#383 = DIRECTION( '', ( -0.499999866935732, -0.866025480609116, 0.000000000000000 ) );
#384 = SURFACE_STYLE_FILL_AREA( #504 );
#385 = ORIENTED_EDGE( '', *, *, #505, .F. );
#386 = ORIENTED_EDGE( '', *, *, #465, .F. );
#387 = ORIENTED_EDGE( '', *, *, #506, .F. );
#388 = CARTESIAN_POINT( '', ( 0.000000000000000, 0.000000000000000, 6.50000000000000 ) );
#389 = DIRECTION( '', ( -0.000000000000000, 0.000000000000000, -1.00000000000000 ) );
#390 = DIRECTION( '', ( -1.00000000000000, 0.000000000000000, 0.000000000000000 ) );
#391 = SURFACE_STYLE_FILL_AREA( #507 );
#392 = ORIENTED_EDGE( '', *, *, #499, .F. );
#393 = ORIENTED_EDGE( '', *, *, #508, .F. );
#394 = CARTESIAN_POINT( '', ( 0.000000000000000, 0.000000000000000, -7.50000000000000 ) );
#395 = DIRECTION( '', ( 0.000000000000000, -0.000000000000000, -1.00000000000000 ) );
#396 = DIRECTION( '', ( 0.000000000000000, 1.00000000000000, 0.000000000000000 ) );
#397 = SURFACE_STYLE_FILL_AREA( #509 );
#398 = ORIENTED_EDGE( '', *, *, #508, .T. );
#399 = ORIENTED_EDGE( '', *, *, #487, .T. );
#400 = ORIENTED_EDGE( '', *, *, #496, .F. );
#401 = ORIENTED_EDGE( '', *, *, #461, .T. );
#402 = ORIENTED_EDGE( '', *, *, #510, .T. );
#403 = ORIENTED_EDGE( '', *, *, #471, .T. );
#404 = ORIENTED_EDGE( '', *, *, #483, .T. );
#405 = CARTESIAN_POINT( '', ( 0.000000000000000, 0.000000000000000, -7.50000000000000 ) );
#406 = DIRECTION( '', ( 0.000000000000000, 0.000000000000000, -1.00000000000000 ) );
#407 = DIRECTION( '', ( -1.00000000000000, 0.000000000000000, 0.000000000000000 ) );
#408 = SURFACE_STYLE_FILL_AREA( #511 );
#409 = ORIENTED_EDGE( '', *, *, #512, .T. );
#410 = ORIENTED_EDGE( '', *, *, #505, .T. );
#411 = ORIENTED_EDGE( '', *, *, #475, .T. );
#412 = ORIENTED_EDGE( '', *, *, #479, .T. );
#413 = ORIENTED_EDGE( '', *, *, #513, .T. );
#414 = ORIENTED_EDGE( '', *, *, #450, .T. );
#415 = ORIENTED_EDGE( '', *, *, #492, .T. );
#416 = CARTESIAN_POINT( '', ( 0.000000000000000, 0.000000000000000, 7.50000000000000 ) );
#417 = DIRECTION( '', ( 0.000000000000000, 0.000000000000000, -1.00000000000000 ) );
#418 = DIRECTION( '', ( -1.00000000000000, 0.000000000000000, 0.000000000000000 ) );
#419 = SURFACE_STYLE_FILL_AREA( #514 );
#420 = ORIENTED_EDGE( '', *, *, #500, .F. );
#421 = ORIENTED_EDGE( '', *, *, #512, .F. );
#422 = CARTESIAN_POINT( '', ( 0.000000000000000, 0.000000000000000, 7.50000000000000 ) );
#423 = DIRECTION( '', ( -0.000000000000000, -0.000000000000000, 1.00000000000000 ) );
#424 = DIRECTION( '', ( 0.000000000000000, 1.00000000000000, 0.000000000000000 ) );
#425 = SURFACE_STYLE_FILL_AREA( #515 );
#426 = ORIENTED_EDGE( '', *, *, #502, .T. );
#427 = ORIENTED_EDGE( '', *, *, #510, .F. );
#428 = ORIENTED_EDGE( '', *, *, #458, .T. );
#429 = CARTESIAN_POINT( '', ( 0.000000000000000, 0.000000000000000, -6.50000000000000 ) );
#430 = DIRECTION( '', ( -0.000000000000000, -0.000000000000000, 1.00000000000000 ) );
#431 = DIRECTION( '', ( 1.00000000000000, 0.000000000000000, 0.000000000000000 ) );
#432 = SURFACE_STYLE_FILL_AREA( #516 );
#433 = ORIENTED_EDGE( '', *, *, #456, .F. );
#434 = ORIENTED_EDGE( '', *, *, #513, .F. );
#435 = ORIENTED_EDGE( '', *, *, #503, .F. );
#436 = CARTESIAN_POINT( '', ( 0.000000000000000, 0.000000000000000, 6.50000000000000 ) );
#437 = DIRECTION( '', ( -0.000000000000000, 0.000000000000000, -1.00000000000000 ) );
#438 = DIRECTION( '', ( -1.00000000000000, 0.000000000000000, 0.000000000000000 ) );
#439 = SURFACE_STYLE_FILL_AREA( #517 );
#440 = ORIENTED_EDGE( '', *, *, #482, .F. );
#441 = ORIENTED_EDGE( '', *, *, #490, .F. );
#442 = ORIENTED_EDGE( '', *, *, #476, .T. );
#443 = ORIENTED_EDGE( '', *, *, #506, .T. );
#444 = ORIENTED_EDGE( '', *, *, #464, .T. );
#445 = ORIENTED_EDGE( '', *, *, #486, .F. );
#446 = CARTESIAN_POINT( '', ( -3.17542648054293, 0.000000000000000, 7.50000000000000 ) );
#447 = DIRECTION( '', ( 0.866025326959743, 0.500000133064252, 0.000000000000000 ) );
#448 = DIRECTION( '', ( -0.500000133064252, 0.866025326959743, 0.000000000000000 ) );
#449 = FILL_AREA_STYLE( '', ( #518 ) );
#450 = EDGE_CURVE( '', #519, #520, #521, .F. );
#451 = EDGE_CURVE( '', #522, #519, #523, .T. );
#452 = EDGE_CURVE( '', #520, #522, #524, .T. );
#453 = FILL_AREA_STYLE( '', ( #525 ) );
#454 = EDGE_CURVE( '', #526, #527, #528, .T. );
#455 = EDGE_CURVE( '', #522, #526, #529, .T. );
#456 = EDGE_CURVE( '', #519, #530, #531, .T. );
#457 = EDGE_CURVE( '', #530, #532, #533, .T. );
#458 = EDGE_CURVE( '', #527, #532, #534, .T. );
#459 = FILL_AREA_STYLE( '', ( #535 ) );
#460 = EDGE_CURVE( '', #536, #526, #537, .T. );
#461 = EDGE_CURVE( '', #536, #527, #538, .T. );
#462 = FILL_AREA_STYLE( '', ( #539 ) );
#463 = EDGE_CURVE( '', #540, #541, #542, .T. );
#464 = EDGE_CURVE( '', #543, #540, #544, .T. );
#465 = EDGE_CURVE( '', #543, #545, #546, .T. );
#466 = EDGE_CURVE( '', #545, #547, #548, .T. );
#467 = EDGE_CURVE( '', #547, #549, #550, .T. );
#468 = EDGE_CURVE( '', #541, #549, #551, .T. );
#469 = FILL_AREA_STYLE( '', ( #552 ) );
#470 = EDGE_CURVE( '', #553, #554, #555, .F. );
#471 = EDGE_CURVE( '', #556, #554, #557, .T. );
#472 = EDGE_CURVE( '', #556, #553, #558, .T. );
#473 = FILL_AREA_STYLE( '', ( #559 ) );
#474 = EDGE_CURVE( '', #560, #561, #562, .F. );
#475 = EDGE_CURVE( '', #563, #560, #564, .F. );
#476 = EDGE_CURVE( '', #561, #563, #565, .T. );
#477 = FILL_AREA_STYLE( '', ( #566 ) );
#478 = EDGE_CURVE( '', #567, #568, #569, .T. );
#479 = EDGE_CURVE( '', #560, #567, #570, .F. );
#480 = EDGE_CURVE( '', #568, #560, #571, .F. );
#481 = FILL_AREA_STYLE( '', ( #572 ) );
#482 = EDGE_CURVE( '', #573, #574, #575, .T. );
#483 = EDGE_CURVE( '', #554, #574, #576, .T. );
#484 = EDGE_CURVE( '', #554, #573, #577, .F. );
#485 = FILL_AREA_STYLE( '', ( #578 ) );
#486 = EDGE_CURVE( '', #574, #540, #579, .T. );
#487 = EDGE_CURVE( '', #574, #541, #580, .T. );
#488 = FILL_AREA_STYLE( '', ( #581 ) );
#489 = EDGE_CURVE( '', #568, #553, #582, .T. );
#490 = EDGE_CURVE( '', #561, #573, #583, .T. );
#491 = FILL_AREA_STYLE( '', ( #584 ) );
#492 = EDGE_CURVE( '', #520, #545, #585, .T. );
#493 = EDGE_CURVE( '', #547, #520, #586, .T. );
#494 = FILL_AREA_STYLE( '', ( #587 ) );
#495 = EDGE_CURVE( '', #549, #536, #588, .T. );
#496 = EDGE_CURVE( '', #536, #541, #589, .T. );
#497 = FILL_AREA_STYLE( '', ( #590 ) );
#498 = FILL_AREA_STYLE( '', ( #591 ) );
#499 = EDGE_CURVE( '', #592, #592, #593, .T. );
#500 = EDGE_CURVE( '', #594, #594, #595, .T. );
#501 = FILL_AREA_STYLE( '', ( #596 ) );
#502 = EDGE_CURVE( '', #532, #556, #597, .T. );
#503 = EDGE_CURVE( '', #530, #567, #598, .T. );
#504 = FILL_AREA_STYLE( '', ( #599 ) );
#505 = EDGE_CURVE( '', #545, #563, #600, .F. );
#506 = EDGE_CURVE( '', #563, #543, #601, .T. );
#507 = FILL_AREA_STYLE( '', ( #602 ) );
#508 = EDGE_CURVE( '', #603, #603, #604, .T. );
#509 = FILL_AREA_STYLE( '', ( #605 ) );
#510 = EDGE_CURVE( '', #527, #556, #606, .T. );
#511 = FILL_AREA_STYLE( '', ( #607 ) );
#512 = EDGE_CURVE( '', #608, #608, #609, .T. );
#513 = EDGE_CURVE( '', #567, #519, #610, .F. );
#514 = FILL_AREA_STYLE( '', ( #611 ) );
#515 = FILL_AREA_STYLE( '', ( #612 ) );
#516 = FILL_AREA_STYLE( '', ( #613 ) );
#517 = FILL_AREA_STYLE( '', ( #614 ) );
#518 = FILL_AREA_STYLE_COLOUR( '', #615 );
#519 = VERTEX_POINT( '', #616 );
#520 = VERTEX_POINT( '', #617 );
#521 = CIRCLE( '', #618, 2.75000006100000 );
#522 = VERTEX_POINT( '', #619 );
#523 = B_SPLINE_CURVE_WITH_KNOTS( '', 3, ( #620, #621, #622, #623, #624, #625, #626, #627 ), .UNSPECIFIED., .F., .F., ( 4, 2, 2, 4 ), ( 0.000000000000000, 0.000823158747540401, 0.00123461090446091, 0.00164606306138142 ), .UNSPECIFIED. );
#524 = B_SPLINE_CURVE_WITH_KNOTS( '', 3, ( #628, #629, #630, #631, #632, #633, #634, #635 ), .UNSPECIFIED., .F., .F., ( 4, 2, 2, 4 ), ( 0.00466343285750668, 0.00548435577285631, 0.00589481723053113, 0.00630527868820594 ), .UNSPECIFIED. );
#525 = FILL_AREA_STYLE_COLOUR( '', #636 );
#526 = VERTEX_POINT( '', #637 );
#527 = VERTEX_POINT( '', #638 );
#528 = B_SPLINE_CURVE_WITH_KNOTS( '', 3, ( #639, #640, #641, #642, #643, #644, #645, #646 ), .UNSPECIFIED., .F., .F., ( 4, 2, 2, 4 ), ( 0.000000000000000, 0.000823158747540402, 0.00123461090446091, 0.00164606306138142 ), .UNSPECIFIED. );
#529 = LINE( '', #647, #648 );
#530 = VERTEX_POINT( '', #649 );
#531 = B_SPLINE_CURVE_WITH_KNOTS( '', 3, ( #650, #651, #652, #653, #654, #655 ), .UNSPECIFIED., .F., .F., ( 4, 2, 4 ), ( 0.00164606306138142, 0.00246320109393584, 0.00328033912649026 ), .UNSPECIFIED. );
#532 = VERTEX_POINT( '', #656 );
#533 = LINE( '', #657, #658 );
#534 = B_SPLINE_CURVE_WITH_KNOTS( '', 3, ( #659, #660, #661, #662, #663, #664 ), .UNSPECIFIED., .F., .F., ( 4, 2, 4 ), ( 0.00164606306138142, 0.00246320109393584, 0.00328033912649026 ), .UNSPECIFIED. );
#535 = FILL_AREA_STYLE_COLOUR( '', #665 );
#536 = VERTEX_POINT( '', #666 );
#537 = B_SPLINE_CURVE_WITH_KNOTS( '', 3, ( #667, #668, #669, #670, #671, #672, #673, #674 ), .UNSPECIFIED., .F., .F., ( 4, 2, 2, 4 ), ( 0.00466343285750668, 0.00548435577285631, 0.00589481723053113, 0.00630527868820594 ), .UNSPECIFIED. );
#538 = CIRCLE( '', #675, 2.75000006100000 );
#539 = FILL_AREA_STYLE_COLOUR( '', #676 );
#540 = VERTEX_POINT( '', #677 );
#541 = VERTEX_POINT( '', #678 );
#542 = B_SPLINE_CURVE_WITH_KNOTS( '', 3, ( #679, #680, #681, #682, #683, #684, #685, #686 ), .UNSPECIFIED., .F., .F., ( 4, 2, 2, 4 ), ( 0.000000000000000, 0.000823158747562935, 0.00123461090448343, 0.00164606306140392 ), .UNSPECIFIED. );
#543 = VERTEX_POINT( '', #687 );
#544 = LINE( '', #688, #689 );
#545 = VERTEX_POINT( '', #690 );
#546 = B_SPLINE_CURVE_WITH_KNOTS( '', 3, ( #691, #692, #693, #694, #695, #696, #697, #698 ), .UNSPECIFIED., .F., .F., ( 4, 2, 2, 4 ), ( 0.000000000000000, 0.000823158747562935, 0.00123461090448343, 0.00164606306140392 ), .UNSPECIFIED. );
#547 = VERTEX_POINT( '', #699 );
#548 = B_SPLINE_CURVE_WITH_KNOTS( '', 3, ( #700, #701, #702, #703, #704, #705 ), .UNSPECIFIED., .F., .F., ( 4, 2, 4 ), ( 0.00164606306140392, 0.00246320109395811, 0.00328033912651229 ), .UNSPECIFIED. );
#549 = VERTEX_POINT( '', #706 );
#550 = LINE( '', #707, #708 );
#551 = B_SPLINE_CURVE_WITH_KNOTS( '', 3, ( #709, #710, #711, #712, #713, #714 ), .UNSPECIFIED., .F., .F., ( 4, 2, 4 ), ( 0.00164606306140392, 0.00246320109395811, 0.00328033912651229 ), .UNSPECIFIED. );
#552 = FILL_AREA_STYLE_COLOUR( '', #715 );
#553 = VERTEX_POINT( '', #716 );
#554 = VERTEX_POINT( '', #717 );
#555 = B_SPLINE_CURVE_WITH_KNOTS( '', 3, ( #718, #719, #720, #721, #722, #723, #724, #725 ), .UNSPECIFIED., .F., .F., ( 4, 2, 2, 4 ), ( 0.00466343245276800, 0.00548435557560109, 0.00589481713701764, 0.00630527869843418 ), .UNSPECIFIED. );
#556 = VERTEX_POINT( '', #726 );
#557 = CIRCLE( '', #727, 2.75000006100000 );
#558 = B_SPLINE_CURVE_WITH_KNOTS( '', 3, ( #728, #729, #730, #731, #732, #733 ), .UNSPECIFIED., .F., .F., ( 4, 2, 4 ), ( 0.00164606213215727, 0.00246320064543964, 0.00328033915872201 ), .UNSPECIFIED. );
#559 = FILL_AREA_STYLE_COLOUR( '', #734 );
#560 = VERTEX_POINT( '', #735 );
#561 = VERTEX_POINT( '', #736 );
#562 = B_SPLINE_CURVE_WITH_KNOTS( '', 3, ( #737, #738, #739, #740, #741, #742, #743, #744 ), .UNSPECIFIED., .F., .F., ( 4, 2, 2, 4 ), ( 0.00302411410109301, 0.00384377327693050, 0.00425360286484925, 0.00466343245276800 ), .UNSPECIFIED. );
#563 = VERTEX_POINT( '', #745 );
#564 = CIRCLE( '', #746, 2.75000006100000 );
#565 = B_SPLINE_CURVE_WITH_KNOTS( '', 3, ( #747, #748, #749, #750, #751, #752, #753, #754 ), .UNSPECIFIED., .F., .F., ( 4, 2, 2, 4 ), ( 0.000000000000000, 0.000823158282958200, 0.00123461020758027, 0.00164606213220235 ), .UNSPECIFIED. );
#566 = FILL_AREA_STYLE_COLOUR( '', #755 );
#567 = VERTEX_POINT( '', #756 );
#568 = VERTEX_POINT( '', #757 );
#569 = B_SPLINE_CURVE_WITH_KNOTS( '', 3, ( #758, #759, #760, #761, #762, #763 ), .UNSPECIFIED., .F., .F., ( 4, 2, 4 ), ( 0.00164606213215727, 0.00246320064543964, 0.00328033915872201 ), .UNSPECIFIED. );
#570 = CIRCLE( '', #764, 2.75000006100000 );
#571 = B_SPLINE_CURVE_WITH_KNOTS( '', 3, ( #765, #766, #767, #768, #769, #770, #771, #772 ), .UNSPECIFIED., .F., .F., ( 4, 2, 2, 4 ), ( 0.00466343245276800, 0.00548435557560109, 0.00589481713701764, 0.00630527869843418 ), .UNSPECIFIED. );
#572 = FILL_AREA_STYLE_COLOUR( '', #773 );
#573 = VERTEX_POINT( '', #774 );
#574 = VERTEX_POINT( '', #775 );
#575 = B_SPLINE_CURVE_WITH_KNOTS( '', 3, ( #776, #777, #778, #779, #780, #781, #782, #783 ), .UNSPECIFIED., .F., .F., ( 4, 2, 2, 4 ), ( 0.000000000000000, 0.000823158282958200, 0.00123461020758027, 0.00164606213220235 ), .UNSPECIFIED. );
#576 = CIRCLE( '', #784, 2.75000006100000 );
#577 = B_SPLINE_CURVE_WITH_KNOTS( '', 3, ( #785, #786, #787, #788, #789, #790, #791, #792 ), .UNSPECIFIED., .F., .F., ( 4, 2, 2, 4 ), ( 0.00302411410109301, 0.00384377327693050, 0.00425360286484925, 0.00466343245276800 ), .UNSPECIFIED. );
#578 = FILL_AREA_STYLE_COLOUR( '', #793 );
#579 = B_SPLINE_CURVE_WITH_KNOTS( '', 3, ( #794, #795, #796, #797, #798, #799 ), .UNSPECIFIED., .F., .F., ( 4, 2, 4 ), ( 0.00164606213220235, 0.00246320064548421, 0.00328033915876608 ), .UNSPECIFIED. );
#580 = CIRCLE( '', #800, 2.75000006100000 );
#581 = FILL_AREA_STYLE_COLOUR( '', #801 );
#582 = LINE( '', #802, #803 );
#583 = LINE( '', #804, #805 );
#584 = FILL_AREA_STYLE_COLOUR( '', #806 );
#585 = CIRCLE( '', #807, 2.75000006100000 );
#586 = B_SPLINE_CURVE_WITH_KNOTS( '', 3, ( #808, #809, #810, #811, #812, #813, #814, #815 ), .UNSPECIFIED., .F., .F., ( 4, 2, 2, 4 ), ( 0.00302411409088001, 0.00384377347419334, 0.00425360316585001, 0.00466343285750668 ), .UNSPECIFIED. );
#587 = FILL_AREA_STYLE_COLOUR( '', #816 );
#588 = B_SPLINE_CURVE_WITH_KNOTS( '', 3, ( #817, #818, #819, #820, #821, #822, #823, #824 ), .UNSPECIFIED., .F., .F., ( 4, 2, 2, 4 ), ( 0.00302411409088001, 0.00384377347419334, 0.00425360316585001, 0.00466343285750668 ), .UNSPECIFIED. );
#589 = CIRCLE( '', #825, 2.75000006100000 );
#590 = FILL_AREA_STYLE_COLOUR( '', #826 );
#591 = FILL_AREA_STYLE_COLOUR( '', #827 );
#592 = VERTEX_POINT( '', #828 );
#593 = CIRCLE( '', #829, 1.22950000000000 );
#594 = VERTEX_POINT( '', #830 );
#595 = CIRCLE( '', #831, 1.22950000000000 );
#596 = FILL_AREA_STYLE_COLOUR( '', #832 );
#597 = B_SPLINE_CURVE_WITH_KNOTS( '', 3, ( #833, #834, #835, #836, #837, #838, #839, #840 ), .UNSPECIFIED., .F., .F., ( 4, 2, 2, 4 ), ( 0.000000000000000, 0.000823158282913087, 0.00123461020753518, 0.00164606213215727 ), .UNSPECIFIED. );
#598 = B_SPLINE_CURVE_WITH_KNOTS( '', 3, ( #841, #842, #843, #844, #845, #846, #847, #848 ), .UNSPECIFIED., .F., .F., ( 4, 2, 2, 4 ), ( 0.000000000000000, 0.000823158282913087, 0.00123461020753518, 0.00164606213215727 ), .UNSPECIFIED. );
#599 = FILL_AREA_STYLE_COLOUR( '', #849 );
#600 = CIRCLE( '', #850, 2.75000006100000 );
#601 = B_SPLINE_CURVE_WITH_KNOTS( '', 3, ( #851, #852, #853, #854, #855, #856 ), .UNSPECIFIED., .F., .F., ( 4, 2, 4 ), ( 0.00164606213220235, 0.00246320064548421, 0.00328033915876608 ), .UNSPECIFIED. );
#602 = FILL_AREA_STYLE_COLOUR( '', #857 );
#603 = VERTEX_POINT( '', #858 );
#604 = CIRCLE( '', #859, 1.52950000000000 );
#605 = FILL_AREA_STYLE_COLOUR( '', #860 );
#606 = CIRCLE( '', #861, 2.75000006100000 );
#607 = FILL_AREA_STYLE_COLOUR( '', #862 );
#608 = VERTEX_POINT( '', #863 );
#609 = CIRCLE( '', #864, 1.52950000000000 );
#610 = CIRCLE( '', #865, 2.75000006100000 );
#611 = FILL_AREA_STYLE_COLOUR( '', #866 );
#612 = FILL_AREA_STYLE_COLOUR( '', #867 );
#613 = FILL_AREA_STYLE_COLOUR( '', #868 );
#614 = FILL_AREA_STYLE_COLOUR( '', #869 );
#615 = COLOUR_RGB( '', 0.329411774900000, 0.337254911700000, 0.349019616800000 );
#616 = CARTESIAN_POINT( '', ( 2.38157001885812, 1.37499984753053, 7.50000000000000 ) );
#617 = CARTESIAN_POINT( '', ( 0.000000000000000, 2.75000006098779, 7.50000000000000 ) );
#618 = AXIS2_PLACEMENT_3D( '', #870, #871, #872 );
#619 = CARTESIAN_POINT( '', ( 1.58771313463753, 2.75000006098779, 7.07457358044484 ) );
#620 = CARTESIAN_POINT( '', ( 1.58771313463753, 2.75000006098779, 7.07457358044484 ) );
#621 = CARTESIAN_POINT( '', ( 1.71220066294590, 2.53438129879416, 7.19906115016532 ) );
#622 = CARTESIAN_POINT( '', ( 1.83950583328032, 2.31388223658800, 7.30484354624985 ) );
#623 = CARTESIAN_POINT( '', ( 2.03732833438898, 1.97124355299684, 7.41794490041196 ) );
#624 = CARTESIAN_POINT( '', ( 2.10442543664172, 1.85502794223559, 7.44796935754780 ) );
#625 = CARTESIAN_POINT( '', ( 2.24147158971391, 1.61765700001858, 7.48908535108373 ) );
#626 = CARTESIAN_POINT( '', ( 2.31204092527266, 1.49542730368859, 7.50000024532284 ) );
#627 = CARTESIAN_POINT( '', ( 2.38156982115340, 1.37499970206283, 7.50000024395116 ) );
#628 = CARTESIAN_POINT( '', ( 0.000000000000000, 2.74999981703667, 7.50000024395115 ) );
#629 = CARTESIAN_POINT( '', ( 0.278643882429100, 2.74999985985012, 7.50000019714209 ) );
#630 = CARTESIAN_POINT( '', ( 0.550356259404648, 2.74999990159856, 7.45711935329404 ) );
#631 = CARTESIAN_POINT( '', ( 0.949933019520242, 2.74999996299328, 7.34335761099065 ) );
#632 = CARTESIAN_POINT( '', ( 1.08237212810478, 2.74999998334246, 7.29700263983950 ) );
#633 = CARTESIAN_POINT( '', ( 1.33941759736231, 2.75000002283734, 7.19341633680224 ) );
#634 = CARTESIAN_POINT( '', ( 1.46474762161361, 2.75000004209422, 7.13605634922854 ) );
#635 = CARTESIAN_POINT( '', ( 1.58771313463753, 2.75000006098779, 7.07457358044484 ) );
#636 = COLOUR_RGB( '', 0.329411774900000, 0.337254911700000, 0.349019616800000 );
#637 = CARTESIAN_POINT( '', ( 1.58771313463753, 2.75000006098779, -7.07457358044484 ) );
#638 = CARTESIAN_POINT( '', ( 2.38156980759021, 1.37499972555497, -7.50000000000000 ) );
#639 = CARTESIAN_POINT( '', ( 1.58771313463753, 2.75000006098779, -7.07457358044484 ) );
#640 = CARTESIAN_POINT( '', ( 1.71220066294590, 2.53438129879416, -7.19906115016532 ) );
#641 = CARTESIAN_POINT( '', ( 1.83950583328032, 2.31388223658800, -7.30484354624985 ) );
#642 = CARTESIAN_POINT( '', ( 2.03732833438898, 1.97124355299684, -7.41794490041196 ) );
#643 = CARTESIAN_POINT( '', ( 2.10442543664172, 1.85502794223559, -7.44796935754780 ) );
#644 = CARTESIAN_POINT( '', ( 2.24147158971391, 1.61765700001858, -7.48908535108373 ) );
#645 = CARTESIAN_POINT( '', ( 2.31204092527266, 1.49542730368859, -7.50000024532284 ) );
#646 = CARTESIAN_POINT( '', ( 2.38156982115340, 1.37499970206283, -7.50000024395116 ) );
#647 = CARTESIAN_POINT( '', ( 1.58771313463753, 2.75000006098779, 7.50000000000000 ) );
#648 = VECTOR( '', #873, 1000.00000000000 );
#649 = CARTESIAN_POINT( '', ( 3.17542605800720, 0.000000000000000, 7.07457400298059 ) );
#650 = CARTESIAN_POINT( '', ( 2.38156982115340, 1.37499970206283, 7.50000024395116 ) );
#651 = CARTESIAN_POINT( '', ( 2.51965320273267, 1.13583222705376, 7.50000024122701 ) );
#652 = CARTESIAN_POINT( '', ( 2.65538884240623, 0.900731161029900, 7.45777311830522 ) );
#653 = CARTESIAN_POINT( '', ( 2.92309390316326, 0.437052312089971, 7.30557864739392 ) );
#654 = CARTESIAN_POINT( '', ( 3.05108241986542, 0.215369659045727, 7.19891763284984 ) );
#655 = CARTESIAN_POINT( '', ( 3.17542605800725, 0.000000000000000, 7.07457400298085 ) );
#656 = CARTESIAN_POINT( '', ( 3.17542605800720, 0.000000000000000, -7.07457400298059 ) );
#657 = CARTESIAN_POINT( '', ( 3.17542605800720, 0.000000000000000, 7.50000000000000 ) );
#658 = VECTOR( '', #874, 1000.00000000000 );
#659 = CARTESIAN_POINT( '', ( 2.38156982115340, 1.37499970206283, -7.50000024395116 ) );
#660 = CARTESIAN_POINT( '', ( 2.51965320273267, 1.13583222705376, -7.50000024122701 ) );
#661 = CARTESIAN_POINT( '', ( 2.65538884240623, 0.900731161029899, -7.45777311830522 ) );
#662 = CARTESIAN_POINT( '', ( 2.92309390316326, 0.437052312089971, -7.30557864739393 ) );
#663 = CARTESIAN_POINT( '', ( 3.05108241986542, 0.215369659045726, -7.19891763284984 ) );
#664 = CARTESIAN_POINT( '', ( 3.17542605800725, 0.000000000000000, -7.07457400298085 ) );
#665 = COLOUR_RGB( '', 0.329411774900000, 0.337254911700000, 0.349019616800000 );
#666 = CARTESIAN_POINT( '', ( 0.000000000000000, 2.75000006098779, -7.50000000000000 ) );
#667 = CARTESIAN_POINT( '', ( 0.000000000000000, 2.74999981703667, -7.50000024395115 ) );
#668 = CARTESIAN_POINT( '', ( 0.278643882429100, 2.74999985985012, -7.50000019714209 ) );
#669 = CARTESIAN_POINT( '', ( 0.550356259404648, 2.74999990159856, -7.45711935329404 ) );
#670 = CARTESIAN_POINT( '', ( 0.949933019520242, 2.74999996299328, -7.34335761099065 ) );
#671 = CARTESIAN_POINT( '', ( 1.08237212810478, 2.74999998334246, -7.29700263983950 ) );
#672 = CARTESIAN_POINT( '', ( 1.33941759736231, 2.75000002283734, -7.19341633680224 ) );
#673 = CARTESIAN_POINT( '', ( 1.46474762161361, 2.75000004209422, -7.13605634922854 ) );
#674 = CARTESIAN_POINT( '', ( 1.58771313463753, 2.75000006098779, -7.07457358044484 ) );
#675 = AXIS2_PLACEMENT_3D( '', #875, #876, #877 );
#676 = COLOUR_RGB( '', 0.329411774900000, 0.337254911700000, 0.349019616800000 );
#677 = CARTESIAN_POINT( '', ( -3.17542648054293, 0.000000000000000, -7.07457358044487 ) );
#678 = CARTESIAN_POINT( '', ( -2.38156980759024, 1.37500021345724, -7.50000000000000 ) );
#679 = CARTESIAN_POINT( '', ( -3.17542648054292, 0.000000000000000, -7.07457358044486 ) );
#680 = CARTESIAN_POINT( '', ( -3.05093891910494, 0.215618621090494, -7.19906115016526 ) );
#681 = CARTESIAN_POINT( '', ( -2.92363371489103, 0.436117663736202, -7.30484354624978 ) );
#682 = CARTESIAN_POINT( '', ( -2.72581116113616, 0.778756316932049, -7.41794490041192 ) );
#683 = CARTESIAN_POINT( '', ( -2.65871404102695, 0.894971917383893, -7.44796935754777 ) );
#684 = CARTESIAN_POINT( '', ( -2.52166785148281, 1.13234283854394, -7.48908535108374 ) );
#685 = CARTESIAN_POINT( '', ( -2.45109849714352, 1.25457252403106, -7.50000024532285 ) );
#686 = CARTESIAN_POINT( '', ( -2.38156958275914, 1.37500011497377, -7.50000024395117 ) );
#687 = CARTESIAN_POINT( '', ( -3.17542648054293, 0.000000000000000, 7.07457358044487 ) );
#688 = CARTESIAN_POINT( '', ( -3.17542648054293, 0.000000000000000, 7.50000000000000 ) );
#689 = VECTOR( '', #878, 1000.00000000000 );
#690 = CARTESIAN_POINT( '', ( -2.38156980759024, 1.37500021345724, 7.50000000000000 ) );
#691 = CARTESIAN_POINT( '', ( -3.17542648054292, 0.000000000000000, 7.07457358044486 ) );
#692 = CARTESIAN_POINT( '', ( -3.05093891910494, 0.215618621090494, 7.19906115016526 ) );
#693 = CARTESIAN_POINT( '', ( -2.92363371489103, 0.436117663736202, 7.30484354624978 ) );
#694 = CARTESIAN_POINT( '', ( -2.72581116113616, 0.778756316932049, 7.41794490041192 ) );
#695 = CARTESIAN_POINT( '', ( -2.65871404102695, 0.894971917383893, 7.44796935754777 ) );
#696 = CARTESIAN_POINT( '', ( -2.52166785148281, 1.13234283854394, 7.48908535108374 ) );
#697 = CARTESIAN_POINT( '', ( -2.45109849714352, 1.25457252403106, 7.50000024532285 ) );
#698 = CARTESIAN_POINT( '', ( -2.38156958275914, 1.37500011497377, 7.50000024395117 ) );
#699 = CARTESIAN_POINT( '', ( -1.58771313463753, 2.74999957308553, 7.07457400298059 ) );
#700 = CARTESIAN_POINT( '', ( -2.38156958275914, 1.37500011497377, 7.50000024395117 ) );
#701 = CARTESIAN_POINT( '', ( -2.24348616443194, 1.61416756876641, 7.50000024122702 ) );
#702 = CARTESIAN_POINT( '', ( -2.10775048863524, 1.84926861393461, 7.45777311830523 ) );
#703 = CARTESIAN_POINT( '', ( -1.84004535663417, 2.31294742174196, 7.30557864739387 ) );
#704 = CARTESIAN_POINT( '', ( -1.71205680587066, 2.53463005512075, 7.19891763284980 ) );
#705 = CARTESIAN_POINT( '', ( -1.58771313463748, 2.74999957308562, 7.07457400298085 ) );
#706 = CARTESIAN_POINT( '', ( -1.58771313463753, 2.74999957308553, -7.07457400298059 ) );
#707 = CARTESIAN_POINT( '', ( -1.58771313463753, 2.74999957308553, 7.50000000000000 ) );
#708 = VECTOR( '', #879, 1000.00000000000 );
#709 = CARTESIAN_POINT( '', ( -2.38156958275914, 1.37500011497377, -7.50000024395117 ) );
#710 = CARTESIAN_POINT( '', ( -2.24348616443194, 1.61416756876641, -7.50000024122702 ) );
#711 = CARTESIAN_POINT( '', ( -2.10775048863524, 1.84926861393461, -7.45777311830523 ) );
#712 = CARTESIAN_POINT( '', ( -1.84004535663417, 2.31294742174196, -7.30557864739387 ) );
#713 = CARTESIAN_POINT( '', ( -1.71205680587066, 2.53463005512075, -7.19891763284980 ) );
#714 = CARTESIAN_POINT( '', ( -1.58771313463748, 2.74999957308562, -7.07457400298085 ) );
#715 = COLOUR_RGB( '', 0.329411774900000, 0.337254911700000, 0.349019616800000 );
#716 = CARTESIAN_POINT( '', ( 1.58771334590543, -2.74999993901221, -7.07457358044485 ) );
#717 = CARTESIAN_POINT( '', ( 0.000000000000000, -2.75000006098778, -7.50000000000000 ) );
#718 = CARTESIAN_POINT( '', ( 0.000000000000000, -2.74999981703663, -7.50000024395118 ) );
#719 = CARTESIAN_POINT( '', ( 0.278643748493772, -2.74999983844336, -7.50000023995558 ) );
#720 = CARTESIAN_POINT( '', ( 0.550356198698613, -2.74999985931758, -7.45711941349096 ) );
#721 = CARTESIAN_POINT( '', ( 0.949933063799249, -2.74999989001494, -7.34335766715111 ) );
#722 = CARTESIAN_POINT( '', ( 1.08237220781098, -2.74999990018954, -7.29700268936598 ) );
#723 = CARTESIAN_POINT( '', ( 1.33941774528890, -2.74999991993698, -7.19341636581938 ) );
#724 = CARTESIAN_POINT( '', ( 1.46474780180217, -2.74999992956542, -7.13605636476821 ) );
#725 = CARTESIAN_POINT( '', ( 1.58771334590542, -2.74999993901221, -7.07457358044485 ) );
#726 = CARTESIAN_POINT( '', ( 2.38157012449205, -1.37499966456715, -7.50000000000000 ) );
#727 = AXIS2_PLACEMENT_3D( '', #880, #881, #882 );
#728 = CARTESIAN_POINT( '', ( 2.38156989966093, -1.37499956608375, -7.50000024395116 ) );
#729 = CARTESIAN_POINT( '', ( 2.24348645675064, -1.61416718975418, -7.50000024122701 ) );
#730 = CARTESIAN_POINT( '', ( 2.10775075916651, -1.84926839779353, -7.45777306910581 ) );
#731 = CARTESIAN_POINT( '', ( 1.84004558722738, -2.31294752157203, -7.30557843612313 ) );
#732 = CARTESIAN_POINT( '', ( 1.71205702798850, -2.53463028762279, -7.19891732043821 ) );
#733 = CARTESIAN_POINT( '', ( 1.58771334590537, -2.74999993901230, -7.07457358044511 ) );
#734 = COLOUR_RGB( '', 0.329411774900000, 0.337254911700000, 0.349019616800000 );
#735 = CARTESIAN_POINT( '', ( 0.000000000000000, -2.75000006098778, 7.50000000000000 ) );
#736 = CARTESIAN_POINT( '', ( -1.58771292336966, -2.74999969506110, 7.07457400298059 ) );
#737 = CARTESIAN_POINT( '', ( -1.58771292336981, -2.74999969506110, 7.07457400298081 ) );
#738 = CARTESIAN_POINT( '', ( -1.34130090707070, -2.74999971399162, 7.19777998653890 ) );
#739 = CARTESIAN_POINT( '', ( -1.08230917203634, -2.74999973388858, 7.30556918306063 ) );
#740 = CARTESIAN_POINT( '', ( -0.685731665909066, -2.74999976435552, 7.41862724903892 ) );
#741 = CARTESIAN_POINT( '', ( -0.551665101542212, -2.74999977465514, 7.44845345541699 ) );
#742 = CARTESIAN_POINT( '', ( -0.279017109753279, -2.74999979560124, 7.48917053679325 ) );
#743 = CARTESIAN_POINT( '', ( -0.139107622785499, -2.74999980634974, 7.50000024594591 ) );
#744 = CARTESIAN_POINT( '', ( 0.000000000000000, -2.74999981703663, 7.50000024395118 ) );
#745 = CARTESIAN_POINT( '', ( -2.38156970195626, -1.37500039642059, 7.50000000000000 ) );
#746 = AXIS2_PLACEMENT_3D( '', #883, #884, #885 );
#747 = CARTESIAN_POINT( '', ( -1.58771292336966, -2.74999969506110, 7.07457400298059 ) );
#748 = CARTESIAN_POINT( '', ( -1.71220044047483, -2.53438106703654, 7.19906146210884 ) );
#749 = CARTESIAN_POINT( '', ( -1.83950559819374, -2.31388214404322, 7.30484375537247 ) );
#750 = CARTESIAN_POINT( '', ( -2.03732807424538, -1.97124368622386, 7.41794499211374 ) );
#751 = CARTESIAN_POINT( '', ( -2.10442516708873, -1.85502815361671, 7.44796941646829 ) );
#752 = CARTESIAN_POINT( '', ( -2.24147129815977, -1.61765737584910, 7.48908536394400 ) );
#753 = CARTESIAN_POINT( '', ( -2.31204062064073, -1.49542776722809, 7.50000024532286 ) );
#754 = CARTESIAN_POINT( '', ( -2.38156950425157, -1.37500025095283, 7.50000024395117 ) );
#755 = COLOUR_RGB( '', 0.329411774900000, 0.337254911700000, 0.349019616800000 );
#756 = CARTESIAN_POINT( '', ( 2.38157012449205, -1.37499966456715, 7.50000000000000 ) );
#757 = CARTESIAN_POINT( '', ( 1.58771334590543, -2.74999993901221, 7.07457358044485 ) );
#758 = CARTESIAN_POINT( '', ( 2.38156989966093, -1.37499956608375, 7.50000024395116 ) );
#759 = CARTESIAN_POINT( '', ( 2.24348645675064, -1.61416718975418, 7.50000024122701 ) );
#760 = CARTESIAN_POINT( '', ( 2.10775075916651, -1.84926839779353, 7.45777306910581 ) );
#761 = CARTESIAN_POINT( '', ( 1.84004558722738, -2.31294752157203, 7.30557843612313 ) );
#762 = CARTESIAN_POINT( '', ( 1.71205702798850, -2.53463028762279, 7.19891732043821 ) );
#763 = CARTESIAN_POINT( '', ( 1.58771334590537, -2.74999993901230, 7.07457358044511 ) );
#764 = AXIS2_PLACEMENT_3D( '', #886, #887, #888 );
#765 = CARTESIAN_POINT( '', ( 0.000000000000000, -2.74999981703663, 7.50000024395118 ) );
#766 = CARTESIAN_POINT( '', ( 0.278643748493772, -2.74999983844336, 7.50000023995558 ) );
#767 = CARTESIAN_POINT( '', ( 0.550356198698613, -2.74999985931758, 7.45711941349096 ) );
#768 = CARTESIAN_POINT( '', ( 0.949933063799249, -2.74999989001494, 7.34335766715111 ) );
#769 = CARTESIAN_POINT( '', ( 1.08237220781098, -2.74999990018954, 7.29700268936598 ) );
#770 = CARTESIAN_POINT( '', ( 1.33941774528890, -2.74999991993698, 7.19341636581938 ) );
#771 = CARTESIAN_POINT( '', ( 1.46474780180217, -2.74999992956542, 7.13605636476821 ) );
#772 = CARTESIAN_POINT( '', ( 1.58771334590542, -2.74999993901221, 7.07457358044485 ) );
#773 = COLOUR_RGB( '', 0.329411774900000, 0.337254911700000, 0.349019616800000 );
#774 = CARTESIAN_POINT( '', ( -1.58771292336966, -2.74999969506110, -7.07457400298059 ) );
#775 = CARTESIAN_POINT( '', ( -2.38156970195626, -1.37500039642059, -7.50000000000000 ) );
#776 = CARTESIAN_POINT( '', ( -1.58771292336966, -2.74999969506110, -7.07457400298059 ) );
#777 = CARTESIAN_POINT( '', ( -1.71220044047483, -2.53438106703654, -7.19906146210884 ) );
#778 = CARTESIAN_POINT( '', ( -1.83950559819374, -2.31388214404322, -7.30484375537247 ) );
#779 = CARTESIAN_POINT( '', ( -2.03732807424538, -1.97124368622386, -7.41794499211374 ) );
#780 = CARTESIAN_POINT( '', ( -2.10442516708873, -1.85502815361671, -7.44796941646829 ) );
#781 = CARTESIAN_POINT( '', ( -2.24147129815977, -1.61765737584910, -7.48908536394400 ) );
#782 = CARTESIAN_POINT( '', ( -2.31204062064073, -1.49542776722809, -7.50000024532286 ) );
#783 = CARTESIAN_POINT( '', ( -2.38156950425157, -1.37500025095283, -7.50000024395117 ) );
#784 = AXIS2_PLACEMENT_3D( '', #889, #890, #891 );
#785 = CARTESIAN_POINT( '', ( -1.58771292336981, -2.74999969506110, -7.07457400298081 ) );
#786 = CARTESIAN_POINT( '', ( -1.34130090707070, -2.74999971399162, -7.19777998653890 ) );
#787 = CARTESIAN_POINT( '', ( -1.08230917203634, -2.74999973388858, -7.30556918306063 ) );
#788 = CARTESIAN_POINT( '', ( -0.685731665909066, -2.74999976435552, -7.41862724903892 ) );
#789 = CARTESIAN_POINT( '', ( -0.551665101542212, -2.74999977465514, -7.44845345541699 ) );
#790 = CARTESIAN_POINT( '', ( -0.279017109753279, -2.74999979560124, -7.48917053679325 ) );
#791 = CARTESIAN_POINT( '', ( -0.139107622785499, -2.74999980634974, -7.50000024594591 ) );
#792 = CARTESIAN_POINT( '', ( 0.000000000000000, -2.74999981703663, -7.50000024395118 ) );
#793 = COLOUR_RGB( '', 0.329411774900000, 0.337254911700000, 0.349019616800000 );
#794 = CARTESIAN_POINT( '', ( -2.38156950425157, -1.37500025095283, -7.50000024395117 ) );
#795 = CARTESIAN_POINT( '', ( -2.51965302065776, -1.13583266971530, -7.50000024122702 ) );
#796 = CARTESIAN_POINT( '', ( -2.65538879048822, -0.900731503387306, -7.45777306910582 ) );
#797 = CARTESIAN_POINT( '', ( -2.92309410491550, -0.437052461874034, -7.30557843612302 ) );
#798 = CARTESIAN_POINT( '', ( -3.05108273227711, -0.215369735154198, -7.19891732043815 ) );
#799 = CARTESIAN_POINT( '', ( -3.17542648054298, 0.000000000000000, -7.07457358044512 ) );
#800 = AXIS2_PLACEMENT_3D( '', #892, #893, #894 );
#801 = COLOUR_RGB( '', 0.329411774900000, 0.337254911700000, 0.349019616800000 );
#802 = CARTESIAN_POINT( '', ( 1.58771334590543, -2.74999993901221, 7.50000000000000 ) );
#803 = VECTOR( '', #895, 1000.00000000000 );
#804 = CARTESIAN_POINT( '', ( -1.58771292336966, -2.74999969506110, 7.50000000000000 ) );
#805 = VECTOR( '', #896, 1000.00000000000 );
#806 = COLOUR_RGB( '', 0.329411774900000, 0.337254911700000, 0.349019616800000 );
#807 = AXIS2_PLACEMENT_3D( '', #897, #898, #899 );
#808 = CARTESIAN_POINT( '', ( -1.58771313463768, 2.74999957308553, 7.07457400298082 ) );
#809 = CARTESIAN_POINT( '', ( -1.34130105597942, 2.74999961094659, 7.19778001771848 ) );
#810 = CARTESIAN_POINT( '', ( -1.08230925325694, 2.74999965074052, 7.30556923713277 ) );
#811 = CARTESIAN_POINT( '', ( -0.685731641040658, 2.74999971167443, 7.41862730785884 ) );
#812 = CARTESIAN_POINT( '', ( -0.551665040169379, 2.74999973227367, 7.44845351101656 ) );
#813 = CARTESIAN_POINT( '', ( -0.279016972520058, 2.74999977416588, 7.48917057395459 ) );
#814 = CARTESIAN_POINT( '', ( -0.139107443280948, 2.74999979566289, 7.50000026731965 ) );
#815 = CARTESIAN_POINT( '', ( 0.000000000000000, 2.74999981703667, 7.50000024395115 ) );
#816 = COLOUR_RGB( '', 0.329411774900000, 0.337254911700000, 0.349019616800000 );
#817 = CARTESIAN_POINT( '', ( -1.58771313463768, 2.74999957308553, -7.07457400298082 ) );
#818 = CARTESIAN_POINT( '', ( -1.34130105597942, 2.74999961094659, -7.19778001771848 ) );
#819 = CARTESIAN_POINT( '', ( -1.08230925325694, 2.74999965074052, -7.30556923713277 ) );
#820 = CARTESIAN_POINT( '', ( -0.685731641040658, 2.74999971167443, -7.41862730785884 ) );
#821 = CARTESIAN_POINT( '', ( -0.551665040169379, 2.74999973227367, -7.44845351101656 ) );
#822 = CARTESIAN_POINT( '', ( -0.279016972520058, 2.74999977416588, -7.48917057395459 ) );
#823 = CARTESIAN_POINT( '', ( -0.139107443280948, 2.74999979566289, -7.50000026731965 ) );
#824 = CARTESIAN_POINT( '', ( 0.000000000000000, 2.74999981703667, -7.50000024395115 ) );
#825 = AXIS2_PLACEMENT_3D( '', #900, #901, #902 );
#826 = COLOUR_RGB( '', 0.329411774900000, 0.337254911700000, 0.349019616800000 );
#827 = COLOUR_RGB( '', 0.184313729400000, 0.749019622800000, 0.580392181900000 );
#828 = CARTESIAN_POINT( '', ( -1.22950000000000, 0.000000000000000, -7.20000000000000 ) );
#829 = AXIS2_PLACEMENT_3D( '', #903, #904, #905 );
#830 = CARTESIAN_POINT( '', ( 1.22950000000000, 0.000000000000000, 7.20000000000000 ) );
#831 = AXIS2_PLACEMENT_3D( '', #906, #907, #908 );
#832 = COLOUR_RGB( '', 0.329411774900000, 0.337254911700000, 0.349019616800000 );
#833 = CARTESIAN_POINT( '', ( 3.17542605800719, 0.000000000000000, -7.07457400298059 ) );
#834 = CARTESIAN_POINT( '', ( 3.05093860716122, -0.215618544304093, -7.19906146210899 ) );
#835 = CARTESIAN_POINT( '', ( 2.92363351720126, -0.436117506418282, -7.30484375537265 ) );
#836 = CARTESIAN_POINT( '', ( 2.72581114644199, -0.778756025028226, -7.41794499211385 ) );
#837 = CARTESIAN_POINT( '', ( 2.65871408931156, -0.894971578254175, -7.44796941646836 ) );
#838 = CARTESIAN_POINT( '', ( 2.52166803118439, -1.13234239813567, -7.48908536394401 ) );
#839 = CARTESIAN_POINT( '', ( 2.45109874626451, -1.25457202844242, -7.50000024532285 ) );
#840 = CARTESIAN_POINT( '', ( 2.38156989966093, -1.37499956608375, -7.50000024395116 ) );
#841 = CARTESIAN_POINT( '', ( 3.17542605800719, 0.000000000000000, 7.07457400298059 ) );
#842 = CARTESIAN_POINT( '', ( 3.05093860716122, -0.215618544304093, 7.19906146210899 ) );
#843 = CARTESIAN_POINT( '', ( 2.92363351720126, -0.436117506418282, 7.30484375537265 ) );
#844 = CARTESIAN_POINT( '', ( 2.72581114644199, -0.778756025028226, 7.41794499211385 ) );
#845 = CARTESIAN_POINT( '', ( 2.65871408931156, -0.894971578254175, 7.44796941646836 ) );
#846 = CARTESIAN_POINT( '', ( 2.52166803118439, -1.13234239813567, 7.48908536394401 ) );
#847 = CARTESIAN_POINT( '', ( 2.45109874626451, -1.25457202844242, 7.50000024532285 ) );
#848 = CARTESIAN_POINT( '', ( 2.38156989966093, -1.37499956608375, 7.50000024395116 ) );
#849 = COLOUR_RGB( '', 0.329411774900000, 0.337254911700000, 0.349019616800000 );
#850 = AXIS2_PLACEMENT_3D( '', #909, #910, #911 );
#851 = CARTESIAN_POINT( '', ( -2.38156950425157, -1.37500025095283, 7.50000024395117 ) );
#852 = CARTESIAN_POINT( '', ( -2.51965302065776, -1.13583266971530, 7.50000024122702 ) );
#853 = CARTESIAN_POINT( '', ( -2.65538879048822, -0.900731503387306, 7.45777306910582 ) );
#854 = CARTESIAN_POINT( '', ( -2.92309410491550, -0.437052461874034, 7.30557843612302 ) );
#855 = CARTESIAN_POINT( '', ( -3.05108273227711, -0.215369735154198, 7.19891732043815 ) );
#856 = CARTESIAN_POINT( '', ( -3.17542648054298, 0.000000000000000, 7.07457358044512 ) );
#857 = COLOUR_RGB( '', 0.329411774900000, 0.337254911700000, 0.349019616800000 );
#858 = CARTESIAN_POINT( '', ( 0.000000000000000, 1.52950000000000, -7.50000000000000 ) );
#859 = AXIS2_PLACEMENT_3D( '', #912, #913, #914 );
#860 = COLOUR_RGB( '', 0.329411774900000, 0.337254911700000, 0.349019616800000 );
#861 = AXIS2_PLACEMENT_3D( '', #915, #916, #917 );
#862 = COLOUR_RGB( '', 0.329411774900000, 0.337254911700000, 0.349019616800000 );
#863 = CARTESIAN_POINT( '', ( 0.000000000000000, 1.52950000000000, 7.50000000000000 ) );
#864 = AXIS2_PLACEMENT_3D( '', #918, #919, #920 );
#865 = AXIS2_PLACEMENT_3D( '', #921, #922, #923 );
#866 = COLOUR_RGB( '', 0.329411774900000, 0.337254911700000, 0.349019616800000 );
#867 = COLOUR_RGB( '', 0.329411774900000, 0.337254911700000, 0.349019616800000 );
#868 = COLOUR_RGB( '', 0.329411774900000, 0.337254911700000, 0.349019616800000 );
#869 = COLOUR_RGB( '', 0.329411774900000, 0.337254911700000, 0.349019616800000 );
#870 = CARTESIAN_POINT( '', ( 0.000000000000000, 0.000000000000000, 7.50000000000000 ) );
#871 = DIRECTION( '', ( 0.000000000000000, 0.000000000000000, -1.00000000000000 ) );
#872 = DIRECTION( '', ( -1.00000000000000, 0.000000000000000, 0.000000000000000 ) );
#873 = DIRECTION( '', ( 0.000000000000000, 0.000000000000000, -1.00000000000000 ) );
#874 = DIRECTION( '', ( 0.000000000000000, 0.000000000000000, -1.00000000000000 ) );
#875 = CARTESIAN_POINT( '', ( 0.000000000000000, 0.000000000000000, -7.50000000000000 ) );
#876 = DIRECTION( '', ( 0.000000000000000, 0.000000000000000, -1.00000000000000 ) );
#877 = DIRECTION( '', ( -1.00000000000000, 0.000000000000000, 0.000000000000000 ) );
#878 = DIRECTION( '', ( 0.000000000000000, 0.000000000000000, -1.00000000000000 ) );
#879 = DIRECTION( '', ( 0.000000000000000, 0.000000000000000, -1.00000000000000 ) );
#880 = CARTESIAN_POINT( '', ( 0.000000000000000, 0.000000000000000, -7.50000000000000 ) );
#881 = DIRECTION( '', ( 0.000000000000000, 0.000000000000000, -1.00000000000000 ) );
#882 = DIRECTION( '', ( -1.00000000000000, 0.000000000000000, 0.000000000000000 ) );
#883 = CARTESIAN_POINT( '', ( 0.000000000000000, 0.000000000000000, 7.50000000000000 ) );
#884 = DIRECTION( '', ( 0.000000000000000, 0.000000000000000, -1.00000000000000 ) );
#885 = DIRECTION( '', ( -1.00000000000000, 0.000000000000000, 0.000000000000000 ) );
#886 = CARTESIAN_POINT( '', ( 0.000000000000000, 0.000000000000000, 7.50000000000000 ) );
#887 = DIRECTION( '', ( 0.000000000000000, 0.000000000000000, -1.00000000000000 ) );
#888 = DIRECTION( '', ( -1.00000000000000, 0.000000000000000, 0.000000000000000 ) );
#889 = CARTESIAN_POINT( '', ( 0.000000000000000, 0.000000000000000, -7.50000000000000 ) );
#890 = DIRECTION( '', ( 0.000000000000000, 0.000000000000000, -1.00000000000000 ) );
#891 = DIRECTION( '', ( -1.00000000000000, 0.000000000000000, 0.000000000000000 ) );
#892 = CARTESIAN_POINT( '', ( 0.000000000000000, 0.000000000000000, -7.50000000000000 ) );
#893 = DIRECTION( '', ( 0.000000000000000, 0.000000000000000, -1.00000000000000 ) );
#894 = DIRECTION( '', ( -1.00000000000000, 0.000000000000000, 0.000000000000000 ) );
#895 = DIRECTION( '', ( 0.000000000000000, 0.000000000000000, -1.00000000000000 ) );
#896 = DIRECTION( '', ( 0.000000000000000, 0.000000000000000, -1.00000000000000 ) );
#897 = CARTESIAN_POINT( '', ( 0.000000000000000, 0.000000000000000, 7.50000000000000 ) );
#898 = DIRECTION( '', ( 0.000000000000000, 0.000000000000000, 1.00000000000000 ) );
#899 = DIRECTION( '', ( 1.00000000000000, 0.000000000000000, 0.000000000000000 ) );
#900 = CARTESIAN_POINT( '', ( 0.000000000000000, 0.000000000000000, -7.50000000000000 ) );
#901 = DIRECTION( '', ( 0.000000000000000, 0.000000000000000, 1.00000000000000 ) );
#902 = DIRECTION( '', ( 1.00000000000000, 0.000000000000000, 0.000000000000000 ) );
#903 = CARTESIAN_POINT( '', ( 0.000000000000000, 0.000000000000000, -7.20000000000000 ) );
#904 = DIRECTION( '', ( 0.000000000000000, 0.000000000000000, -1.00000000000000 ) );
#905 = DIRECTION( '', ( -1.00000000000000, 0.000000000000000, 0.000000000000000 ) );
#906 = CARTESIAN_POINT( '', ( 0.000000000000000, 0.000000000000000, 7.20000000000000 ) );
#907 = DIRECTION( '', ( 0.000000000000000, 0.000000000000000, 1.00000000000000 ) );
#908 = DIRECTION( '', ( 1.00000000000000, 0.000000000000000, 0.000000000000000 ) );
#909 = CARTESIAN_POINT( '', ( 0.000000000000000, 0.000000000000000, 7.50000000000000 ) );
#910 = DIRECTION( '', ( 0.000000000000000, 0.000000000000000, -1.00000000000000 ) );
#911 = DIRECTION( '', ( -1.00000000000000, 0.000000000000000, 0.000000000000000 ) );
#912 = CARTESIAN_POINT( '', ( 0.000000000000000, 0.000000000000000, -7.50000000000000 ) );
#913 = DIRECTION( '', ( 0.000000000000000, -0.000000000000000, 1.00000000000000 ) );
#914 = DIRECTION( '', ( 0.000000000000000, 1.00000000000000, 0.000000000000000 ) );
#915 = CARTESIAN_POINT( '', ( 0.000000000000000, 0.000000000000000, -7.50000000000000 ) );
#916 = DIRECTION( '', ( 0.000000000000000, 0.000000000000000, -1.00000000000000 ) );
#917 = DIRECTION( '', ( -1.00000000000000, 0.000000000000000, 0.000000000000000 ) );
#918 = CARTESIAN_POINT( '', ( 0.000000000000000, 0.000000000000000, 7.50000000000000 ) );
#919 = DIRECTION( '', ( 0.000000000000000, 0.000000000000000, -1.00000000000000 ) );
#920 = DIRECTION( '', ( 0.000000000000000, 1.00000000000000, 0.000000000000000 ) );
#921 = CARTESIAN_POINT( '', ( 0.000000000000000, 0.000000000000000, 7.50000000000000 ) );
#922 = DIRECTION( '', ( 0.000000000000000, 0.000000000000000, -1.00000000000000 ) );
#923 = DIRECTION( '', ( -1.00000000000000, 0.000000000000000, 0.000000000000000 ) );
ENDSEC;
END-ISO-10303-21;
