ISO-10303-21;

HEADER;
FILE_DESCRIPTION((' '),'2;1');
FILE_NAME( 'Washer 11x7x0.5.stp',
           '2022-09-04T13:28:50',
           (' '),
           ('--- Datakit www.datakit.com---'),
           ' Datakit CrossCadWare V2022.3  Jun 15 2022',
           'DATAKIT 2022 (c)',
           ' ');
FILE_SCHEMA(('AP242_MANAGED_MODEL_BASED_3D_ENGINEERING_MIM_LF { 1 0 10303 442 1 1 4 }'));
ENDSEC;

DATA;
#1=APPLICATION_CONTEXT('Managed model based 3d engineering');
#2=APPLICATION_PROTOCOL_DEFINITION('international standard','ap242_managed_model_based_3d_engineering',2013,#1);
#3=(LENGTH_UNIT()NAMED_UNIT(*)SI_UNIT(.MILLI.,.METRE.));
#4=(NAMED_UNIT(*)PLANE_ANGLE_UNIT()SI_UNIT($,.RADIAN.));
#5=( GEOMETRIC_REPRESENTATION_CONTEXT(3)
       GLOBAL_UNCERTAINTY_ASSIGNED_CONTEXT((#6)) GLOBAL_UNIT_ASSIGNED_CONTEXT
  ((#3,#4)) REPRESENTATION_CONTEXT('Context #1',
  '3D Context with UNIT and UNCERTAINTY') );
#6=UNCERTAINTY_MEASURE_WITH_UNIT(LENGTH_MEASURE(0.005),#3,'distance_accuracy_value','Confusion accuracy');
#7=PRODUCT_CONTEXT('',#1,'mechanical');
#8=PRODUCT('Washer 11x7x0.5','','',(#7));
#9=PRODUCT_DEFINITION_FORMATION('','',#8);
#10=PRODUCT_DEFINITION_CONTEXT('part definition',#1,'design');
#11=PRODUCT_DEFINITION('design','',#9,#10);
#12=PRODUCT_DEFINITION_SHAPE('','',#11);
#13=PRODUCT_CATEGORY('part',$);
#14=PRODUCT_RELATED_PRODUCT_CATEGORY('part',$,(#8));
#15=PRODUCT_CATEGORY_RELATIONSHIP('','',#13,#14);
#16=CARTESIAN_POINT('',(0.0,0.15,-5.5));
#17=VERTEX_POINT('',#16);
#18=CARTESIAN_POINT('',(0.0,0.15,0.0));
#19=DIRECTION('',(-0.0,1.0,-0.0));
#20=DIRECTION('',(0.0,-0.0,-1.0));
#21=AXIS2_PLACEMENT_3D('',#18,#19,#20);
#22=CIRCLE('',#21,5.5);
#23=EDGE_CURVE('n° 485',#17,#17,#22,.T.);
#24=ORIENTED_EDGE('',*,*,#23,.T.);
#25=EDGE_LOOP('',(#24));
#26=FACE_OUTER_BOUND('',#25,.T.);
#27=CARTESIAN_POINT('',(0.0,0.45,5.5));
#28=VERTEX_POINT('',#27);
#29=CARTESIAN_POINT('',(0.0,0.45,0.0));
#30=DIRECTION('',(-0.0,-1.0,-0.0));
#31=DIRECTION('',(0.0,0.0,1.0));
#32=AXIS2_PLACEMENT_3D('',#29,#30,#31);
#33=CIRCLE('',#32,5.5);
#34=EDGE_CURVE('n° 121',#28,#28,#33,.T.);
#35=ORIENTED_EDGE('',*,*,#34,.T.);
#36=EDGE_LOOP('',(#35));
#37=FACE_BOUND('',#36,.T.);
#38=CARTESIAN_POINT('',(0.0,0.5,0.0));
#39=DIRECTION('',(0.0,-1.0,0.0));
#40=DIRECTION('',(0.0,0.0,-1.0));
#41=AXIS2_PLACEMENT_3D('',#38,#39,#40);
#42=CYLINDRICAL_SURFACE('',#41,5.5);
#43=ADVANCED_FACE('n° 411',(#26,#37),#42,.T.);
#44=CARTESIAN_POINT('',(0.0,0.45,3.5));
#45=VERTEX_POINT('',#44);
#46=CARTESIAN_POINT('',(0.0,0.45,0.0));
#47=DIRECTION('',(0.0,1.0,0.0));
#48=DIRECTION('',(0.0,0.0,1.0));
#49=AXIS2_PLACEMENT_3D('',#46,#47,#48);
#50=CIRCLE('',#49,3.5);
#51=EDGE_CURVE('n° 109',#45,#45,#50,.T.);
#52=ORIENTED_EDGE('',*,*,#51,.T.);
#53=EDGE_LOOP('',(#52));
#54=FACE_OUTER_BOUND('',#53,.T.);
#55=CARTESIAN_POINT('',(0.0,0.1,-3.5));
#56=VERTEX_POINT('',#55);
#57=CARTESIAN_POINT('',(0.0,0.1,0.0));
#58=DIRECTION('',(0.0,-1.0,0.0));
#59=DIRECTION('',(0.0,-0.0,-1.0));
#60=AXIS2_PLACEMENT_3D('',#57,#58,#59);
#61=CIRCLE('',#60,3.5);
#62=EDGE_CURVE('n° 415',#56,#56,#61,.T.);
#63=ORIENTED_EDGE('',*,*,#62,.T.);
#64=EDGE_LOOP('',(#63));
#65=FACE_BOUND('',#64,.T.);
#66=CARTESIAN_POINT('',(0.0,0.5,0.0));
#67=DIRECTION('',(0.0,-1.0,0.0));
#68=DIRECTION('',(0.0,0.0,-1.0));
#69=AXIS2_PLACEMENT_3D('',#66,#67,#68);
#70=CYLINDRICAL_SURFACE('',#69,3.5);
#71=ADVANCED_FACE('n° 405',(#54,#65),#70,.F.);
#72=CARTESIAN_POINT('',(0.0,0.5,3.55));
#73=VERTEX_POINT('',#72);
#74=CARTESIAN_POINT('',(0.0,0.5,0.0));
#75=DIRECTION('',(-0.0,-1.0,-0.0));
#76=DIRECTION('',(0.0,0.0,1.0));
#77=AXIS2_PLACEMENT_3D('',#74,#75,#76);
#78=CIRCLE('',#77,3.55);
#79=EDGE_CURVE('n° 139',#73,#73,#78,.T.);
#80=ORIENTED_EDGE('',*,*,#79,.T.);
#81=EDGE_LOOP('',(#80));
#82=FACE_OUTER_BOUND('',#81,.T.);
#83=CARTESIAN_POINT('',(0.0,0.5,5.45));
#84=VERTEX_POINT('',#83);
#85=CARTESIAN_POINT('',(0.0,0.5,0.0));
#86=DIRECTION('',(0.0,1.0,0.0));
#87=DIRECTION('',(0.0,0.0,1.0));
#88=AXIS2_PLACEMENT_3D('',#85,#86,#87);
#89=CIRCLE('',#88,5.45);
#90=EDGE_CURVE('n° 133',#84,#84,#89,.T.);
#91=ORIENTED_EDGE('',*,*,#90,.T.);
#92=EDGE_LOOP('',(#91));
#93=FACE_BOUND('',#92,.T.);
#94=CARTESIAN_POINT('',(0.0,0.5,0.0));
#95=DIRECTION('',(0.0,1.0,0.0));
#96=DIRECTION('',(0.0,0.0,1.0));
#97=AXIS2_PLACEMENT_3D('',#94,#95,#96);
#98=PLANE('',#97);
#99=ADVANCED_FACE('n° 46',(#82,#93),#98,.T.);
#100=ORIENTED_EDGE('',*,*,#79,.F.);
#101=EDGE_LOOP('',(#100));
#102=FACE_OUTER_BOUND('',#101,.T.);
#103=ORIENTED_EDGE('',*,*,#51,.F.);
#104=EDGE_LOOP('',(#103));
#105=FACE_BOUND('',#104,.T.);
#106=CARTESIAN_POINT('',(0.0,0.45,0.0));
#107=DIRECTION('',(0.0,1.0,0.0));
#108=DIRECTION('',(0.0,0.0,1.0));
#109=AXIS2_PLACEMENT_3D('',#106,#107,#108);
#110=TOROIDAL_SURFACE('',#109,3.55,0.05);
#111=ADVANCED_FACE('n° 180',(#102,#105),#110,.T.);
#112=ORIENTED_EDGE('',*,*,#34,.F.);
#113=EDGE_LOOP('',(#112));
#114=FACE_OUTER_BOUND('',#113,.T.);
#115=ORIENTED_EDGE('',*,*,#90,.F.);
#116=EDGE_LOOP('',(#115));
#117=FACE_BOUND('',#116,.T.);
#118=CARTESIAN_POINT('',(0.0,0.45,0.0));
#119=DIRECTION('',(0.0,1.0,0.0));
#120=DIRECTION('',(0.0,0.0,1.0));
#121=AXIS2_PLACEMENT_3D('',#118,#119,#120);
#122=TOROIDAL_SURFACE('',#121,5.45,0.05);
#123=ADVANCED_FACE('n° 193',(#114,#117),#122,.T.);
#124=CARTESIAN_POINT('',(0.0,0.1,-5.45));
#125=VERTEX_POINT('',#124);
#126=CARTESIAN_POINT('',(0.0,0.1,0.0));
#127=DIRECTION('',(0.0,-1.0,0.0));
#128=DIRECTION('',(0.0,-0.0,-1.0));
#129=AXIS2_PLACEMENT_3D('',#126,#127,#128);
#130=CIRCLE('',#129,5.45);
#131=EDGE_CURVE('n° 478',#125,#125,#130,.T.);
#132=ORIENTED_EDGE('',*,*,#131,.T.);
#133=EDGE_LOOP('',(#132));
#134=FACE_OUTER_BOUND('',#133,.T.);
#135=ORIENTED_EDGE('',*,*,#62,.F.);
#136=EDGE_LOOP('',(#135));
#137=FACE_BOUND('',#136,.T.);
#138=CARTESIAN_POINT('',(0.0,0.1,0.0));
#139=DIRECTION('',(0.0,-1.0,0.0));
#140=DIRECTION('',(0.0,-0.0,-1.0));
#141=AXIS2_PLACEMENT_3D('',#138,#139,#140);
#142=PLANE('',#141);
#143=ADVANCED_FACE('n° 425',(#134,#137),#142,.T.);
#144=ORIENTED_EDGE('',*,*,#23,.F.);
#145=EDGE_LOOP('',(#144));
#146=FACE_OUTER_BOUND('',#145,.T.);
#147=ORIENTED_EDGE('',*,*,#131,.F.);
#148=EDGE_LOOP('',(#147));
#149=FACE_BOUND('',#148,.T.);
#150=CARTESIAN_POINT('',(0.0,0.15,0.0));
#151=DIRECTION('',(0.0,-1.0,0.0));
#152=DIRECTION('',(0.0,-0.0,-1.0));
#153=AXIS2_PLACEMENT_3D('',#150,#151,#152);
#154=TOROIDAL_SURFACE('',#153,5.45,0.05);
#155=ADVANCED_FACE('n° 498',(#146,#149),#154,.T.);
#156=CLOSED_SHELL('Verrundung1',(#43,#71,#99,#111,#123,#143,#155));
#157=MANIFOLD_SOLID_BREP('Verrundung1',#156);
#158=COLOUR_RGB('',0.8,0.80784,0.8);
#159=FILL_AREA_STYLE_COLOUR('',#158);
#160=FILL_AREA_STYLE('',(#159));
#161=SURFACE_STYLE_FILL_AREA(#160);
#162=SURFACE_SIDE_STYLE('',(#161));
#163=SURFACE_STYLE_USAGE(.BOTH.,#162);
#164=PRESENTATION_STYLE_ASSIGNMENT((#163));
#165=STYLED_ITEM('',(#164),#157);
#166=CARTESIAN_POINT('',(0.,0.,0.));
#167=DIRECTION('',(0.,0.,1.));
#168=DIRECTION('',(1.,0.,0.));
#169=AXIS2_PLACEMENT_3D('Reference Axes',#166,#167,#168);
#170=ADVANCED_BREP_SHAPE_REPRESENTATION('',(#169,#157),#5);
#171=SHAPE_DEFINITION_REPRESENTATION(#12,#170);
#172=MECHANICAL_DESIGN_GEOMETRIC_PRESENTATION_REPRESENTATION('',(#165),#5);
ENDSEC;
END-ISO-10303-21;
